<svg width="257" height="106" viewBox="0 0 257 106" fill="none" xmlns="http://www.w3.org/2000/svg">
<path d="M1 80C1 80 13.7876 69.3045 25.017 68.5721C29.2094 68.2987 34.1432 66.5593 38.3168 65.7338C44.5067 64.5095 51.807 62.522 58.1187 62.522C60.4716 62.522 62.766 60.9211 65.0642 60.356C68.1816 59.5894 71.4619 58.7496 74.6696 58.526C79.842 58.1654 85.1914 57.1442 90.3707 57.1442C94.1246 57.1442 97.8854 57.2132 101.639 57.1442C105.943 57.0651 109.688 54.725 113.941 54.4926C121.912 54.0571 128.477 50.5063 136.661 50.4219C145.719 50.3285 154.305 49.7254 162.965 46.9114C169.527 44.7795 175.799 42.5704 182.62 41.1601C184.151 40.8434 185.373 40.2562 186.831 39.7036C191.79 37.8239 197.98 38.2232 203.197 37.6869C208.27 37.1654 212.719 35.7752 217.347 33.6162C220.248 32.2625 225.125 31.5995 228.319 31.5995C231.289 31.5995 234.263 28.7138 237.297 28.2757C239.924 27.8962 242.388 28.1775 244.944 27.6034C250.62 26.3284 249.965 23 256 23" stroke="#7A18F6" stroke-linecap="round" stroke-linejoin="round"/>
<path d="M25.017 68.4287C13.7876 69.1588 1 79.8207 1 79.8207V98C1 99.1046 1.89543 100 3 100H254C255.105 100 256 99.1046 256 98V23C249.965 23 250.62 26.3179 244.944 27.589C242.388 28.1613 239.924 27.8808 237.297 28.2591C234.263 28.6958 231.289 31.5724 228.319 31.5724C225.125 31.5724 220.248 32.2333 217.347 33.5828C212.719 35.735 208.27 37.1208 203.197 37.6407C197.98 38.1753 191.79 37.7773 186.831 39.651C185.373 40.2019 184.151 40.7872 182.62 41.1029C175.799 42.5089 169.527 44.7109 162.965 46.8361C154.305 49.6413 145.719 50.2425 136.661 50.3356C128.477 50.4198 121.912 53.9594 113.941 54.3936C109.688 54.6252 105.943 56.9579 101.639 57.0368C97.8854 57.1055 94.1246 57.0368 90.3707 57.0368C85.1914 57.0368 79.8419 58.0548 74.6696 58.4142C71.4619 58.6372 68.1816 59.4743 65.0642 60.2384C62.766 60.8018 60.4716 62.3977 58.1187 62.3977C51.807 62.3977 44.5067 64.379 38.3168 65.5994C34.1432 66.4222 29.2094 68.1562 25.017 68.4287Z" fill="url(#paint0_linear)"/>
<path d="M6.2 102.168H6.636L7.856 105H7.28L7.016 104.352H5.788L5.532 105H4.968L6.2 102.168ZM6.84 103.92L6.404 102.768L5.96 103.92H6.84ZM8.57222 103.08V103.348H8.58422C8.60822 103.311 8.63889 103.273 8.67622 103.236C8.71622 103.196 8.76422 103.161 8.82022 103.132C8.87622 103.1 8.93889 103.075 9.00822 103.056C9.08022 103.035 9.16022 103.024 9.24822 103.024C9.38422 103.024 9.50955 103.051 9.62422 103.104C9.73889 103.155 9.83755 103.225 9.92022 103.316C10.0029 103.407 10.0669 103.513 10.1122 103.636C10.1576 103.759 10.1802 103.891 10.1802 104.032C10.1802 104.173 10.1576 104.307 10.1122 104.432C10.0696 104.555 10.0069 104.663 9.92422 104.756C9.84422 104.847 9.74555 104.92 9.62822 104.976C9.51355 105.029 9.38289 105.056 9.23622 105.056C9.10022 105.056 8.97489 105.028 8.86022 104.972C8.74822 104.916 8.66155 104.84 8.60022 104.744H8.59222V105.96H8.11222V103.08H8.57222ZM9.69222 104.032C9.69222 103.957 9.68022 103.884 9.65622 103.812C9.63489 103.737 9.60155 103.671 9.55622 103.612C9.51089 103.553 9.45355 103.507 9.38422 103.472C9.31489 103.435 9.23355 103.416 9.14022 103.416C9.05222 103.416 8.97355 103.435 8.90422 103.472C8.83489 103.509 8.77489 103.557 8.72422 103.616C8.67622 103.675 8.63889 103.741 8.61222 103.816C8.58822 103.891 8.57622 103.965 8.57622 104.04C8.57622 104.115 8.58822 104.189 8.61222 104.264C8.63889 104.336 8.67622 104.401 8.72422 104.46C8.77489 104.519 8.83489 104.567 8.90422 104.604C8.97355 104.639 9.05222 104.656 9.14022 104.656C9.23355 104.656 9.31489 104.637 9.38422 104.6C9.45355 104.563 9.51089 104.515 9.55622 104.456C9.60155 104.397 9.63489 104.331 9.65622 104.256C9.68022 104.181 9.69222 104.107 9.69222 104.032ZM10.6435 103.08H11.1035V103.4H11.1115C11.1648 103.288 11.2395 103.197 11.3355 103.128C11.4315 103.059 11.5435 103.024 11.6715 103.024C11.6901 103.024 11.7101 103.025 11.7315 103.028C11.7528 103.028 11.7715 103.031 11.7875 103.036V103.476C11.7555 103.468 11.7275 103.463 11.7035 103.46C11.6821 103.457 11.6608 103.456 11.6395 103.456C11.5301 103.456 11.4421 103.476 11.3755 103.516C11.3088 103.556 11.2568 103.604 11.2195 103.66C11.1821 103.716 11.1568 103.773 11.1435 103.832C11.1301 103.891 11.1235 103.937 11.1235 103.972V105H10.6435V103.08ZM11.8211 104.72C11.8211 104.635 11.8518 104.561 11.9131 104.5C11.9771 104.439 12.0531 104.408 12.1411 104.408C12.2264 104.408 12.3011 104.437 12.3651 104.496C12.4291 104.555 12.4611 104.627 12.4611 104.712C12.4611 104.797 12.4291 104.871 12.3651 104.932C12.3038 104.993 12.2291 105.024 12.1411 105.024C12.0984 105.024 12.0571 105.016 12.0171 105C11.9798 104.984 11.9464 104.963 11.9171 104.936C11.8878 104.909 11.8638 104.877 11.8451 104.84C11.8291 104.803 11.8211 104.763 11.8211 104.72Z" fill="#0C0C0D"/>
<path d="M45.312 102.168H46.1L46.836 104.18H46.848L47.576 102.168H48.368V105H47.868V102.724H47.86L47 105H46.648L45.8 102.724H45.792V105H45.312V102.168ZM50.1597 104.756H50.1477C50.0997 104.841 50.0224 104.912 49.9157 104.968C49.809 105.021 49.6877 105.048 49.5517 105.048C49.4744 105.048 49.393 105.037 49.3077 105.016C49.225 104.997 49.1477 104.965 49.0757 104.92C49.0064 104.872 48.9477 104.811 48.8997 104.736C48.8544 104.659 48.8317 104.564 48.8317 104.452C48.8317 104.308 48.8717 104.193 48.9517 104.108C49.0344 104.023 49.1397 103.957 49.2677 103.912C49.3957 103.867 49.537 103.837 49.6917 103.824C49.849 103.808 50.0024 103.8 50.1517 103.8V103.752C50.1517 103.632 50.1077 103.544 50.0197 103.488C49.9344 103.429 49.8317 103.4 49.7117 103.4C49.6104 103.4 49.513 103.421 49.4197 103.464C49.3264 103.507 49.249 103.559 49.1877 103.62L48.9397 103.328C49.049 103.227 49.1744 103.151 49.3157 103.1C49.4597 103.049 49.605 103.024 49.7517 103.024C49.9224 103.024 50.0624 103.048 50.1717 103.096C50.2837 103.144 50.3717 103.207 50.4357 103.284C50.4997 103.361 50.5437 103.448 50.5677 103.544C50.5944 103.64 50.6077 103.736 50.6077 103.832V105H50.1597V104.756ZM50.1517 104.124H50.0437C49.9664 104.124 49.885 104.128 49.7997 104.136C49.7144 104.141 49.6357 104.156 49.5637 104.18C49.4917 104.201 49.4317 104.233 49.3837 104.276C49.3357 104.316 49.3117 104.372 49.3117 104.444C49.3117 104.489 49.321 104.528 49.3397 104.56C49.361 104.589 49.3877 104.613 49.4197 104.632C49.4517 104.651 49.4877 104.664 49.5277 104.672C49.5677 104.68 49.6077 104.684 49.6477 104.684C49.813 104.684 49.9384 104.64 50.0237 104.552C50.109 104.464 50.1517 104.344 50.1517 104.192V104.124ZM50.8789 103.08H51.4109L51.9469 104.476H51.9549L52.4309 103.08H52.9309L52.0229 105.412C51.9882 105.5 51.9509 105.577 51.9109 105.644C51.8709 105.713 51.8229 105.771 51.7669 105.816C51.7109 105.864 51.6442 105.9 51.5669 105.924C51.4922 105.948 51.4016 105.96 51.2949 105.96C51.2549 105.96 51.2136 105.957 51.1709 105.952C51.1309 105.949 51.0896 105.943 51.0469 105.932L51.0869 105.516C51.1189 105.527 51.1496 105.533 51.1789 105.536C51.2109 105.541 51.2402 105.544 51.2669 105.544C51.3176 105.544 51.3602 105.537 51.3949 105.524C51.4296 105.513 51.4589 105.495 51.4829 105.468C51.5069 105.444 51.5282 105.413 51.5469 105.376C51.5656 105.339 51.5856 105.295 51.6069 105.244L51.7029 105L50.8789 103.08Z" fill="#0C0C0D"/>
<path d="M86.704 104.084C86.704 104.188 86.692 104.297 86.668 104.412C86.6467 104.527 86.6053 104.633 86.544 104.732C86.4827 104.831 86.396 104.912 86.284 104.976C86.172 105.04 86.028 105.072 85.852 105.072C85.6227 105.072 85.4387 105.015 85.3 104.9C85.164 104.785 85.0707 104.635 85.02 104.448L85.484 104.316C85.508 104.409 85.552 104.484 85.616 104.54C85.68 104.593 85.756 104.62 85.844 104.62C85.916 104.62 85.9747 104.607 86.02 104.58C86.068 104.553 86.104 104.516 86.128 104.468C86.1547 104.417 86.1733 104.359 86.184 104.292C86.1947 104.223 86.2 104.148 86.2 104.068V102.168H86.704V104.084ZM89.0322 105H88.5762V104.692H88.5682C88.5255 104.788 88.4509 104.873 88.3442 104.948C88.2402 105.02 88.1162 105.056 87.9722 105.056C87.8469 105.056 87.7389 105.035 87.6482 104.992C87.5602 104.947 87.4869 104.888 87.4282 104.816C87.3722 104.744 87.3309 104.661 87.3042 104.568C87.2775 104.475 87.2642 104.379 87.2642 104.28V103.08H87.7442V104.144C87.7442 104.2 87.7482 104.259 87.7562 104.32C87.7642 104.381 87.7815 104.437 87.8082 104.488C87.8349 104.536 87.8709 104.576 87.9162 104.608C87.9642 104.64 88.0269 104.656 88.1042 104.656C88.1789 104.656 88.2442 104.641 88.3002 104.612C88.3589 104.58 88.4055 104.54 88.4402 104.492C88.4775 104.444 88.5055 104.389 88.5242 104.328C88.5429 104.264 88.5522 104.2 88.5522 104.136V103.08H89.0322V105ZM89.6083 103.08H90.0643V103.388H90.0723C90.115 103.292 90.1883 103.208 90.2923 103.136C90.399 103.061 90.5243 103.024 90.6683 103.024C90.7936 103.024 90.9003 103.047 90.9883 103.092C91.079 103.135 91.1523 103.192 91.2083 103.264C91.267 103.336 91.3096 103.419 91.3363 103.512C91.363 103.605 91.3763 103.701 91.3763 103.8V105H90.8963V103.936C90.8963 103.88 90.8923 103.821 90.8843 103.76C90.8763 103.699 90.859 103.644 90.8323 103.596C90.8056 103.545 90.7683 103.504 90.7203 103.472C90.675 103.44 90.6136 103.424 90.5363 103.424C90.459 103.424 90.3923 103.44 90.3363 103.472C90.2803 103.501 90.2336 103.54 90.1963 103.588C90.1616 103.636 90.135 103.692 90.1163 103.756C90.0976 103.817 90.0883 103.88 90.0883 103.944V105H89.6083V103.08ZM91.8484 104.72C91.8484 104.635 91.8791 104.561 91.9404 104.5C92.0044 104.439 92.0804 104.408 92.1684 104.408C92.2538 104.408 92.3284 104.437 92.3924 104.496C92.4564 104.555 92.4884 104.627 92.4884 104.712C92.4884 104.797 92.4564 104.871 92.3924 104.932C92.3311 104.993 92.2564 105.024 92.1684 105.024C92.1258 105.024 92.0844 105.016 92.0444 105C92.0071 104.984 91.9738 104.963 91.9444 104.936C91.9151 104.909 91.8911 104.877 91.8724 104.84C91.8564 104.803 91.8484 104.763 91.8484 104.72Z" fill="#0C0C0D"/>
<path d="M126.704 104.084C126.704 104.188 126.692 104.297 126.668 104.412C126.647 104.527 126.605 104.633 126.544 104.732C126.483 104.831 126.396 104.912 126.284 104.976C126.172 105.04 126.028 105.072 125.852 105.072C125.623 105.072 125.439 105.015 125.3 104.9C125.164 104.785 125.071 104.635 125.02 104.448L125.484 104.316C125.508 104.409 125.552 104.484 125.616 104.54C125.68 104.593 125.756 104.62 125.844 104.62C125.916 104.62 125.975 104.607 126.02 104.58C126.068 104.553 126.104 104.516 126.128 104.468C126.155 104.417 126.173 104.359 126.184 104.292C126.195 104.223 126.2 104.148 126.2 104.068V102.168H126.704V104.084ZM129.032 105H128.576V104.692H128.568C128.526 104.788 128.451 104.873 128.344 104.948C128.24 105.02 128.116 105.056 127.972 105.056C127.847 105.056 127.739 105.035 127.648 104.992C127.56 104.947 127.487 104.888 127.428 104.816C127.372 104.744 127.331 104.661 127.304 104.568C127.278 104.475 127.264 104.379 127.264 104.28V103.08H127.744V104.144C127.744 104.2 127.748 104.259 127.756 104.32C127.764 104.381 127.782 104.437 127.808 104.488C127.835 104.536 127.871 104.576 127.916 104.608C127.964 104.64 128.027 104.656 128.104 104.656C128.179 104.656 128.244 104.641 128.3 104.612C128.359 104.58 128.406 104.54 128.44 104.492C128.478 104.444 128.506 104.389 128.524 104.328C128.543 104.264 128.552 104.2 128.552 104.136V103.08H129.032V105ZM129.616 101.976H130.096V105H129.616V101.976ZM130.591 104.72C130.591 104.635 130.621 104.561 130.683 104.5C130.747 104.439 130.823 104.408 130.911 104.408C130.996 104.408 131.071 104.437 131.135 104.496C131.199 104.555 131.231 104.627 131.231 104.712C131.231 104.797 131.199 104.871 131.135 104.932C131.073 104.993 130.999 105.024 130.911 105.024C130.868 105.024 130.827 105.016 130.787 105C130.749 104.984 130.716 104.963 130.687 104.936C130.657 104.909 130.633 104.877 130.615 104.84C130.599 104.803 130.591 104.763 130.591 104.72Z" fill="#0C0C0D"/>
<path d="M166.2 102.168H166.636L167.856 105H167.28L167.016 104.352H165.788L165.532 105H164.968L166.2 102.168ZM166.84 103.92L166.404 102.768L165.96 103.92H166.84ZM169.864 105H169.408V104.692H169.4C169.358 104.788 169.283 104.873 169.176 104.948C169.072 105.02 168.948 105.056 168.804 105.056C168.679 105.056 168.571 105.035 168.48 104.992C168.392 104.947 168.319 104.888 168.26 104.816C168.204 104.744 168.163 104.661 168.136 104.568C168.11 104.475 168.096 104.379 168.096 104.28V103.08H168.576V104.144C168.576 104.2 168.58 104.259 168.588 104.32C168.596 104.381 168.614 104.437 168.64 104.488C168.667 104.536 168.703 104.576 168.748 104.608C168.796 104.64 168.859 104.656 168.936 104.656C169.011 104.656 169.076 104.641 169.132 104.612C169.191 104.58 169.238 104.54 169.272 104.492C169.31 104.444 169.338 104.389 169.356 104.328C169.375 104.264 169.384 104.2 169.384 104.136V103.08H169.864V105ZM172.392 103.08V104.828C172.392 105.001 172.371 105.157 172.328 105.296C172.286 105.437 172.219 105.556 172.128 105.652C172.04 105.751 171.928 105.827 171.792 105.88C171.656 105.933 171.495 105.96 171.308 105.96C171.231 105.96 171.148 105.953 171.06 105.94C170.975 105.927 170.89 105.907 170.804 105.88C170.722 105.853 170.642 105.82 170.564 105.78C170.487 105.74 170.418 105.695 170.356 105.644L170.632 105.272C170.726 105.36 170.831 105.427 170.948 105.472C171.066 105.52 171.184 105.544 171.304 105.544C171.419 105.544 171.515 105.527 171.592 105.492C171.672 105.46 171.735 105.415 171.78 105.356C171.828 105.297 171.862 105.228 171.88 105.148C171.902 105.068 171.912 104.98 171.912 104.884V104.744H171.904C171.835 104.837 171.746 104.909 171.636 104.96C171.53 105.008 171.41 105.032 171.276 105.032C171.132 105.032 171.002 105.005 170.884 104.952C170.767 104.899 170.667 104.827 170.584 104.736C170.504 104.645 170.442 104.54 170.396 104.42C170.351 104.297 170.328 104.168 170.328 104.032C170.328 103.893 170.35 103.763 170.392 103.64C170.438 103.517 170.5 103.411 170.58 103.32C170.663 103.229 170.762 103.157 170.876 103.104C170.994 103.051 171.124 103.024 171.268 103.024C171.404 103.024 171.531 103.052 171.648 103.108C171.766 103.164 171.859 103.251 171.928 103.368H171.936V103.08H172.392ZM171.368 103.416C171.28 103.416 171.202 103.432 171.132 103.464C171.066 103.496 171.008 103.54 170.96 103.596C170.915 103.649 170.879 103.713 170.852 103.788C170.828 103.863 170.816 103.943 170.816 104.028C170.816 104.105 170.828 104.18 170.852 104.252C170.879 104.324 170.915 104.389 170.96 104.448C171.008 104.504 171.066 104.549 171.132 104.584C171.202 104.619 171.279 104.636 171.364 104.636C171.452 104.636 171.531 104.62 171.6 104.588C171.672 104.553 171.732 104.508 171.78 104.452C171.831 104.396 171.87 104.332 171.896 104.26C171.923 104.185 171.936 104.108 171.936 104.028C171.936 103.945 171.923 103.867 171.896 103.792C171.87 103.717 171.831 103.652 171.78 103.596C171.732 103.54 171.674 103.496 171.604 103.464C171.535 103.432 171.456 103.416 171.368 103.416ZM172.88 104.72C172.88 104.635 172.91 104.561 172.972 104.5C173.036 104.439 173.112 104.408 173.2 104.408C173.285 104.408 173.36 104.437 173.424 104.496C173.488 104.555 173.52 104.627 173.52 104.712C173.52 104.797 173.488 104.871 173.424 104.932C173.362 104.993 173.288 105.024 173.2 105.024C173.157 105.024 173.116 105.016 173.076 105C173.038 104.984 173.005 104.963 172.976 104.936C172.946 104.909 172.922 104.877 172.904 104.84C172.888 104.803 172.88 104.763 172.88 104.72Z" fill="#0C0C0D"/>
<path d="M205.756 102.76C205.703 102.691 205.627 102.633 205.528 102.588C205.432 102.54 205.335 102.516 205.236 102.516C205.177 102.516 205.119 102.524 205.06 102.54C205.001 102.553 204.948 102.576 204.9 102.608C204.852 102.637 204.812 102.677 204.78 102.728C204.751 102.776 204.736 102.835 204.736 102.904C204.736 102.968 204.749 103.023 204.776 103.068C204.803 103.113 204.839 103.152 204.884 103.184C204.932 103.216 204.989 103.244 205.056 103.268C205.123 103.292 205.196 103.316 205.276 103.34C205.367 103.369 205.46 103.403 205.556 103.44C205.655 103.477 205.744 103.527 205.824 103.588C205.907 103.649 205.973 103.727 206.024 103.82C206.077 103.913 206.104 104.029 206.104 104.168C206.104 104.32 206.076 104.453 206.02 104.568C205.964 104.68 205.889 104.773 205.796 104.848C205.703 104.923 205.593 104.979 205.468 105.016C205.343 105.053 205.211 105.072 205.072 105.072C204.888 105.072 204.708 105.039 204.532 104.972C204.356 104.903 204.212 104.801 204.1 104.668L204.46 104.332C204.529 104.428 204.621 104.504 204.736 104.56C204.853 104.616 204.968 104.644 205.08 104.644C205.139 104.644 205.199 104.637 205.26 104.624C205.321 104.608 205.376 104.583 205.424 104.548C205.475 104.513 205.515 104.471 205.544 104.42C205.576 104.367 205.592 104.301 205.592 104.224C205.592 104.149 205.575 104.088 205.54 104.04C205.505 103.989 205.459 103.947 205.4 103.912C205.341 103.875 205.272 103.843 205.192 103.816C205.112 103.789 205.028 103.761 204.94 103.732C204.855 103.705 204.769 103.673 204.684 103.636C204.599 103.599 204.521 103.549 204.452 103.488C204.385 103.427 204.331 103.352 204.288 103.264C204.245 103.173 204.224 103.061 204.224 102.928C204.224 102.784 204.253 102.66 204.312 102.556C204.373 102.452 204.452 102.367 204.548 102.3C204.647 102.231 204.757 102.18 204.88 102.148C205.005 102.113 205.132 102.096 205.26 102.096C205.404 102.096 205.549 102.121 205.696 102.172C205.845 102.223 205.975 102.299 206.084 102.4L205.756 102.76ZM207.937 103.848C207.937 103.787 207.928 103.728 207.909 103.672C207.893 103.616 207.866 103.567 207.829 103.524C207.792 103.481 207.744 103.448 207.685 103.424C207.629 103.397 207.562 103.384 207.485 103.384C207.341 103.384 207.218 103.428 207.117 103.516C207.018 103.601 206.964 103.712 206.953 103.848H207.937ZM208.417 104.064C208.417 104.085 208.417 104.107 208.417 104.128C208.417 104.149 208.416 104.171 208.413 104.192H206.953C206.958 104.261 206.976 104.325 207.005 104.384C207.037 104.44 207.078 104.489 207.129 104.532C207.18 104.572 207.237 104.604 207.301 104.628C207.365 104.652 207.432 104.664 207.501 104.664C207.621 104.664 207.722 104.643 207.805 104.6C207.888 104.555 207.956 104.493 208.009 104.416L208.329 104.672C208.14 104.928 207.865 105.056 207.505 105.056C207.356 105.056 207.218 105.033 207.093 104.988C206.968 104.94 206.858 104.873 206.765 104.788C206.674 104.703 206.602 104.599 206.549 104.476C206.498 104.351 206.473 104.209 206.473 104.052C206.473 103.897 206.498 103.757 206.549 103.632C206.602 103.504 206.674 103.396 206.765 103.308C206.856 103.217 206.962 103.148 207.085 103.1C207.21 103.049 207.345 103.024 207.489 103.024C207.622 103.024 207.745 103.047 207.857 103.092C207.972 103.135 208.07 103.2 208.153 103.288C208.236 103.373 208.3 103.481 208.345 103.612C208.393 103.74 208.417 103.891 208.417 104.064ZM209.342 103.08V103.348H209.354C209.378 103.311 209.408 103.273 209.446 103.236C209.486 103.196 209.534 103.161 209.59 103.132C209.646 103.1 209.708 103.075 209.778 103.056C209.85 103.035 209.93 103.024 210.018 103.024C210.154 103.024 210.279 103.051 210.394 103.104C210.508 103.155 210.607 103.225 210.69 103.316C210.772 103.407 210.836 103.513 210.882 103.636C210.927 103.759 210.95 103.891 210.95 104.032C210.95 104.173 210.927 104.307 210.882 104.432C210.839 104.555 210.776 104.663 210.694 104.756C210.614 104.847 210.515 104.92 210.398 104.976C210.283 105.029 210.152 105.056 210.006 105.056C209.87 105.056 209.744 105.028 209.63 104.972C209.518 104.916 209.431 104.84 209.37 104.744H209.362V105.96H208.882V103.08H209.342ZM210.462 104.032C210.462 103.957 210.45 103.884 210.426 103.812C210.404 103.737 210.371 103.671 210.326 103.612C210.28 103.553 210.223 103.507 210.154 103.472C210.084 103.435 210.003 103.416 209.91 103.416C209.822 103.416 209.743 103.435 209.674 103.472C209.604 103.509 209.544 103.557 209.494 103.616C209.446 103.675 209.408 103.741 209.382 103.816C209.358 103.891 209.346 103.965 209.346 104.04C209.346 104.115 209.358 104.189 209.382 104.264C209.408 104.336 209.446 104.401 209.494 104.46C209.544 104.519 209.604 104.567 209.674 104.604C209.743 104.639 209.822 104.656 209.91 104.656C210.003 104.656 210.084 104.637 210.154 104.6C210.223 104.563 210.28 104.515 210.326 104.456C210.371 104.397 210.404 104.331 210.426 104.256C210.45 104.181 210.462 104.107 210.462 104.032ZM211.137 103.464V103.08H211.473V102.524H211.945V103.08H212.425V103.464H211.945V104.356C211.945 104.441 211.96 104.512 211.989 104.568C212.021 104.624 212.09 104.652 212.197 104.652C212.229 104.652 212.264 104.649 212.301 104.644C212.338 104.636 212.372 104.625 212.401 104.612L212.417 104.988C212.374 105.004 212.324 105.016 212.265 105.024C212.206 105.035 212.15 105.04 212.097 105.04C211.969 105.04 211.865 105.023 211.785 104.988C211.705 104.951 211.641 104.901 211.593 104.84C211.548 104.776 211.516 104.704 211.497 104.624C211.481 104.541 211.473 104.453 211.473 104.36V103.464H211.137ZM212.684 104.72C212.684 104.635 212.715 104.561 212.776 104.5C212.84 104.439 212.916 104.408 213.004 104.408C213.09 104.408 213.164 104.437 213.228 104.496C213.292 104.555 213.324 104.627 213.324 104.712C213.324 104.797 213.292 104.871 213.228 104.932C213.167 104.993 213.092 105.024 213.004 105.024C212.962 105.024 212.92 105.016 212.88 105C212.843 104.984 212.81 104.963 212.78 104.936C212.751 104.909 212.727 104.877 212.708 104.84C212.692 104.803 212.684 104.763 212.684 104.72Z" fill="#0C0C0D"/>
<path d="M245.176 103.576C245.176 103.349 245.213 103.145 245.288 102.964C245.365 102.78 245.471 102.624 245.604 102.496C245.74 102.368 245.9 102.269 246.084 102.2C246.271 102.131 246.473 102.096 246.692 102.096C246.913 102.096 247.117 102.131 247.304 102.2C247.491 102.269 247.652 102.368 247.788 102.496C247.924 102.624 248.029 102.78 248.104 102.964C248.181 103.145 248.22 103.349 248.22 103.576C248.22 103.797 248.181 104 248.104 104.184C248.029 104.365 247.924 104.523 247.788 104.656C247.652 104.787 247.491 104.889 247.304 104.964C247.117 105.036 246.913 105.072 246.692 105.072C246.473 105.072 246.271 105.036 246.084 104.964C245.9 104.889 245.74 104.787 245.604 104.656C245.471 104.523 245.365 104.365 245.288 104.184C245.213 104 245.176 103.797 245.176 103.576ZM245.724 103.576C245.724 103.728 245.747 103.868 245.792 103.996C245.84 104.121 245.907 104.231 245.992 104.324C246.08 104.417 246.183 104.491 246.3 104.544C246.42 104.595 246.552 104.62 246.696 104.62C246.84 104.62 246.972 104.595 247.092 104.544C247.212 104.491 247.315 104.417 247.4 104.324C247.488 104.231 247.555 104.121 247.6 103.996C247.648 103.868 247.672 103.728 247.672 103.576C247.672 103.429 247.648 103.293 247.6 103.168C247.555 103.043 247.489 102.933 247.404 102.84C247.319 102.747 247.216 102.673 247.096 102.62C246.976 102.567 246.843 102.54 246.696 102.54C246.549 102.54 246.416 102.567 246.296 102.62C246.179 102.673 246.077 102.747 245.992 102.84C245.907 102.933 245.84 103.043 245.792 103.168C245.747 103.293 245.724 103.429 245.724 103.576ZM249.995 103.612C249.957 103.559 249.901 103.515 249.827 103.48C249.752 103.443 249.676 103.424 249.599 103.424C249.511 103.424 249.433 103.443 249.367 103.48C249.3 103.515 249.244 103.561 249.199 103.62C249.156 103.679 249.124 103.745 249.103 103.82C249.081 103.892 249.071 103.965 249.071 104.04C249.071 104.115 249.081 104.189 249.103 104.264C249.127 104.336 249.161 104.401 249.207 104.46C249.252 104.519 249.308 104.567 249.375 104.604C249.444 104.639 249.524 104.656 249.615 104.656C249.689 104.656 249.764 104.641 249.839 104.612C249.913 104.583 249.973 104.54 250.019 104.484L250.319 104.788C250.239 104.873 250.136 104.94 250.011 104.988C249.888 105.033 249.755 105.056 249.611 105.056C249.469 105.056 249.335 105.033 249.207 104.988C249.081 104.943 248.971 104.876 248.875 104.788C248.781 104.7 248.707 104.593 248.651 104.468C248.597 104.343 248.571 104.2 248.571 104.04C248.571 103.885 248.597 103.745 248.651 103.62C248.707 103.495 248.781 103.388 248.875 103.3C248.968 103.212 249.076 103.144 249.199 103.096C249.324 103.048 249.457 103.024 249.599 103.024C249.74 103.024 249.876 103.051 250.007 103.104C250.14 103.157 250.245 103.231 250.323 103.324L249.995 103.612ZM250.36 103.464V103.08H250.696V102.524H251.168V103.08H251.648V103.464H251.168V104.356C251.168 104.441 251.182 104.512 251.212 104.568C251.244 104.624 251.313 104.652 251.42 104.652C251.452 104.652 251.486 104.649 251.524 104.644C251.561 104.636 251.594 104.625 251.624 104.612L251.64 104.988C251.597 105.004 251.546 105.016 251.488 105.024C251.429 105.035 251.373 105.04 251.32 105.04C251.192 105.04 251.088 105.023 251.008 104.988C250.928 104.951 250.864 104.901 250.816 104.84C250.77 104.776 250.738 104.704 250.72 104.624C250.704 104.541 250.696 104.453 250.696 104.36V103.464H250.36ZM251.907 104.72C251.907 104.635 251.938 104.561 251.999 104.5C252.063 104.439 252.139 104.408 252.227 104.408C252.312 104.408 252.387 104.437 252.451 104.496C252.515 104.555 252.547 104.627 252.547 104.712C252.547 104.797 252.515 104.871 252.451 104.932C252.39 104.993 252.315 105.024 252.227 105.024C252.184 105.024 252.143 105.016 252.103 105C252.066 104.984 252.032 104.963 252.003 104.936C251.974 104.909 251.95 104.877 251.931 104.84C251.915 104.803 251.907 104.763 251.907 104.72Z" fill="#0C0C0D"/>
<circle cx="9.5" cy="74.5" r="1.5" fill="#7A18F6"/>
<circle cx="48.5" cy="63.5" r="1.5" fill="#7A18F6"/>
<circle cx="89.5" cy="57.5" r="1.5" fill="#7A18F6"/>
<circle cx="128.5" cy="51.5" r="1.5" fill="#7A18F6"/>
<circle cx="169.5" cy="44.5" r="1.5" fill="#7A18F6"/>
<circle cx="208.5" cy="36.5" r="1.5" fill="#7A18F6"/>
<circle cx="249.5" cy="25.5" r="1.5" fill="#7A18F6"/>
<path d="M95.4403 3.67188V2.72727H101.069V3.67188H98.7997V10H97.706V3.67188H95.4403ZM103.734 10.1101C103.223 10.1101 102.776 9.9929 102.395 9.75852C102.014 9.52415 101.718 9.19626 101.507 8.77486C101.297 8.35346 101.191 7.86103 101.191 7.29759C101.191 6.73177 101.297 6.23698 101.507 5.81321C101.718 5.38944 102.014 5.06037 102.395 4.82599C102.776 4.59162 103.223 4.47443 103.734 4.47443C104.245 4.47443 104.692 4.59162 105.073 4.82599C105.454 5.06037 105.75 5.38944 105.961 5.81321C106.171 6.23698 106.277 6.73177 106.277 7.29759C106.277 7.86103 106.171 8.35346 105.961 8.77486C105.75 9.19626 105.454 9.52415 105.073 9.75852C104.692 9.9929 104.245 10.1101 103.734 10.1101ZM103.738 9.21875C104.069 9.21875 104.344 9.13116 104.561 8.95597C104.779 8.78078 104.94 8.54759 105.044 8.25639C105.151 7.9652 105.204 7.64441 105.204 7.29403C105.204 6.94602 105.151 6.62642 105.044 6.33523C104.94 6.04167 104.779 5.80611 104.561 5.62855C104.344 5.45099 104.069 5.36222 103.738 5.36222C103.404 5.36222 103.127 5.45099 102.907 5.62855C102.689 5.80611 102.527 6.04167 102.42 6.33523C102.316 6.62642 102.264 6.94602 102.264 7.29403C102.264 7.64441 102.316 7.9652 102.42 8.25639C102.527 8.54759 102.689 8.78078 102.907 8.95597C103.127 9.13116 103.404 9.21875 103.738 9.21875ZM110.008 4.54545V5.39773H107.029V4.54545H110.008ZM107.828 3.23864H108.889V8.39844C108.889 8.6044 108.92 8.75947 108.982 8.86364C109.043 8.96544 109.123 9.03527 109.22 9.07315C109.319 9.10866 109.427 9.12642 109.543 9.12642C109.628 9.12642 109.703 9.1205 109.767 9.10866C109.83 9.09683 109.88 9.08736 109.916 9.08026L110.107 9.95739C110.046 9.98106 109.958 10.0047 109.845 10.0284C109.731 10.0545 109.589 10.0687 109.419 10.071C109.139 10.0758 108.879 10.026 108.637 9.92188C108.396 9.81771 108.2 9.65672 108.051 9.43892C107.902 9.22112 107.828 8.94768 107.828 8.61861V3.23864ZM112.77 10.1207C112.424 10.1207 112.112 10.0568 111.832 9.92898C111.553 9.79877 111.332 9.61056 111.168 9.36435C111.007 9.11813 110.927 8.81629 110.927 8.45881C110.927 8.15104 110.986 7.89773 111.104 7.69886C111.223 7.5 111.383 7.34257 111.584 7.22656C111.785 7.11056 112.01 7.02296 112.259 6.96378C112.507 6.90459 112.76 6.85961 113.018 6.82884C113.345 6.79096 113.61 6.76018 113.814 6.73651C114.018 6.71046 114.165 6.66903 114.258 6.61222C114.35 6.5554 114.396 6.46307 114.396 6.33523V6.31037C114.396 6.00024 114.309 5.75994 114.134 5.58949C113.961 5.41903 113.703 5.33381 113.359 5.33381C113.002 5.33381 112.72 5.41312 112.514 5.57173C112.311 5.72798 112.17 5.90199 112.092 6.09375L111.094 5.86648C111.212 5.53504 111.385 5.26752 111.612 5.06392C111.842 4.85795 112.106 4.70881 112.404 4.61648C112.702 4.52178 113.016 4.47443 113.345 4.47443C113.563 4.47443 113.794 4.50047 114.038 4.55256C114.284 4.60227 114.513 4.6946 114.727 4.82955C114.942 4.96449 115.118 5.15743 115.256 5.40838C115.393 5.65696 115.462 5.98011 115.462 6.37784V10H114.425V9.25426H114.382C114.313 9.39157 114.21 9.52652 114.073 9.65909C113.936 9.79167 113.759 9.90175 113.544 9.98935C113.329 10.0769 113.071 10.1207 112.77 10.1207ZM113.001 9.26847C113.294 9.26847 113.545 9.21046 113.754 9.09446C113.964 8.97846 114.124 8.82694 114.233 8.63991C114.344 8.45052 114.4 8.24811 114.4 8.03267V7.32955C114.362 7.36742 114.289 7.40294 114.18 7.43608C114.073 7.46686 113.951 7.49408 113.814 7.51776C113.677 7.53906 113.543 7.55919 113.413 7.57812C113.282 7.5947 113.174 7.6089 113.086 7.62074C112.88 7.64678 112.692 7.69058 112.521 7.75213C112.353 7.81368 112.218 7.90246 112.116 8.01847C112.017 8.1321 111.967 8.28362 111.967 8.47301C111.967 8.7358 112.064 8.93466 112.259 9.0696C112.453 9.20218 112.7 9.26847 113.001 9.26847ZM117.938 2.72727V10H116.876V2.72727H117.938ZM122.098 10V2.72727H124.69C125.254 2.72727 125.721 2.82434 126.093 3.01847C126.467 3.21259 126.746 3.4813 126.931 3.82457C127.116 4.16548 127.208 4.55966 127.208 5.0071C127.208 5.45218 127.114 5.84399 126.927 6.18253C126.743 6.5187 126.463 6.7803 126.089 6.96733C125.718 7.15436 125.25 7.24787 124.687 7.24787H122.723V6.30327H124.587C124.942 6.30327 125.231 6.25237 125.454 6.15057C125.679 6.04877 125.843 5.9008 125.947 5.70668C126.051 5.51255 126.104 5.27936 126.104 5.0071C126.104 4.73248 126.05 4.49455 125.944 4.29332C125.84 4.09209 125.675 3.93821 125.45 3.83168C125.228 3.72277 124.935 3.66832 124.573 3.66832H123.195V10H122.098ZM125.688 6.71875L127.485 10H126.235L124.474 6.71875H125.688ZM130.74 10.1101C130.203 10.1101 129.74 9.99527 129.352 9.76562C128.966 9.53362 128.668 9.2081 128.457 8.78906C128.249 8.36766 128.145 7.87405 128.145 7.30824C128.145 6.74953 128.249 6.2571 128.457 5.83097C128.668 5.40483 128.961 5.07221 129.338 4.8331C129.717 4.59399 130.159 4.47443 130.666 4.47443C130.974 4.47443 131.272 4.52533 131.561 4.62713C131.85 4.72893 132.109 4.88873 132.338 5.10653C132.568 5.32434 132.749 5.60724 132.882 5.95526C133.014 6.3009 133.081 6.72112 133.081 7.21591V7.59233H128.745V6.79688H132.04C132.04 6.51752 131.983 6.27012 131.87 6.05469C131.756 5.83688 131.596 5.66525 131.39 5.53977C131.187 5.4143 130.948 5.35156 130.673 5.35156C130.375 5.35156 130.114 5.42495 129.892 5.57173C129.672 5.71615 129.501 5.90554 129.38 6.13991C129.262 6.37192 129.203 6.62405 129.203 6.89631V7.51776C129.203 7.88234 129.267 8.19247 129.395 8.44815C129.525 8.70384 129.706 8.89915 129.938 9.03409C130.17 9.16667 130.441 9.23295 130.751 9.23295C130.952 9.23295 131.136 9.20455 131.301 9.14773C131.467 9.08854 131.61 9.00095 131.731 8.88494C131.852 8.76894 131.944 8.62571 132.008 8.45526L133.013 8.63636C132.933 8.93229 132.788 9.19152 132.58 9.41406C132.374 9.63423 132.115 9.80587 131.802 9.92898C131.492 10.0497 131.138 10.1101 130.74 10.1101ZM138.759 4.54545L136.781 10H135.645L133.663 4.54545H134.803L136.184 8.7429H136.241L137.619 4.54545H138.759ZM141.912 10.1101C141.375 10.1101 140.912 9.99527 140.524 9.76562C140.138 9.53362 139.84 9.2081 139.629 8.78906C139.421 8.36766 139.316 7.87405 139.316 7.30824C139.316 6.74953 139.421 6.2571 139.629 5.83097C139.84 5.40483 140.133 5.07221 140.51 4.8331C140.888 4.59399 141.331 4.47443 141.838 4.47443C142.145 4.47443 142.444 4.52533 142.733 4.62713C143.021 4.72893 143.281 4.88873 143.51 5.10653C143.74 5.32434 143.921 5.60724 144.054 5.95526C144.186 6.3009 144.252 6.72112 144.252 7.21591V7.59233H139.917V6.79688H143.212C143.212 6.51752 143.155 6.27012 143.042 6.05469C142.928 5.83688 142.768 5.66525 142.562 5.53977C142.359 5.4143 142.119 5.35156 141.845 5.35156C141.547 5.35156 141.286 5.42495 141.064 5.57173C140.843 5.71615 140.673 5.90554 140.552 6.13991C140.434 6.37192 140.375 6.62405 140.375 6.89631V7.51776C140.375 7.88234 140.439 8.19247 140.566 8.44815C140.697 8.70384 140.878 8.89915 141.11 9.03409C141.342 9.16667 141.613 9.23295 141.923 9.23295C142.124 9.23295 142.308 9.20455 142.473 9.14773C142.639 9.08854 142.782 9.00095 142.903 8.88494C143.024 8.76894 143.116 8.62571 143.18 8.45526L144.185 8.63636C144.105 8.93229 143.96 9.19152 143.752 9.41406C143.546 9.63423 143.287 9.80587 142.974 9.92898C142.664 10.0497 142.31 10.1101 141.912 10.1101ZM146.492 6.76136V10H145.431V4.54545H146.45V5.43324H146.517C146.643 5.14441 146.839 4.91241 147.107 4.73722C147.377 4.56203 147.716 4.47443 148.126 4.47443C148.498 4.47443 148.823 4.55256 149.102 4.70881C149.382 4.86269 149.598 5.09233 149.752 5.39773C149.906 5.70312 149.983 6.08073 149.983 6.53054V10H148.921V6.65838C148.921 6.26302 148.818 5.95407 148.612 5.73153C148.406 5.50663 148.124 5.39418 147.764 5.39418C147.517 5.39418 147.298 5.44744 147.107 5.55398C146.917 5.66051 146.767 5.81676 146.656 6.02273C146.547 6.22633 146.492 6.47254 146.492 6.76136ZM154.862 7.73793V4.54545H155.928V10H154.884V9.0554H154.827C154.701 9.34659 154.5 9.58925 154.223 9.78338C153.949 9.97514 153.606 10.071 153.197 10.071C152.847 10.071 152.536 9.99408 152.267 9.8402C151.999 9.68395 151.788 9.45312 151.634 9.14773C151.483 8.84233 151.407 8.46473 151.407 8.01491V4.54545H152.469V7.88707C152.469 8.25876 152.572 8.55469 152.778 8.77486C152.984 8.99503 153.251 9.10511 153.58 9.10511C153.779 9.10511 153.977 9.0554 154.173 8.95597C154.372 8.85653 154.537 8.7062 154.667 8.50497C154.8 8.30374 154.865 8.04806 154.862 7.73793ZM159.705 10.1101C159.168 10.1101 158.705 9.99527 158.317 9.76562C157.931 9.53362 157.633 9.2081 157.422 8.78906C157.214 8.36766 157.109 7.87405 157.109 7.30824C157.109 6.74953 157.214 6.2571 157.422 5.83097C157.633 5.40483 157.926 5.07221 158.303 4.8331C158.681 4.59399 159.124 4.47443 159.631 4.47443C159.938 4.47443 160.237 4.52533 160.526 4.62713C160.814 4.72893 161.074 4.88873 161.303 5.10653C161.533 5.32434 161.714 5.60724 161.847 5.95526C161.979 6.3009 162.045 6.72112 162.045 7.21591V7.59233H157.71V6.79688H161.005C161.005 6.51752 160.948 6.27012 160.835 6.05469C160.721 5.83688 160.561 5.66525 160.355 5.53977C160.152 5.4143 159.912 5.35156 159.638 5.35156C159.339 5.35156 159.079 5.42495 158.857 5.57173C158.636 5.71615 158.466 5.90554 158.345 6.13991C158.227 6.37192 158.168 6.62405 158.168 6.89631V7.51776C158.168 7.88234 158.232 8.19247 158.359 8.44815C158.49 8.70384 158.671 8.89915 158.903 9.03409C159.135 9.16667 159.406 9.23295 159.716 9.23295C159.917 9.23295 160.101 9.20455 160.266 9.14773C160.432 9.08854 160.575 9.00095 160.696 8.88494C160.817 8.76894 160.909 8.62571 160.973 8.45526L161.978 8.63636C161.897 8.93229 161.753 9.19152 161.545 9.41406C161.339 9.63423 161.08 9.80587 160.767 9.92898C160.457 10.0497 160.103 10.1101 159.705 10.1101Z" fill="#0C0C0D"/>
<path d="M95.4403 3.67188V2.72727H101.069V3.67188H98.7997V10H97.706V3.67188H95.4403ZM103.734 10.1101C103.223 10.1101 102.776 9.9929 102.395 9.75852C102.014 9.52415 101.718 9.19626 101.507 8.77486C101.297 8.35346 101.191 7.86103 101.191 7.29759C101.191 6.73177 101.297 6.23698 101.507 5.81321C101.718 5.38944 102.014 5.06037 102.395 4.82599C102.776 4.59162 103.223 4.47443 103.734 4.47443C104.245 4.47443 104.692 4.59162 105.073 4.82599C105.454 5.06037 105.75 5.38944 105.961 5.81321C106.171 6.23698 106.277 6.73177 106.277 7.29759C106.277 7.86103 106.171 8.35346 105.961 8.77486C105.75 9.19626 105.454 9.52415 105.073 9.75852C104.692 9.9929 104.245 10.1101 103.734 10.1101ZM103.738 9.21875C104.069 9.21875 104.344 9.13116 104.561 8.95597C104.779 8.78078 104.94 8.54759 105.044 8.25639C105.151 7.9652 105.204 7.64441 105.204 7.29403C105.204 6.94602 105.151 6.62642 105.044 6.33523C104.94 6.04167 104.779 5.80611 104.561 5.62855C104.344 5.45099 104.069 5.36222 103.738 5.36222C103.404 5.36222 103.127 5.45099 102.907 5.62855C102.689 5.80611 102.527 6.04167 102.42 6.33523C102.316 6.62642 102.264 6.94602 102.264 7.29403C102.264 7.64441 102.316 7.9652 102.42 8.25639C102.527 8.54759 102.689 8.78078 102.907 8.95597C103.127 9.13116 103.404 9.21875 103.738 9.21875ZM110.008 4.54545V5.39773H107.029V4.54545H110.008ZM107.828 3.23864H108.889V8.39844C108.889 8.6044 108.92 8.75947 108.982 8.86364C109.043 8.96544 109.123 9.03527 109.22 9.07315C109.319 9.10866 109.427 9.12642 109.543 9.12642C109.628 9.12642 109.703 9.1205 109.767 9.10866C109.83 9.09683 109.88 9.08736 109.916 9.08026L110.107 9.95739C110.046 9.98106 109.958 10.0047 109.845 10.0284C109.731 10.0545 109.589 10.0687 109.419 10.071C109.139 10.0758 108.879 10.026 108.637 9.92188C108.396 9.81771 108.2 9.65672 108.051 9.43892C107.902 9.22112 107.828 8.94768 107.828 8.61861V3.23864ZM112.77 10.1207C112.424 10.1207 112.112 10.0568 111.832 9.92898C111.553 9.79877 111.332 9.61056 111.168 9.36435C111.007 9.11813 110.927 8.81629 110.927 8.45881C110.927 8.15104 110.986 7.89773 111.104 7.69886C111.223 7.5 111.383 7.34257 111.584 7.22656C111.785 7.11056 112.01 7.02296 112.259 6.96378C112.507 6.90459 112.76 6.85961 113.018 6.82884C113.345 6.79096 113.61 6.76018 113.814 6.73651C114.018 6.71046 114.165 6.66903 114.258 6.61222C114.35 6.5554 114.396 6.46307 114.396 6.33523V6.31037C114.396 6.00024 114.309 5.75994 114.134 5.58949C113.961 5.41903 113.703 5.33381 113.359 5.33381C113.002 5.33381 112.72 5.41312 112.514 5.57173C112.311 5.72798 112.17 5.90199 112.092 6.09375L111.094 5.86648C111.212 5.53504 111.385 5.26752 111.612 5.06392C111.842 4.85795 112.106 4.70881 112.404 4.61648C112.702 4.52178 113.016 4.47443 113.345 4.47443C113.563 4.47443 113.794 4.50047 114.038 4.55256C114.284 4.60227 114.513 4.6946 114.727 4.82955C114.942 4.96449 115.118 5.15743 115.256 5.40838C115.393 5.65696 115.462 5.98011 115.462 6.37784V10H114.425V9.25426H114.382C114.313 9.39157 114.21 9.52652 114.073 9.65909C113.936 9.79167 113.759 9.90175 113.544 9.98935C113.329 10.0769 113.071 10.1207 112.77 10.1207ZM113.001 9.26847C113.294 9.26847 113.545 9.21046 113.754 9.09446C113.964 8.97846 114.124 8.82694 114.233 8.63991C114.344 8.45052 114.4 8.24811 114.4 8.03267V7.32955C114.362 7.36742 114.289 7.40294 114.18 7.43608C114.073 7.46686 113.951 7.49408 113.814 7.51776C113.677 7.53906 113.543 7.55919 113.413 7.57812C113.282 7.5947 113.174 7.6089 113.086 7.62074C112.88 7.64678 112.692 7.69058 112.521 7.75213C112.353 7.81368 112.218 7.90246 112.116 8.01847C112.017 8.1321 111.967 8.28362 111.967 8.47301C111.967 8.7358 112.064 8.93466 112.259 9.0696C112.453 9.20218 112.7 9.26847 113.001 9.26847ZM117.938 2.72727V10H116.876V2.72727H117.938ZM122.098 10V2.72727H124.69C125.254 2.72727 125.721 2.82434 126.093 3.01847C126.467 3.21259 126.746 3.4813 126.931 3.82457C127.116 4.16548 127.208 4.55966 127.208 5.0071C127.208 5.45218 127.114 5.84399 126.927 6.18253C126.743 6.5187 126.463 6.7803 126.089 6.96733C125.718 7.15436 125.25 7.24787 124.687 7.24787H122.723V6.30327H124.587C124.942 6.30327 125.231 6.25237 125.454 6.15057C125.679 6.04877 125.843 5.9008 125.947 5.70668C126.051 5.51255 126.104 5.27936 126.104 5.0071C126.104 4.73248 126.05 4.49455 125.944 4.29332C125.84 4.09209 125.675 3.93821 125.45 3.83168C125.228 3.72277 124.935 3.66832 124.573 3.66832H123.195V10H122.098ZM125.688 6.71875L127.485 10H126.235L124.474 6.71875H125.688ZM130.74 10.1101C130.203 10.1101 129.74 9.99527 129.352 9.76562C128.966 9.53362 128.668 9.2081 128.457 8.78906C128.249 8.36766 128.145 7.87405 128.145 7.30824C128.145 6.74953 128.249 6.2571 128.457 5.83097C128.668 5.40483 128.961 5.07221 129.338 4.8331C129.717 4.59399 130.159 4.47443 130.666 4.47443C130.974 4.47443 131.272 4.52533 131.561 4.62713C131.85 4.72893 132.109 4.88873 132.338 5.10653C132.568 5.32434 132.749 5.60724 132.882 5.95526C133.014 6.3009 133.081 6.72112 133.081 7.21591V7.59233H128.745V6.79688H132.04C132.04 6.51752 131.983 6.27012 131.87 6.05469C131.756 5.83688 131.596 5.66525 131.39 5.53977C131.187 5.4143 130.948 5.35156 130.673 5.35156C130.375 5.35156 130.114 5.42495 129.892 5.57173C129.672 5.71615 129.501 5.90554 129.38 6.13991C129.262 6.37192 129.203 6.62405 129.203 6.89631V7.51776C129.203 7.88234 129.267 8.19247 129.395 8.44815C129.525 8.70384 129.706 8.89915 129.938 9.03409C130.17 9.16667 130.441 9.23295 130.751 9.23295C130.952 9.23295 131.136 9.20455 131.301 9.14773C131.467 9.08854 131.61 9.00095 131.731 8.88494C131.852 8.76894 131.944 8.62571 132.008 8.45526L133.013 8.63636C132.933 8.93229 132.788 9.19152 132.58 9.41406C132.374 9.63423 132.115 9.80587 131.802 9.92898C131.492 10.0497 131.138 10.1101 130.74 10.1101ZM138.759 4.54545L136.781 10H135.645L133.663 4.54545H134.803L136.184 8.7429H136.241L137.619 4.54545H138.759ZM141.912 10.1101C141.375 10.1101 140.912 9.99527 140.524 9.76562C140.138 9.53362 139.84 9.2081 139.629 8.78906C139.421 8.36766 139.316 7.87405 139.316 7.30824C139.316 6.74953 139.421 6.2571 139.629 5.83097C139.84 5.40483 140.133 5.07221 140.51 4.8331C140.888 4.59399 141.331 4.47443 141.838 4.47443C142.145 4.47443 142.444 4.52533 142.733 4.62713C143.021 4.72893 143.281 4.88873 143.51 5.10653C143.74 5.32434 143.921 5.60724 144.054 5.95526C144.186 6.3009 144.252 6.72112 144.252 7.21591V7.59233H139.917V6.79688H143.212C143.212 6.51752 143.155 6.27012 143.042 6.05469C142.928 5.83688 142.768 5.66525 142.562 5.53977C142.359 5.4143 142.119 5.35156 141.845 5.35156C141.547 5.35156 141.286 5.42495 141.064 5.57173C140.843 5.71615 140.673 5.90554 140.552 6.13991C140.434 6.37192 140.375 6.62405 140.375 6.89631V7.51776C140.375 7.88234 140.439 8.19247 140.566 8.44815C140.697 8.70384 140.878 8.89915 141.11 9.03409C141.342 9.16667 141.613 9.23295 141.923 9.23295C142.124 9.23295 142.308 9.20455 142.473 9.14773C142.639 9.08854 142.782 9.00095 142.903 8.88494C143.024 8.76894 143.116 8.62571 143.18 8.45526L144.185 8.63636C144.105 8.93229 143.96 9.19152 143.752 9.41406C143.546 9.63423 143.287 9.80587 142.974 9.92898C142.664 10.0497 142.31 10.1101 141.912 10.1101ZM146.492 6.76136V10H145.431V4.54545H146.45V5.43324H146.517C146.643 5.14441 146.839 4.91241 147.107 4.73722C147.377 4.56203 147.716 4.47443 148.126 4.47443C148.498 4.47443 148.823 4.55256 149.102 4.70881C149.382 4.86269 149.598 5.09233 149.752 5.39773C149.906 5.70312 149.983 6.08073 149.983 6.53054V10H148.921V6.65838C148.921 6.26302 148.818 5.95407 148.612 5.73153C148.406 5.50663 148.124 5.39418 147.764 5.39418C147.517 5.39418 147.298 5.44744 147.107 5.55398C146.917 5.66051 146.767 5.81676 146.656 6.02273C146.547 6.22633 146.492 6.47254 146.492 6.76136ZM154.862 7.73793V4.54545H155.928V10H154.884V9.0554H154.827C154.701 9.34659 154.5 9.58925 154.223 9.78338C153.949 9.97514 153.606 10.071 153.197 10.071C152.847 10.071 152.536 9.99408 152.267 9.8402C151.999 9.68395 151.788 9.45312 151.634 9.14773C151.483 8.84233 151.407 8.46473 151.407 8.01491V4.54545H152.469V7.88707C152.469 8.25876 152.572 8.55469 152.778 8.77486C152.984 8.99503 153.251 9.10511 153.58 9.10511C153.779 9.10511 153.977 9.0554 154.173 8.95597C154.372 8.85653 154.537 8.7062 154.667 8.50497C154.8 8.30374 154.865 8.04806 154.862 7.73793ZM159.705 10.1101C159.168 10.1101 158.705 9.99527 158.317 9.76562C157.931 9.53362 157.633 9.2081 157.422 8.78906C157.214 8.36766 157.109 7.87405 157.109 7.30824C157.109 6.74953 157.214 6.2571 157.422 5.83097C157.633 5.40483 157.926 5.07221 158.303 4.8331C158.681 4.59399 159.124 4.47443 159.631 4.47443C159.938 4.47443 160.237 4.52533 160.526 4.62713C160.814 4.72893 161.074 4.88873 161.303 5.10653C161.533 5.32434 161.714 5.60724 161.847 5.95526C161.979 6.3009 162.045 6.72112 162.045 7.21591V7.59233H157.71V6.79688H161.005C161.005 6.51752 160.948 6.27012 160.835 6.05469C160.721 5.83688 160.561 5.66525 160.355 5.53977C160.152 5.4143 159.912 5.35156 159.638 5.35156C159.339 5.35156 159.079 5.42495 158.857 5.57173C158.636 5.71615 158.466 5.90554 158.345 6.13991C158.227 6.37192 158.168 6.62405 158.168 6.89631V7.51776C158.168 7.88234 158.232 8.19247 158.359 8.44815C158.49 8.70384 158.671 8.89915 158.903 9.03409C159.135 9.16667 159.406 9.23295 159.716 9.23295C159.917 9.23295 160.101 9.20455 160.266 9.14773C160.432 9.08854 160.575 9.00095 160.696 8.88494C160.817 8.76894 160.909 8.62571 160.973 8.45526L161.978 8.63636C161.897 8.93229 161.753 9.19152 161.545 9.41406C161.339 9.63423 161.08 9.80587 160.767 9.92898C160.457 10.0497 160.103 10.1101 159.705 10.1101Z" fill="#0C0C0D"/>
<path d="M68.62 22.92C69.1333 22.9293 69.6513 23.018 70.174 23.186C70.6967 23.3447 71.1493 23.5873 71.532 23.914L70.398 25.09C70.1833 24.8473 69.9127 24.6653 69.586 24.544C69.2687 24.4133 68.9467 24.348 68.62 24.348V27.176C68.9747 27.288 69.3293 27.4187 69.684 27.568C70.0387 27.7173 70.356 27.9087 70.636 28.142C70.9253 28.366 71.1587 28.6413 71.336 28.968C71.5133 29.2947 71.602 29.696 71.602 30.172C71.602 30.6573 71.518 31.0867 71.35 31.46C71.1913 31.824 70.972 32.132 70.692 32.384C70.4213 32.6267 70.104 32.8133 69.74 32.944C69.3853 33.0747 69.012 33.1447 68.62 33.154V34.162H67.864V33.154C67.248 33.1353 66.6553 33.0233 66.086 32.818C65.526 32.6033 65.022 32.2813 64.574 31.852L65.806 30.676C66.058 30.9747 66.3753 31.222 66.758 31.418C67.1407 31.6047 67.5093 31.7027 67.864 31.712V28.604C67.4533 28.492 67.0707 28.366 66.716 28.226C66.3613 28.0767 66.0487 27.89 65.778 27.666C65.5167 27.442 65.3113 27.176 65.162 26.868C65.0127 26.5507 64.938 26.168 64.938 25.72C64.938 25.3 65.0173 24.9267 65.176 24.6C65.344 24.264 65.5633 23.9793 65.834 23.746C66.114 23.5127 66.4267 23.3307 66.772 23.2C67.1267 23.06 67.4907 22.976 67.864 22.948V21.996H68.62V22.92ZM67.864 24.348C67.5373 24.3853 67.248 24.5067 66.996 24.712C66.744 24.9173 66.618 25.2253 66.618 25.636C66.618 26.028 66.7347 26.3267 66.968 26.532C67.2107 26.728 67.5093 26.8773 67.864 26.98V24.348ZM68.62 31.712C69.012 31.6933 69.3247 31.5533 69.558 31.292C69.8007 31.0307 69.922 30.69 69.922 30.27C69.922 29.8593 69.796 29.5513 69.544 29.346C69.3013 29.1313 68.9933 28.9587 68.62 28.828V31.712ZM73.5109 31.46L77.3329 27.708C77.6409 27.4093 77.8836 27.1107 78.0609 26.812C78.2476 26.504 78.3409 26.154 78.3409 25.762C78.3409 25.2953 78.1869 24.9267 77.8789 24.656C77.5803 24.376 77.2069 24.236 76.7589 24.236C76.2829 24.236 75.9003 24.3993 75.6109 24.726C75.3216 25.0433 75.1443 25.4447 75.0789 25.93L73.4409 25.678C73.4876 25.2673 73.6043 24.8893 73.7909 24.544C73.9776 24.1987 74.2156 23.9 74.5049 23.648C74.7943 23.396 75.1303 23.2 75.5129 23.06C75.9049 22.9107 76.3296 22.836 76.7869 22.836C77.2163 22.836 77.6269 22.8967 78.0189 23.018C78.4203 23.1393 78.7749 23.326 79.0829 23.578C79.3909 23.8207 79.6336 24.124 79.8109 24.488C79.9976 24.8427 80.0909 25.258 80.0909 25.734C80.0909 26.0513 80.0489 26.35 79.9649 26.63C79.8809 26.9007 79.7643 27.1573 79.6149 27.4C79.4749 27.6427 79.3069 27.876 79.1109 28.1C78.9243 28.3147 78.7189 28.5247 78.4949 28.73L75.6389 31.46H80.1049V33H73.5109V31.46ZM82.4058 31.068H84.0298L82.8398 34.764H81.4258L82.4058 31.068ZM87.6946 27.162H88.1426C88.3946 27.162 88.6419 27.1433 88.8846 27.106C89.1366 27.0593 89.3652 26.98 89.5706 26.868C89.7759 26.756 89.9392 26.6067 90.0606 26.42C90.1912 26.224 90.2566 25.972 90.2566 25.664C90.2566 25.44 90.2146 25.2393 90.1306 25.062C90.0466 24.8847 89.9299 24.7353 89.7806 24.614C89.6406 24.4927 89.4726 24.3993 89.2766 24.334C89.0899 24.2687 88.8939 24.236 88.6886 24.236C88.2779 24.236 87.9372 24.3527 87.6666 24.586C87.3959 24.8193 87.2092 25.1273 87.1066 25.51L85.5246 25.104C85.6086 24.768 85.7486 24.4647 85.9446 24.194C86.1499 23.914 86.3926 23.676 86.6726 23.48C86.9619 23.2747 87.2839 23.116 87.6386 23.004C87.9932 22.892 88.3666 22.836 88.7586 22.836C89.1879 22.836 89.5939 22.8967 89.9766 23.018C90.3686 23.13 90.7092 23.3027 90.9986 23.536C91.2972 23.76 91.5306 24.04 91.6986 24.376C91.8666 24.712 91.9506 25.104 91.9506 25.552C91.9506 26.084 91.7872 26.56 91.4606 26.98C91.1432 27.3907 90.7139 27.6613 90.1726 27.792V27.82C90.7792 27.9413 91.2692 28.2167 91.6426 28.646C92.0252 29.066 92.2166 29.584 92.2166 30.2C92.2166 30.7133 92.1139 31.1613 91.9086 31.544C91.7126 31.9267 91.4466 32.244 91.1106 32.496C90.7839 32.748 90.4152 32.9347 90.0046 33.056C89.5939 33.1867 89.1786 33.252 88.7586 33.252C88.3386 33.252 87.9419 33.2053 87.5686 33.112C87.1952 33.028 86.8499 32.8927 86.5326 32.706C86.2246 32.5193 85.9492 32.2767 85.7066 31.978C85.4732 31.6793 85.2912 31.3247 85.1606 30.914L86.7286 30.424C86.8499 30.816 87.0739 31.1473 87.4006 31.418C87.7366 31.6887 88.1706 31.824 88.7026 31.824C88.9172 31.824 89.1319 31.796 89.3466 31.74C89.5706 31.6747 89.7666 31.5767 89.9346 31.446C90.1119 31.3153 90.2519 31.1473 90.3546 30.942C90.4666 30.7367 90.5226 30.4847 90.5226 30.186C90.5226 29.8687 90.4432 29.6027 90.2846 29.388C90.1352 29.164 89.9439 28.9913 89.7106 28.87C89.4772 28.7393 89.2159 28.646 88.9266 28.59C88.6466 28.534 88.3759 28.506 88.1146 28.506H87.6946V27.162ZM97.5415 22.836C97.9708 22.836 98.3768 22.8967 98.7595 23.018C99.1422 23.1393 99.4735 23.3167 99.7535 23.55C100.043 23.7833 100.267 24.068 100.425 24.404C100.593 24.7307 100.677 25.104 100.677 25.524C100.677 26.1027 100.533 26.5833 100.243 26.966C99.9542 27.3487 99.5855 27.6147 99.1375 27.764V27.792C99.3988 27.8573 99.6415 27.9647 99.8655 28.114C100.089 28.254 100.285 28.4313 100.453 28.646C100.621 28.8513 100.752 29.0847 100.845 29.346C100.948 29.6073 100.999 29.892 100.999 30.2C100.999 30.6947 100.906 31.1333 100.719 31.516C100.542 31.8893 100.295 32.2067 99.9775 32.468C99.6695 32.7293 99.3055 32.9253 98.8855 33.056C98.4655 33.1867 98.0175 33.252 97.5415 33.252C97.0655 33.252 96.6175 33.1867 96.1975 33.056C95.7775 32.9253 95.4088 32.7293 95.0915 32.468C94.7835 32.2067 94.5362 31.8893 94.3495 31.516C94.1722 31.1333 94.0835 30.6947 94.0835 30.2C94.0835 29.8827 94.1348 29.5887 94.2375 29.318C94.3402 29.0473 94.4755 28.8093 94.6435 28.604C94.8208 28.3987 95.0215 28.2307 95.2455 28.1C95.4695 27.96 95.7028 27.8573 95.9455 27.792V27.764C95.4975 27.6053 95.1288 27.3487 94.8395 26.994C94.5502 26.6393 94.4055 26.1727 94.4055 25.594C94.4055 25.174 94.4848 24.796 94.6435 24.46C94.8115 24.1147 95.0355 23.8253 95.3155 23.592C95.6048 23.3493 95.9362 23.1627 96.3095 23.032C96.6922 22.9013 97.1028 22.836 97.5415 22.836ZM97.5415 24.222C97.1215 24.222 96.7762 24.348 96.5055 24.6C96.2442 24.852 96.1135 25.1927 96.1135 25.622C96.1135 26.0233 96.2395 26.364 96.4915 26.644C96.7528 26.924 97.1028 27.064 97.5415 27.064C97.7375 27.064 97.9242 27.0267 98.1015 26.952C98.2788 26.8773 98.4328 26.7747 98.5635 26.644C98.6942 26.5133 98.7968 26.3593 98.8715 26.182C98.9462 26.0047 98.9835 25.818 98.9835 25.622C98.9835 25.4073 98.9415 25.216 98.8575 25.048C98.7828 24.8707 98.6755 24.7213 98.5355 24.6C98.4048 24.4787 98.2508 24.3853 98.0735 24.32C97.9055 24.2547 97.7282 24.222 97.5415 24.222ZM97.5415 28.492C97.2988 28.492 97.0702 28.534 96.8555 28.618C96.6502 28.702 96.4682 28.8187 96.3095 28.968C96.1602 29.108 96.0388 29.2853 95.9455 29.5C95.8615 29.7053 95.8195 29.934 95.8195 30.186C95.8195 30.7087 95.9828 31.1147 96.3095 31.404C96.6362 31.6933 97.0468 31.838 97.5415 31.838C98.0268 31.838 98.4328 31.6933 98.7595 31.404C99.0862 31.1147 99.2495 30.7087 99.2495 30.186C99.2495 29.9433 99.2028 29.7193 99.1095 29.514C99.0255 29.2993 98.9042 29.1173 98.7455 28.968C98.5962 28.8187 98.4142 28.702 98.1995 28.618C97.9942 28.534 97.7748 28.492 97.5415 28.492ZM102.53 23.088H109.264V24.628L105.302 33H103.328L107.5 24.6H102.53V23.088ZM111.677 31.068H113.301L112.111 34.764H110.697L111.677 31.068ZM116.35 33L118.898 29.318L118.884 29.304C118.744 29.3693 118.571 29.416 118.366 29.444C118.17 29.472 117.988 29.486 117.82 29.486C117.381 29.486 116.971 29.4067 116.588 29.248C116.205 29.08 115.869 28.856 115.58 28.576C115.291 28.2867 115.062 27.9507 114.894 27.568C114.735 27.176 114.656 26.756 114.656 26.308C114.656 25.7853 114.749 25.3093 114.936 24.88C115.123 24.4507 115.375 24.0867 115.692 23.788C116.019 23.48 116.401 23.2467 116.84 23.088C117.288 22.92 117.764 22.836 118.268 22.836C118.781 22.836 119.257 22.9247 119.696 23.102C120.144 23.27 120.531 23.508 120.858 23.816C121.185 24.124 121.437 24.488 121.614 24.908C121.801 25.3187 121.894 25.762 121.894 26.238C121.894 26.518 121.871 26.784 121.824 27.036C121.777 27.2787 121.707 27.5167 121.614 27.75C121.53 27.974 121.423 28.2027 121.292 28.436C121.171 28.6693 121.031 28.912 120.872 29.164L118.394 33H116.35ZM120.186 26.196C120.186 25.9347 120.139 25.6873 120.046 25.454C119.962 25.2207 119.836 25.0153 119.668 24.838C119.5 24.6513 119.299 24.5067 119.066 24.404C118.833 24.292 118.571 24.236 118.282 24.236C117.713 24.236 117.251 24.4227 116.896 24.796C116.551 25.16 116.378 25.636 116.378 26.224C116.378 26.504 116.42 26.7653 116.504 27.008C116.597 27.2413 116.728 27.442 116.896 27.61C117.064 27.778 117.26 27.9133 117.484 28.016C117.717 28.1093 117.974 28.156 118.254 28.156C118.534 28.156 118.791 28.1093 119.024 28.016C119.267 27.9227 119.472 27.792 119.64 27.624C119.817 27.4467 119.953 27.2367 120.046 26.994C120.139 26.7513 120.186 26.4853 120.186 26.196ZM123.257 23.088H129.991V24.628L126.029 33H124.055L128.227 24.6H123.257V23.088ZM138.158 24.6H134.112L134.014 26.742C134.173 26.6953 134.359 26.6627 134.574 26.644C134.798 26.6253 134.999 26.616 135.176 26.616C135.661 26.616 136.109 26.686 136.52 26.826C136.94 26.966 137.304 27.1713 137.612 27.442C137.92 27.7033 138.158 28.03 138.326 28.422C138.503 28.8047 138.592 29.248 138.592 29.752C138.592 30.3027 138.494 30.7973 138.298 31.236C138.111 31.6653 137.855 32.0293 137.528 32.328C137.201 32.6267 136.819 32.8553 136.38 33.014C135.941 33.1727 135.475 33.252 134.98 33.252C134.149 33.252 133.449 33.0607 132.88 32.678C132.311 32.286 131.895 31.754 131.634 31.082L133.16 30.522C133.3 30.914 133.533 31.2313 133.86 31.474C134.187 31.7073 134.574 31.824 135.022 31.824C135.274 31.824 135.512 31.782 135.736 31.698C135.96 31.614 136.156 31.4927 136.324 31.334C136.492 31.1753 136.623 30.9793 136.716 30.746C136.819 30.5033 136.87 30.2327 136.87 29.934C136.87 29.5513 136.805 29.234 136.674 28.982C136.543 28.73 136.371 28.5293 136.156 28.38C135.951 28.2213 135.717 28.114 135.456 28.058C135.195 27.9927 134.929 27.96 134.658 27.96C134.471 27.96 134.271 27.974 134.056 28.002C133.851 28.03 133.645 28.072 133.44 28.128C133.244 28.1747 133.048 28.2307 132.852 28.296C132.665 28.3613 132.497 28.4313 132.348 28.506L132.516 23.088H138.158V24.6ZM140.333 32.02C140.333 31.7213 140.44 31.4647 140.655 31.25C140.879 31.0353 141.145 30.928 141.453 30.928C141.751 30.928 142.013 31.0307 142.237 31.236C142.461 31.4413 142.573 31.6933 142.573 31.992C142.573 32.2907 142.461 32.5473 142.237 32.762C142.022 32.9767 141.761 33.084 141.453 33.084C141.303 33.084 141.159 33.056 141.019 33C140.888 32.944 140.771 32.8693 140.669 32.776C140.566 32.6827 140.482 32.5707 140.417 32.44C140.361 32.3093 140.333 32.1693 140.333 32.02ZM145.622 33L148.17 29.318L148.156 29.304C148.016 29.3693 147.843 29.416 147.638 29.444C147.442 29.472 147.26 29.486 147.092 29.486C146.653 29.486 146.242 29.4067 145.86 29.248C145.477 29.08 145.141 28.856 144.852 28.576C144.562 28.2867 144.334 27.9507 144.166 27.568C144.007 27.176 143.928 26.756 143.928 26.308C143.928 25.7853 144.021 25.3093 144.208 24.88C144.394 24.4507 144.646 24.0867 144.964 23.788C145.29 23.48 145.673 23.2467 146.112 23.088C146.56 22.92 147.036 22.836 147.54 22.836C148.053 22.836 148.529 22.9247 148.968 23.102C149.416 23.27 149.803 23.508 150.13 23.816C150.456 24.124 150.708 24.488 150.886 24.908C151.072 25.3187 151.166 25.762 151.166 26.238C151.166 26.518 151.142 26.784 151.096 27.036C151.049 27.2787 150.979 27.5167 150.886 27.75C150.802 27.974 150.694 28.2027 150.564 28.436C150.442 28.6693 150.302 28.912 150.144 29.164L147.666 33H145.622ZM149.458 26.196C149.458 25.9347 149.411 25.6873 149.318 25.454C149.234 25.2207 149.108 25.0153 148.94 24.838C148.772 24.6513 148.571 24.5067 148.338 24.404C148.104 24.292 147.843 24.236 147.554 24.236C146.984 24.236 146.522 24.4227 146.168 24.796C145.822 25.16 145.65 25.636 145.65 26.224C145.65 26.504 145.692 26.7653 145.776 27.008C145.869 27.2413 146 27.442 146.168 27.61C146.336 27.778 146.532 27.9133 146.756 28.016C146.989 28.1093 147.246 28.156 147.526 28.156C147.806 28.156 148.062 28.1093 148.296 28.016C148.538 27.9227 148.744 27.792 148.912 27.624C149.089 27.4467 149.224 27.2367 149.318 26.994C149.411 26.7513 149.458 26.4853 149.458 26.196ZM156.084 22.836C156.514 22.836 156.92 22.8967 157.302 23.018C157.685 23.1393 158.016 23.3167 158.296 23.55C158.586 23.7833 158.81 24.068 158.968 24.404C159.136 24.7307 159.22 25.104 159.22 25.524C159.22 26.1027 159.076 26.5833 158.786 26.966C158.497 27.3487 158.128 27.6147 157.68 27.764V27.792C157.942 27.8573 158.184 27.9647 158.408 28.114C158.632 28.254 158.828 28.4313 158.996 28.646C159.164 28.8513 159.295 29.0847 159.388 29.346C159.491 29.6073 159.542 29.892 159.542 30.2C159.542 30.6947 159.449 31.1333 159.262 31.516C159.085 31.8893 158.838 32.2067 158.52 32.468C158.212 32.7293 157.848 32.9253 157.428 33.056C157.008 33.1867 156.56 33.252 156.084 33.252C155.608 33.252 155.16 33.1867 154.74 33.056C154.32 32.9253 153.952 32.7293 153.634 32.468C153.326 32.2067 153.079 31.8893 152.892 31.516C152.715 31.1333 152.626 30.6947 152.626 30.2C152.626 29.8827 152.678 29.5887 152.78 29.318C152.883 29.0473 153.018 28.8093 153.186 28.604C153.364 28.3987 153.564 28.2307 153.788 28.1C154.012 27.96 154.246 27.8573 154.488 27.792V27.764C154.04 27.6053 153.672 27.3487 153.382 26.994C153.093 26.6393 152.948 26.1727 152.948 25.594C152.948 25.174 153.028 24.796 153.186 24.46C153.354 24.1147 153.578 23.8253 153.858 23.592C154.148 23.3493 154.479 23.1627 154.852 23.032C155.235 22.9013 155.646 22.836 156.084 22.836ZM156.084 24.222C155.664 24.222 155.319 24.348 155.048 24.6C154.787 24.852 154.656 25.1927 154.656 25.622C154.656 26.0233 154.782 26.364 155.034 26.644C155.296 26.924 155.646 27.064 156.084 27.064C156.28 27.064 156.467 27.0267 156.644 26.952C156.822 26.8773 156.976 26.7747 157.106 26.644C157.237 26.5133 157.34 26.3593 157.414 26.182C157.489 26.0047 157.526 25.818 157.526 25.622C157.526 25.4073 157.484 25.216 157.4 25.048C157.326 24.8707 157.218 24.7213 157.078 24.6C156.948 24.4787 156.794 24.3853 156.616 24.32C156.448 24.2547 156.271 24.222 156.084 24.222ZM156.084 28.492C155.842 28.492 155.613 28.534 155.398 28.618C155.193 28.702 155.011 28.8187 154.852 28.968C154.703 29.108 154.582 29.2853 154.488 29.5C154.404 29.7053 154.362 29.934 154.362 30.186C154.362 30.7087 154.526 31.1147 154.852 31.404C155.179 31.6933 155.59 31.838 156.084 31.838C156.57 31.838 156.976 31.6933 157.302 31.404C157.629 31.1147 157.792 30.7087 157.792 30.186C157.792 29.9433 157.746 29.7193 157.652 29.514C157.568 29.2993 157.447 29.1173 157.288 28.968C157.139 28.8187 156.957 28.702 156.742 28.618C156.537 28.534 156.318 28.492 156.084 28.492Z" fill="#7A18F7"/>
<path d="M168.256 30.168V28.408H169.072V30.168H170.832V30.984H169.072V32.744H168.256V30.984H166.496V30.168H168.256ZM173.56 28.504L172.44 29.424L171.88 28.76L173.648 27.336H174.52V33H173.56V28.504ZM178.995 31.824H176.379V30.976L178.787 27.336H179.939V31H180.731V31.824H179.939V33H178.995V31.824ZM178.995 28.464H178.979L177.371 31H178.995V28.464ZM182.79 29.664H183.046C183.19 29.664 183.331 29.6533 183.47 29.632C183.614 29.6053 183.744 29.56 183.862 29.496C183.979 29.432 184.072 29.3467 184.142 29.24C184.216 29.128 184.254 28.984 184.254 28.808C184.254 28.68 184.23 28.5653 184.182 28.464C184.134 28.3627 184.067 28.2773 183.982 28.208C183.902 28.1387 183.806 28.0853 183.694 28.048C183.587 28.0107 183.475 27.992 183.358 27.992C183.123 27.992 182.928 28.0587 182.774 28.192C182.619 28.3253 182.512 28.5013 182.454 28.72L181.55 28.488C181.598 28.296 181.678 28.1227 181.79 27.968C181.907 27.808 182.046 27.672 182.206 27.56C182.371 27.4427 182.555 27.352 182.758 27.288C182.96 27.224 183.174 27.192 183.398 27.192C183.643 27.192 183.875 27.2267 184.094 27.296C184.318 27.36 184.512 27.4587 184.678 27.592C184.848 27.72 184.982 27.88 185.078 28.072C185.174 28.264 185.222 28.488 185.222 28.744C185.222 29.048 185.128 29.32 184.942 29.56C184.76 29.7947 184.515 29.9493 184.206 30.024V30.04C184.552 30.1093 184.832 30.2667 185.046 30.512C185.264 30.752 185.374 31.048 185.374 31.4C185.374 31.6933 185.315 31.9493 185.198 32.168C185.086 32.3867 184.934 32.568 184.742 32.712C184.555 32.856 184.344 32.9627 184.11 33.032C183.875 33.1067 183.638 33.144 183.398 33.144C183.158 33.144 182.931 33.1173 182.718 33.064C182.504 33.016 182.307 32.9387 182.126 32.832C181.95 32.7253 181.792 32.5867 181.654 32.416C181.52 32.2453 181.416 32.0427 181.342 31.808L182.238 31.528C182.307 31.752 182.435 31.9413 182.622 32.096C182.814 32.2507 183.062 32.328 183.366 32.328C183.488 32.328 183.611 32.312 183.734 32.28C183.862 32.2427 183.974 32.1867 184.07 32.112C184.171 32.0373 184.251 31.9413 184.31 31.824C184.374 31.7067 184.406 31.5627 184.406 31.392C184.406 31.2107 184.36 31.0587 184.27 30.936C184.184 30.808 184.075 30.7093 183.942 30.64C183.808 30.5653 183.659 30.512 183.494 30.48C183.334 30.448 183.179 30.432 183.03 30.432H182.79V29.664ZM190.121 31.608C190.121 31.4 190.158 31.208 190.233 31.032C190.313 30.8507 190.419 30.6933 190.553 30.56C190.691 30.4213 190.849 30.3147 191.025 30.24C191.206 30.16 191.401 30.12 191.609 30.12C191.817 30.12 192.009 30.16 192.185 30.24C192.366 30.3147 192.523 30.4213 192.657 30.56C192.795 30.6933 192.902 30.8507 192.977 31.032C193.057 31.208 193.097 31.4 193.097 31.608C193.097 31.816 193.057 32.0107 192.977 32.192C192.902 32.368 192.795 32.5253 192.657 32.664C192.523 32.7973 192.366 32.904 192.185 32.984C192.009 33.0587 191.817 33.096 191.609 33.096C191.401 33.096 191.206 33.0587 191.025 32.984C190.849 32.904 190.691 32.7973 190.553 32.664C190.419 32.5253 190.313 32.368 190.233 32.192C190.158 32.0107 190.121 31.816 190.121 31.608ZM192.329 31.608C192.329 31.4053 192.259 31.2347 192.121 31.096C191.982 30.9573 191.811 30.888 191.609 30.888C191.406 30.888 191.235 30.9573 191.097 31.096C190.958 31.2347 190.889 31.4053 190.889 31.608C190.889 31.8107 190.958 31.9813 191.097 32.12C191.235 32.2587 191.406 32.328 191.609 32.328C191.811 32.328 191.982 32.2587 192.121 32.12C192.259 31.9813 192.329 31.8107 192.329 31.608ZM186.297 28.728C186.297 28.52 186.334 28.328 186.409 28.152C186.489 27.9707 186.595 27.8133 186.729 27.68C186.867 27.5413 187.025 27.4347 187.201 27.36C187.382 27.28 187.577 27.24 187.785 27.24C187.993 27.24 188.185 27.28 188.361 27.36C188.542 27.4347 188.699 27.5413 188.833 27.68C188.971 27.8133 189.078 27.9707 189.153 28.152C189.233 28.328 189.273 28.52 189.273 28.728C189.273 28.936 189.233 29.1307 189.153 29.312C189.078 29.488 188.971 29.6453 188.833 29.784C188.699 29.9173 188.542 30.024 188.361 30.104C188.185 30.1787 187.993 30.216 187.785 30.216C187.577 30.216 187.382 30.1787 187.201 30.104C187.025 30.024 186.867 29.9173 186.729 29.784C186.595 29.6453 186.489 29.488 186.409 29.312C186.334 29.1307 186.297 28.936 186.297 28.728ZM188.505 28.728C188.505 28.5253 188.435 28.3547 188.297 28.216C188.158 28.0773 187.987 28.008 187.785 28.008C187.582 28.008 187.411 28.0773 187.273 28.216C187.134 28.3547 187.065 28.5253 187.065 28.728C187.065 28.9307 187.134 29.1013 187.273 29.24C187.411 29.3787 187.582 29.448 187.785 29.448C187.987 29.448 188.158 29.3787 188.297 29.24C188.435 29.1013 188.505 28.9307 188.505 28.728ZM191.025 27.08L191.689 27.384L188.361 33.256L187.697 32.952L191.025 27.08Z" fill="#1CED8C"/>
<g filter="url(#filter0_d)">
<rect x="150" y="53" width="38.6667" height="24" rx="2" fill="white"/>
<path d="M170 49L173.464 53H166.536L170 49Z" fill="white"/>
</g>
<defs>
<filter id="filter0_d" x="146" y="46" width="46.6667" height="36" filterUnits="userSpaceOnUse" color-interpolation-filters="sRGB">
<feFlood flood-opacity="0" result="BackgroundImageFix"/>
<feColorMatrix in="SourceAlpha" type="matrix" values="0 0 0 0 0 0 0 0 0 0 0 0 0 0 0 0 0 0 127 0"/>
<feOffset dy="1"/>
<feGaussianBlur stdDeviation="2"/>
<feColorMatrix type="matrix" values="0 0 0 0 0 0 0 0 0 0 0 0 0 0 0 0 0 0 0.25 0"/>
<feBlend mode="normal" in2="BackgroundImageFix" result="effect1_dropShadow"/>
<feBlend mode="normal" in="SourceGraphic" in2="effect1_dropShadow" result="shape"/>
</filter>
<linearGradient id="paint0_linear" x1="128.762" y1="23.531" x2="128.953" y2="112.983" gradientUnits="userSpaceOnUse">
<stop stop-color="#7A18F6" stop-opacity="0.56"/>
<stop offset="0.00356854" stop-color="#7A18F6" stop-opacity="0.56"/>
<stop offset="1" stop-color="#7A18F6" stop-opacity="0"/>
</linearGradient>
</defs>
</svg>
