<svg width="204" height="49" viewBox="0 0 204 49" fill="none" xmlns="http://www.w3.org/2000/svg">
<path d="M78.2724 47C91.5679 47 99.8136 38.7969 99.8136 25.1605C99.8136 11.5455 91.5679 3.36364 78.2511 3.36364H62.1432V47H78.2724ZM72.6901 38.0085V12.3551H77.7185C85.2185 12.3551 89.2455 15.7642 89.2455 25.1605C89.2455 34.5994 85.2185 38.0085 77.8676 38.0085H72.6901ZM107.171 47H117.59V14.2727H107.171V47ZM112.391 10.4588C115.353 10.4588 117.739 8.22159 117.739 5.47301C117.739 2.72443 115.353 0.50852 112.391 0.50852C109.451 0.50852 107.043 2.72443 107.043 5.47301C107.043 8.22159 109.451 10.4588 112.391 10.4588ZM157.169 14.2727H146.196L140.145 36.8153H139.804L133.774 14.2727H122.801L134.009 47H145.941L157.169 14.2727ZM176.608 47.6179C185.195 47.6179 190.841 43.4631 192.034 37.0284L182.467 36.7514C181.658 38.9247 179.527 40.0966 176.8 40.0966C172.794 40.0966 170.322 37.4332 170.322 33.4276V33.1506H192.141V30.5511C192.141 19.7699 185.578 13.8466 176.288 13.8466C166.402 13.8466 160.052 20.6222 160.052 30.7642C160.052 41.2472 166.317 47.6179 176.608 47.6179ZM170.322 27.0994C170.472 23.8395 173.05 21.3679 176.501 21.3679C179.932 21.3679 182.403 23.7543 182.446 27.0994H170.322Z" fill="white"/>
<circle cx="20.3312" cy="28.1084" r="2.37198" fill="white"/>
<rect x="23.7198" y="19.9759" width="4.74396" height="10.8433" rx="2.37198" fill="white"/>
<rect x="29.8192" y="11.8433" width="4.74396" height="18.9759" rx="2.37198" fill="white"/>
<path d="M32.1912 39.2906L43.1082 46.3719C43.7887 46.8133 44.684 46.3035 44.6516 45.4929L44.3899 38.9517" stroke="white" stroke-width="3"/>
<path fill-rule="evenodd" clip-rule="evenodd" d="M10 4H42.1836C46.0496 4 49.1836 7.13401 49.1836 11V30.9848C49.1836 34.8508 46.0496 37.9848 42.1836 37.9848H10C6.13401 37.9848 3 34.8508 3 30.9848V11C3 7.134 6.13401 4 10 4ZM0 11C0 5.47715 4.47715 1 10 1H42.1836C47.7064 1 52.1836 5.47715 52.1836 11V30.9848C52.1836 35.5298 49.1516 39.3665 45 40.5828V38H33V40.9848H10C4.47716 40.9848 0 36.5077 0 30.9848V11ZM33 40.9848V41H45V40.5828C44.1067 40.8445 43.1615 40.9848 42.1836 40.9848H33Z" fill="white"/>
<circle cx="32.6943" cy="39.6943" r="1.69427" fill="white"/>
<circle cx="44.39" cy="39.2906" r="1.69427" fill="white"/>
</svg>
