<svg xmlns="http://www.w3.org/2000/svg" viewBox="0 0 838.56 279.85">
        <defs>
          <style></style>
        </defs>
        <g id="rpur">
          <path class="cls-1" d="M301.75,79.28H262a1.66,1.66,0,0,0-1.81,1.81V203.93a1.66,1.66,0,0,0,1.81,1.81h3a1.66,1.66,0,0,0,1.81-1.81V152.75h33.59l45.84,52a2.75,2.75,0,0,0,2.25,1h3.86c1,0,1.54-.44,1.54-1.06a2,2,0,0,0-.54-1.19L308.06,152.2a36.73,36.73,0,0,0-6.31-72.92m-34.92,6.15h34.92c16.57,0,30.11,13.72,30.11,30.59a30.72,30.72,0,0,1-.56,5.86,30.37,30.37,0,0,1-29.55,24.73H266.83Z"></path>
          <path class="cls-1" d="M301.75,76.29H262a4.64,4.64,0,0,0-4.8,4.8V203.93a4.64,4.64,0,0,0,4.8,4.8h3a4.64,4.64,0,0,0,4.8-4.8V155.74h29.25l44.95,51a5.74,5.74,0,0,0,4.48,2h3.87a4.18,4.18,0,0,0,3.27-7.18l-.1-.12-42-47.49a39.73,39.73,0,0,0-11.84-77.65m-41.54,4.8h0a1.64,1.64,0,0,1,1.8-1.81h39.74a36.73,36.73,0,0,1,6.31,72.92l45.31,51.29h0a2,2,0,0,1,.54,1.19c0,.62-.54,1.06-1.54,1.06H348.5a2.74,2.74,0,0,1-2.24-1l-45.84-52H266.83v51.18a1.65,1.65,0,0,1-1.81,1.81h-3a1.65,1.65,0,0,1-1.8-1.81Zm41.54,4.34H266.83v61.18h34.92A30.57,30.57,0,0,0,331.86,116c0-16.86-13.55-30.58-30.11-30.58m-31.93,58.19V88.42h31.93A27.39,27.39,0,0,1,328.87,116c0,15.23-12.16,27.61-27.12,27.61Z"></path>
          <path class="cls-1" d="M266.83,146.6h34.93c16.56,0,30.11-13.79,30.11-30.59s-13.55-30.59-30.11-30.59H266.83Zm86.55,56.89c1,1.18.55,2.25-1,2.25h-3.87a2.73,2.73,0,0,1-2.24-1l-45.84-52h-33.6v51.19a1.65,1.65,0,0,1-1.81,1.81h-3a1.65,1.65,0,0,1-1.81-1.81V81.08A1.65,1.65,0,0,1,262,79.27h39.75a36.74,36.74,0,0,1,6.31,72.93l45.31,51.29Z"></path>
          <path class="cls-1" d="M268.32,145.11h33.44c15.78,0,28.61-13.06,28.61-29.1s-12.83-29.1-28.61-29.1H268.32Zm33.44,3H265.33V83.92h36.43c17.43,0,31.6,14.4,31.6,32.09s-14.17,32.08-31.6,32.08m-36.43,3.16H301.1l46.29,52.5a1.24,1.24,0,0,0,1.12.49H352l-46.86-53.06,2.63-.46a35.24,35.24,0,0,0-6.05-69.95H262l-.31.31V203.93l.31.31h3l.31-.31Zm87.05,56h-3.87a4.27,4.27,0,0,1-3.37-1.5l-45.39-51.49H268.32v49.69a3.12,3.12,0,0,1-3.3,3.3h-3a3.13,3.13,0,0,1-3.3-3.3V81.08a3.13,3.13,0,0,1,3.3-3.3h39.75a38.23,38.23,0,0,1,9.13,75.35l43.62,49.39a3,3,0,0,1,.68,3.17,2.89,2.89,0,0,1-2.81,1.54"></path>
          <path class="cls-1" d="M487.1,146.6c16.57,0,30.11-13.79,30.11-30.59S503.67,85.42,487.1,85.42H452.18V146.6ZM523.84,116a36.86,36.86,0,0,1-36.74,36.74H452.18v51.18a1.66,1.66,0,0,1-1.81,1.81h-3a1.65,1.65,0,0,1-1.81-1.81V81.08a1.65,1.65,0,0,1,1.81-1.81H487.1A36.81,36.81,0,0,1,523.84,116"></path>
          <path class="cls-1" d="M455.17,88.4H487.1c15,0,27.13,12.39,27.13,27.61a27.4,27.4,0,0,1-27.13,27.6H455.17ZM487.1,76.28H447.36a4.64,4.64,0,0,0-4.8,4.8V203.93a4.64,4.64,0,0,0,4.8,4.8h3a4.64,4.64,0,0,0,4.8-4.8v-48.2H487.1a39.73,39.73,0,1,0,0-79.45M452.18,146.6H487.1c16.56,0,30.11-13.79,30.11-30.59S503.66,85.42,487.1,85.42H452.18ZM487.1,79.27a36.74,36.74,0,1,1,0,73.47H452.18v51.19a1.66,1.66,0,0,1-1.81,1.81h-3a1.65,1.65,0,0,1-1.81-1.81V81.08a1.65,1.65,0,0,1,1.81-1.81H487.1Z"></path>
          <path class="cls-1" d="M557,170.33V81.08a1.64,1.64,0,0,1,1.81-1.8h3a1.65,1.65,0,0,1,1.81,1.8v89.25c0,19.09,13.18,31.07,34.92,31.07s34.93-12,34.93-31.07V81.08a1.64,1.64,0,0,1,1.81-1.8h3a1.65,1.65,0,0,1,1.81,1.8v89.25c0,23.78-17.77,37.33-41.56,37.33S557,194.11,557,170.33"></path>
          <path class="cls-1" d="M638.31,76.28h-3a4.64,4.64,0,0,0-4.8,4.8v89.25c0,17.58-11.94,28.08-31.94,28.08s-31.93-10.5-31.93-28.08V81.08a4.64,4.64,0,0,0-4.8-4.8h-3a4.64,4.64,0,0,0-4.8,4.8v89.25c0,24.12,17.9,40.32,44.54,40.32s44.54-16.2,44.54-40.32V81.08a4.64,4.64,0,0,0-4.79-4.8m0,3a1.66,1.66,0,0,1,1.81,1.81v89.25c0,23.79-17.77,37.33-41.56,37.33S557,194.12,557,170.33V81.08a1.66,1.66,0,0,1,1.81-1.81h3a1.66,1.66,0,0,1,1.81,1.81v89.25c0,19.09,13.18,31.07,34.92,31.07s34.93-12,34.93-31.07V81.08a1.65,1.65,0,0,1,1.81-1.81Z"></path>
          <path class="cls-1" d="M689.37,146.6H724.3c16.56,0,30.11-13.79,30.11-30.59S740.86,85.42,724.3,85.42H689.37Zm86.55,56.89c1,1.18.55,2.25-1,2.25h-3.87a2.74,2.74,0,0,1-2.24-1l-45.84-52h-33.6v51.19a1.65,1.65,0,0,1-1.8,1.81h-3a1.65,1.65,0,0,1-1.8-1.81V81.08a1.65,1.65,0,0,1,1.8-1.81H724.3a36.74,36.74,0,0,1,6.31,72.93l45.3,51.29Z"></path>
          <path class="cls-1" d="M692.36,88.41H724.3c15,0,27.12,12.38,27.12,27.6s-12.17,27.6-27.12,27.6H692.36ZM724.3,76.28H684.55a4.64,4.64,0,0,0-4.79,4.8V203.93a4.64,4.64,0,0,0,4.79,4.8h3a4.64,4.64,0,0,0,4.79-4.8v-48.2h29.26l45,51a5.74,5.74,0,0,0,4.48,2h3.87a4.19,4.19,0,0,0,3.27-7.19l-.06-.06-42-47.55A39.73,39.73,0,0,0,724.3,76.28M689.37,146.6H724.3c16.56,0,30.11-13.79,30.11-30.59S740.86,85.42,724.3,85.42H689.37ZM724.3,79.27a36.74,36.74,0,0,1,6.31,72.93l45.3,51.29h0c1,1.18.55,2.25-1,2.25h-3.87a2.74,2.74,0,0,1-2.24-1l-45.84-52h-33.6v51.19a1.65,1.65,0,0,1-1.8,1.81h-3a1.65,1.65,0,0,1-1.8-1.81V81.08a1.65,1.65,0,0,1,1.8-1.81H724.3Z"></path>
          <path class="cls-1" d="M487.1,79.28H447.35a1.64,1.64,0,0,0-1.8,1.81V203.93a1.65,1.65,0,0,0,1.8,1.81h3a1.65,1.65,0,0,0,1.81-1.81V152.75H487.1a36.74,36.74,0,0,0,0-73.47m0,67.32H452.17V85.42H487.1c16.56,0,30.11,13.73,30.11,30.59S503.66,146.6,487.1,146.6"></path>
          <path class="cls-1" d="M455.16,88.42H487.1c14.95,0,27.12,12.38,27.12,27.59s-12.17,27.6-27.12,27.6H455.16ZM487.1,76.29H447.35a4.64,4.64,0,0,0-4.79,4.8V203.93a4.64,4.64,0,0,0,4.79,4.8h3a4.64,4.64,0,0,0,4.8-4.8V155.74H487.1a39.73,39.73,0,0,0,0-79.45M452.17,146.6H487.1c16.56,0,30.1-13.79,30.1-30.59s-13.54-30.59-30.1-30.59H452.17ZM487.1,79.28a36.74,36.74,0,0,1,0,73.47H452.17v51.18a1.65,1.65,0,0,1-1.81,1.81h-3a1.65,1.65,0,0,1-1.8-1.81V81.09a1.64,1.64,0,0,1,1.8-1.81H487.1Z"></path>
          <path class="cls-1" d="M598.74,207.66c23.79,0,41.55-13.54,41.55-37.33V81.09a1.65,1.65,0,0,0-1.81-1.81h-3a1.64,1.64,0,0,0-1.8,1.81v89.24c0,19.09-13.19,31.07-34.93,31.07s-34.93-12-34.93-31.07V81.09a1.64,1.64,0,0,0-1.8-1.81h-3a1.64,1.64,0,0,0-1.8,1.81v89.24c0,23.79,17.76,37.33,41.55,37.33"></path>
          <path class="cls-1" d="M638.48,76.29h-3a4.64,4.64,0,0,0-4.79,4.8v89.24c0,17.59-11.94,28.08-31.94,28.08s-31.94-10.49-31.94-28.08V81.09a4.64,4.64,0,0,0-4.79-4.8h-3a4.64,4.64,0,0,0-4.8,4.8v89.24c0,24.12,17.9,40.32,44.54,40.32s44.54-16.2,44.54-40.32V81.09a4.64,4.64,0,0,0-4.8-4.8m0,3a1.65,1.65,0,0,1,1.81,1.81v89.24c0,23.79-17.76,37.34-41.55,37.34s-41.55-13.55-41.55-37.34V81.09A1.65,1.65,0,0,1,559,79.28h3a1.64,1.64,0,0,1,1.8,1.81v89.24c0,19.09,13.19,31.07,34.93,31.07s34.93-12,34.93-31.07V81.09a1.64,1.64,0,0,1,1.8-1.81Z"></path>
          <path class="cls-1" d="M776.27,203.49,731,152.2a36.73,36.73,0,0,0-6.31-72.92H684.91a1.65,1.65,0,0,0-1.8,1.81V203.93a1.65,1.65,0,0,0,1.8,1.81h3a1.65,1.65,0,0,0,1.81-1.81V152.75h33.59l45.84,52a2.76,2.76,0,0,0,2.25,1h3.87c1.54,0,2-1.07,1-2.25ZM689.73,85.43h34.93c16.55,0,30.11,13.72,30.11,30.58s-13.56,30.6-30.11,30.6H689.73Z"></path>
          <path class="cls-1" d="M692.72,88.42h31.94c15,0,27.11,12.38,27.11,27.59s-12.16,27.61-27.11,27.61H692.72Zm31.94-12.13H684.91a4.64,4.64,0,0,0-4.79,4.8V203.93a4.64,4.64,0,0,0,4.79,4.8h3a4.64,4.64,0,0,0,4.8-4.8V155.74H722l44.94,51a5.74,5.74,0,0,0,4.49,2h3.86a4.18,4.18,0,0,0,3.27-7.18l-.1-.12-42-47.5a39.72,39.72,0,0,0-11.83-77.64m-34.93,70.32h34.93c16.56,0,30.11-13.79,30.11-30.6s-13.55-30.58-30.11-30.58H689.73Zm34.93-67.33A36.73,36.73,0,0,1,731,152.2l45.3,51.29c1,1.18.56,2.25-1,2.25h-3.86a2.75,2.75,0,0,1-2.25-1l-45.83-52h-33.6v51.18a1.65,1.65,0,0,1-1.81,1.81h-3a1.65,1.65,0,0,1-1.8-1.81V81.09a1.65,1.65,0,0,1,1.8-1.81h39.75Z"></path>
          <path class="cls-1" d="M417.13,155.14H371a6,6,0,1,1,0-12h46.11a6,6,0,1,1,0,12"></path>
          <polygon class="cls-1" points="135.56 130.36 120.92 130.36 113.6 143.03 120.92 155.72 135.56 155.72 142.88 143.03 135.56 130.36"></polygon>
          <path class="cls-1" d="M135.56,127.91H120.92a2.44,2.44,0,0,0-2.12,1.22l-7.32,12.68a2.44,2.44,0,0,0,0,2.45l7.32,12.68a2.43,2.43,0,0,0,2.12,1.23h14.64a2.44,2.44,0,0,0,2.12-1.23L145,144.26a2.44,2.44,0,0,0,0-2.45l-7.32-12.68a2.44,2.44,0,0,0-2.12-1.22m0,2.45L142.88,143l-7.32,12.68H120.92L113.6,143l7.32-12.68Z"></path>
          <polygon class="cls-1" points="135.56 130.36 120.92 130.36 113.6 143.03 120.92 155.72 135.56 155.72 142.88 143.03 135.56 130.36"></polygon>
          <path class="cls-1" d="M135.56,127.91H120.92a2.44,2.44,0,0,0-2.12,1.22l-7.32,12.68a2.44,2.44,0,0,0,0,2.45l7.32,12.68a2.43,2.43,0,0,0,2.12,1.23h14.64a2.44,2.44,0,0,0,2.12-1.23L145,144.26a2.44,2.44,0,0,0,0-2.45l-7.32-12.68a2.44,2.44,0,0,0-2.12-1.22m0,2.45L142.88,143l-7.32,12.68H120.92L113.6,143l7.32-12.68Z"></path>
          <path class="cls-1" d="M172.1,115.91,158.47,92.28a1.6,1.6,0,0,0-1.37-.79H129.82a1.58,1.58,0,0,1-1.58-1.58V78.23a1.58,1.58,0,0,1,1.58-1.58h35.85a1.57,1.57,0,0,1,1.36.79l17.91,31a1.58,1.58,0,0,1-.57,2.16l-10.12,5.83a1.57,1.57,0,0,1-2.15-.57"></path>
          <path class="cls-1" d="M129.82,77.88l-.35.35V89.91l.35.35H157.1a2.82,2.82,0,0,1,2.43,1.39l13.63,23.63.21.17.27,0,10.12-5.84.12-.48L166,78.06l-.3-.17Zm43.65,40a3,3,0,0,1-.73-.09,2.77,2.77,0,0,1-1.7-1.31L157.4,92.89l-.3-.17H129.82a2.8,2.8,0,0,1-2.8-2.8V78.23a2.8,2.8,0,0,1,2.8-2.81l35.85,0a2.84,2.84,0,0,1,2.43,1.39L186,107.88a2.8,2.8,0,0,1-1,3.83l-10.11,5.84a2.79,2.79,0,0,1-1.4.37"></path>
          <path class="cls-2" d="M165.64,209.43H129.81a1.57,1.57,0,0,1-1.57-1.58V195.73a1.6,1.6,0,0,1,1.58-1.15h27.26a1.6,1.6,0,0,0,1.37-.79l13.43-23.26A1.57,1.57,0,0,1,174,170l10.11,5.84a1.58,1.58,0,0,1,.58,2.16L167,208.64a1.6,1.6,0,0,1-1.37.79"></path>
          <path class="cls-2" d="M129.82,195.81h0l-.36.35v11.68l.18.18s.17.17,11.33.17h24.67l.15-.09s.15-.08,5.74-9.75l12.13-21,0-.26-.17-.22L173.42,171l-.27,0-.1.09s-.11.08-3.83,6.52l-9.71,16.82a2.82,2.82,0,0,1-2.43,1.4Zm35.82,14.84H129.81a2.81,2.81,0,0,1-2.8-2.81V202s0-5.84,0-6.61,1.25-2,2.8-2h27.26l.15-.08s.15-.09,3.87-6.53l9.72-16.82a2.81,2.81,0,0,1,3.83-1l10.11,5.84a2.75,2.75,0,0,1,1.3,1.7,2.78,2.78,0,0,1-.27,2.13l-17.72,30.67a2.8,2.8,0,0,1-2.43,1.4"></path>
          <path class="cls-3" d="M69.76,172.37,53.23,143.73a1.45,1.45,0,0,1,0-1.45l16.73-29a1.46,1.46,0,0,1,2-.53l9.33,5.39a1.46,1.46,0,0,1,.54,2L69,142.28a1.51,1.51,0,0,0,0,1.46l12.58,21.79a1.46,1.46,0,0,1-.53,2l-9.34,5.38a1.44,1.44,0,0,1-2-.53"></path>
          <path class="cls-3" d="M71.22,113.81h0l-.1.06s-.1.06-2,3.28l-9.28,16.08s-5.59,9.66,0,19.34l11,19.19.14.1,9.5-5.41.05-.15s0-.16-3.68-6.6L68,144.35a2.72,2.72,0,0,1,0-2.68l12.78-22.12-.08-.32-9.33-5.38ZM71,174.33a2.35,2.35,0,0,1-.69-.1A2.71,2.71,0,0,1,68.69,173L52.17,144.34a2.67,2.67,0,0,1,0-2.68l16.73-29a2.68,2.68,0,0,1,3.66-1l9.34,5.39a2.69,2.69,0,0,1,1,3.67l-9.06,15.67s-3.72,6.45,0,12.9l8.88,15.57a2.58,2.58,0,0,1,.27,2,2.63,2.63,0,0,1-1.25,1.63L72.36,174a2.74,2.74,0,0,1-1.34.36"></path>
        </g>
        </svg>