<svg xmlns="http://www.w3.org/2000/svg" width="219.89" height="37" viewBox="0 0 219.89 37"><linearGradient id="a" gradientUnits="userSpaceOnUse" x1="32.604" y1="24.495" x2="4.556" y2="-6.533"><stop offset=".055" stop-color="#ff024f"/><stop offset=".902" stop-color="#ff4104"/></linearGradient><path fill="url(#a)" d="M18.59 37h4.65v-4.62h4.64v-4.63h4.65v-4.63h4.65V18.5h4.65V4.62h-4.65V0h-9.3v4.62h-4.64v4.63h-4.65V4.62h-4.65V0H4.65v4.62H0V18.5h4.65v4.62h4.64v4.63h4.65v4.63h4.65z"/><linearGradient id="b" gradientUnits="userSpaceOnUse" x1="52.134" y1="16.93" x2="210.407" y2="42.395"><stop offset="0" stop-color="#ff024f"/><stop offset="1" stop-color="#ff4104"/></linearGradient><path fill="url(#b)" d="M55.17 3.69h5.97V32.1h-5.97z"/><linearGradient id="c" gradientUnits="userSpaceOnUse" x1="51.985" y1="17.861" x2="210.257" y2="43.327"><stop offset="0" stop-color="#ff024f"/><stop offset="1" stop-color="#ff4104"/></linearGradient><path fill="url(#c)" d="M82.31 12.56c-1.71-.91-3.65-1.36-5.82-1.36-2.17 0-4.12.45-5.84 1.36-1.72.91-3.07 2.16-4.04 3.77-.97 1.61-1.46 3.43-1.46 5.48 0 2.04.48 3.87 1.46 5.48.97 1.61 2.32 2.87 4.04 3.77 1.72.91 3.67 1.36 5.84 1.36s4.11-.45 5.82-1.36c1.71-.91 3.05-2.16 4.02-3.77.97-1.61 1.46-3.43 1.46-5.48 0-2.04-.49-3.87-1.46-5.48-.97-1.61-2.31-2.87-4.02-3.77zm-2.04 13.4c-.98 1.03-2.24 1.55-3.77 1.55-1.53 0-2.8-.52-3.79-1.55-1-1.03-1.49-2.42-1.49-4.15 0-1.74.5-3.12 1.49-4.15 1-1.03 2.26-1.55 3.79-1.55 1.53 0 2.79.52 3.77 1.55s1.47 2.42 1.47 4.15c0 1.73-.49 3.12-1.47 4.15z"/><linearGradient id="d" gradientUnits="userSpaceOnUse" x1="52.362" y1="13.513" x2="210.635" y2="38.978"><stop offset="0" stop-color="#ff024f"/><stop offset="1" stop-color="#ff4104"/></linearGradient><path fill="url(#d)" d="M99.68 25.52l-5.7-14.02h-6.17l8.66 20.61h6.16l8.7-20.61h-5.75z"/><linearGradient id="e" gradientUnits="userSpaceOnUse" x1="52.521" y1="10.53" x2="210.793" y2="35.996"><stop offset="0" stop-color="#ff024f"/><stop offset="1" stop-color="#ff4104"/></linearGradient><path fill="url(#e)" d="M127.81 12.5c-1.63-.87-3.46-1.3-5.48-1.3-2.07 0-3.94.45-5.61 1.36-1.67.91-2.99 2.17-3.94 3.79-.96 1.62-1.44 3.44-1.44 5.46 0 2.04.48 3.87 1.46 5.48.97 1.61 2.35 2.87 4.14 3.77 1.79.91 3.84 1.36 6.17 1.36 3.73 0 6.56-1.11 8.5-3.33l-3.18-3.45c-.72.69-1.49 1.19-2.32 1.51-.83.32-1.78.48-2.85.48-1.56 0-2.86-.37-3.91-1.11-1.05-.74-1.71-1.75-1.99-3.03h15.59c.08-1 .11-1.53.11-1.61 0-2.14-.47-4.03-1.4-5.65a9.469 9.469 0 00-3.85-3.73zM117.28 20c.2-1.33.77-2.37 1.68-3.14.92-.77 2.05-1.15 3.41-1.15 1.33 0 2.45.39 3.37 1.17.92.78 1.48 1.82 1.68 3.12h-10.14z"/><linearGradient id="f" gradientUnits="userSpaceOnUse" x1="53.359" y1="3.989" x2="211.631" y2="29.453"><stop offset="0" stop-color="#ff024f"/><stop offset="1" stop-color="#ff4104"/></linearGradient><path fill="url(#f)" d="M154.23 12.52c-1.57-.88-3.31-1.32-5.23-1.32-2.63 0-4.7.83-6.2 2.49v-10h-5.97V32.1h5.71v-2.37c1.48 1.79 3.64 2.68 6.47 2.68 1.91 0 3.66-.44 5.23-1.32 1.57-.88 2.8-2.12 3.7-3.71.89-1.6 1.34-3.45 1.34-5.57s-.45-3.98-1.34-5.57c-.91-1.6-2.14-2.84-3.71-3.72zm-2.49 13.44c-.98 1.03-2.24 1.55-3.77 1.55-1.53 0-2.79-.52-3.77-1.55s-1.47-2.42-1.47-4.15c0-1.74.49-3.12 1.47-4.15.98-1.03 2.24-1.55 3.77-1.55 1.53 0 2.79.52 3.77 1.55s1.47 2.42 1.47 4.15c.01 1.73-.48 3.12-1.47 4.15z"/><linearGradient id="g" gradientUnits="userSpaceOnUse" x1="53.263" y1="2.476" x2="211.535" y2="27.941"><stop offset="0" stop-color="#ff024f"/><stop offset="1" stop-color="#ff4104"/></linearGradient><path fill="url(#g)" d="M178.55 12.45c-1.71-.91-3.65-1.36-5.82-1.36-2.17 0-4.12.45-5.84 1.36-1.72.91-3.07 2.16-4.04 3.77-.97 1.61-1.46 3.43-1.46 5.48 0 2.04.48 3.87 1.46 5.48.97 1.61 2.32 2.87 4.04 3.77 1.72.91 3.67 1.36 5.84 1.36s4.11-.45 5.82-1.36c1.71-.91 3.05-2.16 4.02-3.77.97-1.61 1.46-3.43 1.46-5.48 0-2.04-.49-3.87-1.46-5.48-.97-1.61-2.31-2.86-4.02-3.77zm-2.05 13.51c-.98 1.03-2.24 1.55-3.77 1.55-1.53 0-2.8-.52-3.79-1.55-1-1.03-1.49-2.42-1.49-4.15 0-1.74.5-3.12 1.49-4.15s2.26-1.55 3.79-1.55c1.53 0 2.79.52 3.77 1.55s1.47 2.42 1.47 4.15c.01 1.73-.49 3.12-1.47 4.15z"/><linearGradient id="h" gradientUnits="userSpaceOnUse" x1="53.632" y1="-1.041" x2="211.904" y2="24.424"><stop offset="0" stop-color="#ff024f"/><stop offset="1" stop-color="#ff4104"/></linearGradient><path fill="url(#h)" d="M199.05 21.57l7.66-10.07h-6.36l-4.48 6.02-4.36-6.02h-6.7l7.66 10.23-7.93 10.38h6.51l4.67-6.32 4.52 6.32h6.78z"/><g><linearGradient id="i" gradientUnits="userSpaceOnUse" x1="211.53" y1="7.202" x2="219.887" y2="7.202"><stop offset="0" stop-color="#ff024f"/><stop offset="1" stop-color="#ff4104"/></linearGradient><path fill="url(#i)" d="M217.85 3.57c.64.36 1.13.86 1.5 1.5.36.64.54 1.34.54 2.11a4.172 4.172 0 01-2.08 3.64c-.64.37-1.35.56-2.12.56s-1.48-.19-2.11-.56c-.64-.37-1.14-.88-1.5-1.52-.37-.64-.55-1.34-.55-2.11a4.153 4.153 0 012.06-3.63c.64-.37 1.35-.56 2.13-.56s1.49.2 2.13.57zm-.43 6.59c.52-.3.92-.72 1.22-1.24.3-.52.44-1.1.44-1.73 0-.64-.14-1.22-.43-1.73a3.17 3.17 0 00-1.2-1.21c-.51-.3-1.09-.44-1.73-.44-.64 0-1.22.15-1.73.45-.51.3-.92.71-1.21 1.23-.29.52-.44 1.1-.44 1.73 0 .63.15 1.21.44 1.73.29.52.69.93 1.2 1.23.51.3 1.08.45 1.71.45.64-.02 1.21-.17 1.73-.47zm.26-2.76c-.15.24-.36.43-.65.56l1.01 1.54h-1.23l-.86-1.33H215.13V9.5h-1.23V4.91h2c.62 0 1.11.15 1.47.44.36.3.53.69.53 1.19 0 .33-.07.62-.22.86zm-1.87-.15c.28 0 .49-.06.65-.18.15-.12.23-.3.23-.53 0-.23-.08-.41-.23-.53-.15-.13-.37-.19-.65-.19h-.7v1.43h.7z"/></g></svg>
