<svg width="501" height="411" viewBox="0 0 501 411" fill="none" xmlns="http://www.w3.org/2000/svg">
<rect x="111" width="390" height="411" rx="5" fill="#C7EAE4" fill-opacity="0.7"/>
<g filter="url(#filter0_d)">
<rect x="20" y="25" width="347" height="140" rx="5" fill="white"/>
</g>
<path d="M66 106.098C74.2864 106.098 82.7715 106.758 91.0484 106.098C92.8356 105.955 96.0508 101.587 97.4798 100.08C100.848 96.5278 104.404 96.918 108.65 96.918C112.211 96.918 115.361 96 118.88 96C122.635 96 125.768 98.8702 128.96 100.794C132.227 102.763 135.869 102.426 139.453 102.426C143.863 102.426 147.049 102.984 151.3 104.466C159.061 107.172 167.319 109.77 175.672 109.77C181.413 109.77 187.684 111.365 193.198 113.442C195.089 114.154 196.547 114.896 198.163 115.992C201.265 118.096 208.46 116.275 211.853 116.145C218.516 115.89 224.897 114.36 231.56 114.36C242.027 114.36 254.599 116.808 264.733 112.932C269.551 111.089 279.466 118.13 284.196 115.992C289.497 113.596 315.449 116.424 321 116.145" stroke="#7A18F6" stroke-linecap="round" stroke-linejoin="round"/>
<circle cx="74.5" cy="106.5" r="1.5" fill="#7A18F6"/>
<circle cx="112.5" cy="96.5" r="1.5" fill="#7A18F6"/>
<circle cx="152.5" cy="104.5" r="1.5" fill="#7A18F6"/>
<circle cx="193.5" cy="113.5" r="1.5" fill="#7A18F6"/>
<circle cx="232.5" cy="114.5" r="1.5" fill="#7A18F6"/>
<circle cx="272.5" cy="113.5" r="1.5" fill="#7A18F6"/>
<circle cx="313.5" cy="115.5" r="1.5" fill="#7A18F6"/>
<path d="M180.799 42V34.7273H183.391C183.955 34.7273 184.422 34.8243 184.794 35.0185C185.168 35.2126 185.447 35.4813 185.632 35.8246C185.817 36.1655 185.909 36.5597 185.909 37.0071C185.909 37.4522 185.816 37.844 185.629 38.1825C185.444 38.5187 185.165 38.7803 184.79 38.9673C184.419 39.1544 183.951 39.2479 183.388 39.2479H181.424V38.3033H183.288C183.643 38.3033 183.932 38.2524 184.155 38.1506C184.38 38.0488 184.544 37.9008 184.648 37.7067C184.753 37.5125 184.805 37.2794 184.805 37.0071C184.805 36.7325 184.751 36.4946 184.645 36.2933C184.541 36.0921 184.376 35.9382 184.151 35.8317C183.929 35.7228 183.636 35.6683 183.274 35.6683H181.896V42H180.799ZM184.389 38.7188L186.186 42H184.936L183.175 38.7188H184.389ZM193.562 38.3636C193.562 39.1402 193.42 39.8078 193.136 40.3665C192.852 40.9228 192.462 41.3513 191.967 41.652C191.475 41.9503 190.915 42.0994 190.288 42.0994C189.658 42.0994 189.096 41.9503 188.601 41.652C188.108 41.3513 187.72 40.9216 187.436 40.3629C187.152 39.8042 187.01 39.1378 187.01 38.3636C187.01 37.5871 187.152 36.9207 187.436 36.3643C187.72 35.8056 188.108 35.3771 188.601 35.0788C189.096 34.7782 189.658 34.6278 190.288 34.6278C190.915 34.6278 191.475 34.7782 191.967 35.0788C192.462 35.3771 192.852 35.8056 193.136 36.3643C193.42 36.9207 193.562 37.5871 193.562 38.3636ZM192.475 38.3636C192.475 37.7718 192.379 37.2734 192.188 36.8686C191.998 36.4614 191.738 36.1536 191.406 35.9453C191.077 35.7346 190.704 35.6293 190.288 35.6293C189.869 35.6293 189.495 35.7346 189.165 35.9453C188.836 36.1536 188.576 36.4614 188.384 36.8686C188.195 37.2734 188.1 37.7718 188.1 38.3636C188.1 38.9555 188.195 39.455 188.384 39.8622C188.576 40.267 188.836 40.5748 189.165 40.7855C189.495 40.9938 189.869 41.098 190.288 41.098C190.704 41.098 191.077 40.9938 191.406 40.7855C191.738 40.5748 191.998 40.267 192.188 39.8622C192.379 39.455 192.475 38.9555 192.475 38.3636ZM195.183 42H194.018L196.635 34.7273H197.903L200.52 42H199.355L197.299 36.0483H197.243L195.183 42ZM195.378 39.152H199.157V40.0753H195.378V39.152ZM205.479 36.6378C205.441 36.3016 205.284 36.0412 205.01 35.8565C204.735 35.6695 204.39 35.576 203.973 35.576C203.675 35.576 203.416 35.6233 203.199 35.718C202.981 35.8104 202.812 35.9382 202.691 36.1016C202.573 36.2625 202.513 36.446 202.513 36.652C202.513 36.8248 202.554 36.974 202.634 37.0994C202.717 37.2249 202.825 37.3303 202.957 37.4155C203.092 37.4983 203.237 37.5682 203.39 37.625C203.544 37.6795 203.692 37.7244 203.834 37.7599L204.545 37.9446C204.777 38.0014 205.015 38.0784 205.258 38.1754C205.502 38.2725 205.728 38.4003 205.937 38.5589C206.145 38.7176 206.313 38.9141 206.441 39.1484C206.571 39.3828 206.636 39.6634 206.636 39.9901C206.636 40.402 206.53 40.7678 206.317 41.0874C206.106 41.407 205.799 41.6591 205.397 41.8438C204.997 42.0284 204.513 42.1207 203.944 42.1207C203.4 42.1207 202.929 42.0343 202.531 41.8615C202.133 41.6887 201.822 41.4437 201.597 41.1264C201.372 40.8068 201.248 40.428 201.224 39.9901H202.325C202.346 40.2528 202.432 40.4718 202.581 40.647C202.732 40.8198 202.925 40.9489 203.16 41.0341C203.396 41.117 203.656 41.1584 203.937 41.1584C204.247 41.1584 204.523 41.1098 204.765 41.0128C205.009 40.9134 205.2 40.776 205.34 40.6009C205.48 40.4233 205.55 40.2161 205.55 39.9794C205.55 39.764 205.488 39.5876 205.365 39.4503C205.244 39.313 205.08 39.1993 204.871 39.1094C204.665 39.0194 204.432 38.9401 204.172 38.8714L203.312 38.6371C202.73 38.4785 202.268 38.2453 201.927 37.9375C201.589 37.6297 201.42 37.2225 201.42 36.7159C201.42 36.2969 201.533 35.9311 201.76 35.6186C201.988 35.3061 202.296 35.0634 202.684 34.8906C203.072 34.7154 203.51 34.6278 203.998 34.6278C204.49 34.6278 204.925 34.7143 205.301 34.8871C205.68 35.0599 205.978 35.2978 206.196 35.6009C206.414 35.9015 206.527 36.2472 206.537 36.6378H205.479Z" fill="#0C0C0D"/>
<path d="M170.07 56.6H166.024L165.926 58.742C166.085 58.6953 166.271 58.6627 166.486 58.644C166.71 58.6253 166.911 58.616 167.088 58.616C167.573 58.616 168.021 58.686 168.432 58.826C168.852 58.966 169.216 59.1713 169.524 59.442C169.832 59.7033 170.07 60.03 170.238 60.422C170.415 60.8047 170.504 61.248 170.504 61.752C170.504 62.3027 170.406 62.7973 170.21 63.236C170.023 63.6653 169.767 64.0293 169.44 64.328C169.113 64.6267 168.731 64.8553 168.292 65.014C167.853 65.1727 167.387 65.252 166.892 65.252C166.061 65.252 165.361 65.0607 164.792 64.678C164.223 64.286 163.807 63.754 163.546 63.082L165.072 62.522C165.212 62.914 165.445 63.2313 165.772 63.474C166.099 63.7073 166.486 63.824 166.934 63.824C167.186 63.824 167.424 63.782 167.648 63.698C167.872 63.614 168.068 63.4927 168.236 63.334C168.404 63.1753 168.535 62.9793 168.628 62.746C168.731 62.5033 168.782 62.2327 168.782 61.934C168.782 61.5513 168.717 61.234 168.586 60.982C168.455 60.73 168.283 60.5293 168.068 60.38C167.863 60.2213 167.629 60.114 167.368 60.058C167.107 59.9927 166.841 59.96 166.57 59.96C166.383 59.96 166.183 59.974 165.968 60.002C165.763 60.03 165.557 60.072 165.352 60.128C165.156 60.1747 164.96 60.2307 164.764 60.296C164.577 60.3613 164.409 60.4313 164.26 60.506L164.428 55.088H170.07V56.6ZM172.861 63.068H174.485L173.295 66.764H171.881L172.861 63.068ZM178.15 59.162H178.598C178.85 59.162 179.097 59.1433 179.34 59.106C179.592 59.0593 179.82 58.98 180.026 58.868C180.231 58.756 180.394 58.6067 180.516 58.42C180.646 58.224 180.712 57.972 180.712 57.664C180.712 57.44 180.67 57.2393 180.586 57.062C180.502 56.8847 180.385 56.7353 180.236 56.614C180.096 56.4927 179.928 56.3993 179.732 56.334C179.545 56.2687 179.349 56.236 179.144 56.236C178.733 56.236 178.392 56.3527 178.122 56.586C177.851 56.8193 177.664 57.1273 177.562 57.51L175.98 57.104C176.064 56.768 176.204 56.4647 176.4 56.194C176.605 55.914 176.848 55.676 177.128 55.48C177.417 55.2747 177.739 55.116 178.094 55.004C178.448 54.892 178.822 54.836 179.214 54.836C179.643 54.836 180.049 54.8967 180.432 55.018C180.824 55.13 181.164 55.3027 181.454 55.536C181.752 55.76 181.986 56.04 182.154 56.376C182.322 56.712 182.406 57.104 182.406 57.552C182.406 58.084 182.242 58.56 181.916 58.98C181.598 59.3907 181.169 59.6613 180.628 59.792V59.82C181.234 59.9413 181.724 60.2167 182.098 60.646C182.48 61.066 182.672 61.584 182.672 62.2C182.672 62.7133 182.569 63.1613 182.364 63.544C182.168 63.9267 181.902 64.244 181.566 64.496C181.239 64.748 180.87 64.9347 180.46 65.056C180.049 65.1867 179.634 65.252 179.214 65.252C178.794 65.252 178.397 65.2053 178.024 65.112C177.65 65.028 177.305 64.8927 176.988 64.706C176.68 64.5193 176.404 64.2767 176.162 63.978C175.928 63.6793 175.746 63.3247 175.616 62.914L177.184 62.424C177.305 62.816 177.529 63.1473 177.856 63.418C178.192 63.6887 178.626 63.824 179.158 63.824C179.372 63.824 179.587 63.796 179.802 63.74C180.026 63.6747 180.222 63.5767 180.39 63.446C180.567 63.3153 180.707 63.1473 180.81 62.942C180.922 62.7367 180.978 62.4847 180.978 62.186C180.978 61.8687 180.898 61.6027 180.74 61.388C180.59 61.164 180.399 60.9913 180.166 60.87C179.932 60.7393 179.671 60.646 179.382 60.59C179.102 60.534 178.831 60.506 178.57 60.506H178.15V59.162ZM184.693 63.46L188.515 59.708C188.823 59.4093 189.065 59.1107 189.243 58.812C189.429 58.504 189.523 58.154 189.523 57.762C189.523 57.2953 189.369 56.9267 189.061 56.656C188.762 56.376 188.389 56.236 187.941 56.236C187.465 56.236 187.082 56.3993 186.793 56.726C186.503 57.0433 186.326 57.4447 186.261 57.93L184.623 57.678C184.669 57.2673 184.786 56.8893 184.973 56.544C185.159 56.1987 185.397 55.9 185.687 55.648C185.976 55.396 186.312 55.2 186.695 55.06C187.087 54.9107 187.511 54.836 187.969 54.836C188.398 54.836 188.809 54.8967 189.201 55.018C189.602 55.1393 189.957 55.326 190.265 55.578C190.573 55.8207 190.815 56.124 190.993 56.488C191.179 56.8427 191.273 57.258 191.273 57.734C191.273 58.0513 191.231 58.35 191.147 58.63C191.063 58.9007 190.946 59.1573 190.797 59.4C190.657 59.6427 190.489 59.876 190.293 60.1C190.106 60.3147 189.901 60.5247 189.677 60.73L186.821 63.46H191.287V65H184.693V63.46Z" fill="#7A18F6"/>
<path d="M200.24 63.44H198.32V62.624H200.24V63.44ZM202.795 60.504L201.675 61.424L201.115 60.76L202.883 59.336H203.755V65H202.795V60.504ZM205.853 59.336H209.701V60.216L207.437 65H206.309L208.693 60.2H205.853V59.336ZM210.728 64.44C210.728 64.2693 210.789 64.1227 210.912 64C211.04 63.8773 211.192 63.816 211.368 63.816C211.539 63.816 211.688 63.8747 211.816 63.992C211.944 64.1093 212.008 64.2533 212.008 64.424C212.008 64.5947 211.944 64.7413 211.816 64.864C211.693 64.9867 211.544 65.048 211.368 65.048C211.283 65.048 211.2 65.032 211.12 65C211.045 64.968 210.979 64.9253 210.92 64.872C210.861 64.8187 210.813 64.7547 210.776 64.68C210.744 64.6053 210.728 64.5253 210.728 64.44ZM213.75 65L215.206 62.896L215.198 62.888C215.118 62.9253 215.02 62.952 214.902 62.968C214.79 62.984 214.686 62.992 214.59 62.992C214.34 62.992 214.105 62.9467 213.886 62.856C213.668 62.76 213.476 62.632 213.31 62.472C213.145 62.3067 213.014 62.1147 212.918 61.896C212.828 61.672 212.782 61.432 212.782 61.176C212.782 60.8773 212.836 60.6053 212.942 60.36C213.049 60.1147 213.193 59.9067 213.374 59.736C213.561 59.56 213.78 59.4267 214.03 59.336C214.286 59.24 214.558 59.192 214.846 59.192C215.14 59.192 215.412 59.2427 215.662 59.344C215.918 59.44 216.14 59.576 216.326 59.752C216.513 59.928 216.657 60.136 216.758 60.376C216.865 60.6107 216.918 60.864 216.918 61.136C216.918 61.296 216.905 61.448 216.878 61.592C216.852 61.7307 216.812 61.8667 216.758 62C216.71 62.128 216.649 62.2587 216.574 62.392C216.505 62.5253 216.425 62.664 216.334 62.808L214.918 65H213.75ZM215.942 61.112C215.942 60.9627 215.916 60.8213 215.862 60.688C215.814 60.5547 215.742 60.4373 215.646 60.336C215.55 60.2293 215.436 60.1467 215.302 60.088C215.169 60.024 215.02 59.992 214.854 59.992C214.529 59.992 214.265 60.0987 214.062 60.312C213.865 60.52 213.766 60.792 213.766 61.128C213.766 61.288 213.79 61.4373 213.838 61.576C213.892 61.7093 213.966 61.824 214.062 61.92C214.158 62.016 214.27 62.0933 214.398 62.152C214.532 62.2053 214.678 62.232 214.838 62.232C214.998 62.232 215.145 62.2053 215.278 62.152C215.417 62.0987 215.534 62.024 215.63 61.928C215.732 61.8267 215.809 61.7067 215.862 61.568C215.916 61.4293 215.942 61.2773 215.942 61.112ZM221.433 63.608C221.433 63.4 221.47 63.208 221.545 63.032C221.625 62.8507 221.732 62.6933 221.865 62.56C222.004 62.4213 222.161 62.3147 222.337 62.24C222.518 62.16 222.713 62.12 222.921 62.12C223.129 62.12 223.321 62.16 223.497 62.24C223.678 62.3147 223.836 62.4213 223.969 62.56C224.108 62.6933 224.214 62.8507 224.289 63.032C224.369 63.208 224.409 63.4 224.409 63.608C224.409 63.816 224.369 64.0107 224.289 64.192C224.214 64.368 224.108 64.5253 223.969 64.664C223.836 64.7973 223.678 64.904 223.497 64.984C223.321 65.0587 223.129 65.096 222.921 65.096C222.713 65.096 222.518 65.0587 222.337 64.984C222.161 64.904 222.004 64.7973 221.865 64.664C221.732 64.5253 221.625 64.368 221.545 64.192C221.47 64.0107 221.433 63.816 221.433 63.608ZM223.641 63.608C223.641 63.4053 223.572 63.2347 223.433 63.096C223.294 62.9573 223.124 62.888 222.921 62.888C222.718 62.888 222.548 62.9573 222.409 63.096C222.27 63.2347 222.201 63.4053 222.201 63.608C222.201 63.8107 222.27 63.9813 222.409 64.12C222.548 64.2587 222.718 64.328 222.921 64.328C223.124 64.328 223.294 64.2587 223.433 64.12C223.572 63.9813 223.641 63.8107 223.641 63.608ZM217.609 60.728C217.609 60.52 217.646 60.328 217.721 60.152C217.801 59.9707 217.908 59.8133 218.041 59.68C218.18 59.5413 218.337 59.4347 218.513 59.36C218.694 59.28 218.889 59.24 219.097 59.24C219.305 59.24 219.497 59.28 219.673 59.36C219.854 59.4347 220.012 59.5413 220.145 59.68C220.284 59.8133 220.39 59.9707 220.465 60.152C220.545 60.328 220.585 60.52 220.585 60.728C220.585 60.936 220.545 61.1307 220.465 61.312C220.39 61.488 220.284 61.6453 220.145 61.784C220.012 61.9173 219.854 62.024 219.673 62.104C219.497 62.1787 219.305 62.216 219.097 62.216C218.889 62.216 218.694 62.1787 218.513 62.104C218.337 62.024 218.18 61.9173 218.041 61.784C217.908 61.6453 217.801 61.488 217.721 61.312C217.646 61.1307 217.609 60.936 217.609 60.728ZM219.817 60.728C219.817 60.5253 219.748 60.3547 219.609 60.216C219.47 60.0773 219.3 60.008 219.097 60.008C218.894 60.008 218.724 60.0773 218.585 60.216C218.446 60.3547 218.377 60.5253 218.377 60.728C218.377 60.9307 218.446 61.1013 218.585 61.24C218.724 61.3787 218.894 61.448 219.097 61.448C219.3 61.448 219.47 61.3787 219.609 61.24C219.748 61.1013 219.817 60.9307 219.817 60.728ZM222.337 59.08L223.001 59.384L219.673 65.256L219.009 64.952L222.337 59.08Z" fill="#FA670E"/>
<path d="M71.2 143.168H71.636L72.856 146H72.28L72.016 145.352H70.788L70.532 146H69.968L71.2 143.168ZM71.84 144.92L71.404 143.768L70.96 144.92H71.84ZM73.5722 144.08V144.348H73.5842C73.6082 144.311 73.6389 144.273 73.6762 144.236C73.7162 144.196 73.7642 144.161 73.8202 144.132C73.8762 144.1 73.9389 144.075 74.0082 144.056C74.0802 144.035 74.1602 144.024 74.2482 144.024C74.3842 144.024 74.5096 144.051 74.6242 144.104C74.7389 144.155 74.8376 144.225 74.9202 144.316C75.0029 144.407 75.0669 144.513 75.1122 144.636C75.1576 144.759 75.1802 144.891 75.1802 145.032C75.1802 145.173 75.1576 145.307 75.1122 145.432C75.0696 145.555 75.0069 145.663 74.9242 145.756C74.8442 145.847 74.7456 145.92 74.6282 145.976C74.5136 146.029 74.3829 146.056 74.2362 146.056C74.1002 146.056 73.9749 146.028 73.8602 145.972C73.7482 145.916 73.6616 145.84 73.6002 145.744H73.5922V146.96H73.1122V144.08H73.5722ZM74.6922 145.032C74.6922 144.957 74.6802 144.884 74.6562 144.812C74.6349 144.737 74.6016 144.671 74.5562 144.612C74.5109 144.553 74.4536 144.507 74.3842 144.472C74.3149 144.435 74.2336 144.416 74.1402 144.416C74.0522 144.416 73.9736 144.435 73.9042 144.472C73.8349 144.509 73.7749 144.557 73.7242 144.616C73.6762 144.675 73.6389 144.741 73.6122 144.816C73.5882 144.891 73.5762 144.965 73.5762 145.04C73.5762 145.115 73.5882 145.189 73.6122 145.264C73.6389 145.336 73.6762 145.401 73.7242 145.46C73.7749 145.519 73.8349 145.567 73.9042 145.604C73.9736 145.639 74.0522 145.656 74.1402 145.656C74.2336 145.656 74.3149 145.637 74.3842 145.6C74.4536 145.563 74.5109 145.515 74.5562 145.456C74.6016 145.397 74.6349 145.331 74.6562 145.256C74.6802 145.181 74.6922 145.107 74.6922 145.032ZM75.6435 144.08H76.1035V144.4H76.1115C76.1648 144.288 76.2395 144.197 76.3355 144.128C76.4315 144.059 76.5435 144.024 76.6715 144.024C76.6901 144.024 76.7101 144.025 76.7315 144.028C76.7528 144.028 76.7715 144.031 76.7875 144.036V144.476C76.7555 144.468 76.7275 144.463 76.7035 144.46C76.6821 144.457 76.6608 144.456 76.6395 144.456C76.5301 144.456 76.4421 144.476 76.3755 144.516C76.3088 144.556 76.2568 144.604 76.2195 144.66C76.1821 144.716 76.1568 144.773 76.1435 144.832C76.1301 144.891 76.1235 144.937 76.1235 144.972V146H75.6435V144.08ZM76.8211 145.72C76.8211 145.635 76.8518 145.561 76.9131 145.5C76.9771 145.439 77.0531 145.408 77.1411 145.408C77.2264 145.408 77.3011 145.437 77.3651 145.496C77.4291 145.555 77.4611 145.627 77.4611 145.712C77.4611 145.797 77.4291 145.871 77.3651 145.932C77.3038 145.993 77.2291 146.024 77.1411 146.024C77.0984 146.024 77.0571 146.016 77.0171 146C76.9798 145.984 76.9464 145.963 76.9171 145.936C76.8878 145.909 76.8638 145.877 76.8451 145.84C76.8291 145.803 76.8211 145.763 76.8211 145.72Z" fill="#0C0C0D"/>
<path d="M110.312 143.168H111.1L111.836 145.18H111.848L112.576 143.168H113.368V146H112.868V143.724H112.86L112 146H111.648L110.8 143.724H110.792V146H110.312V143.168ZM115.16 145.756H115.148C115.1 145.841 115.022 145.912 114.916 145.968C114.809 146.021 114.688 146.048 114.552 146.048C114.474 146.048 114.393 146.037 114.308 146.016C114.225 145.997 114.148 145.965 114.076 145.92C114.006 145.872 113.948 145.811 113.9 145.736C113.854 145.659 113.832 145.564 113.832 145.452C113.832 145.308 113.872 145.193 113.952 145.108C114.034 145.023 114.14 144.957 114.268 144.912C114.396 144.867 114.537 144.837 114.692 144.824C114.849 144.808 115.002 144.8 115.152 144.8V144.752C115.152 144.632 115.108 144.544 115.02 144.488C114.934 144.429 114.832 144.4 114.712 144.4C114.61 144.4 114.513 144.421 114.42 144.464C114.326 144.507 114.249 144.559 114.188 144.62L113.94 144.328C114.049 144.227 114.174 144.151 114.316 144.1C114.46 144.049 114.605 144.024 114.752 144.024C114.922 144.024 115.062 144.048 115.172 144.096C115.284 144.144 115.372 144.207 115.436 144.284C115.5 144.361 115.544 144.448 115.568 144.544C115.594 144.64 115.608 144.736 115.608 144.832V146H115.16V145.756ZM115.152 145.124H115.044C114.966 145.124 114.885 145.128 114.8 145.136C114.714 145.141 114.636 145.156 114.564 145.18C114.492 145.201 114.432 145.233 114.384 145.276C114.336 145.316 114.312 145.372 114.312 145.444C114.312 145.489 114.321 145.528 114.34 145.56C114.361 145.589 114.388 145.613 114.42 145.632C114.452 145.651 114.488 145.664 114.528 145.672C114.568 145.68 114.608 145.684 114.648 145.684C114.813 145.684 114.938 145.64 115.024 145.552C115.109 145.464 115.152 145.344 115.152 145.192V145.124ZM115.879 144.08H116.411L116.947 145.476H116.955L117.431 144.08H117.931L117.023 146.412C116.988 146.5 116.951 146.577 116.911 146.644C116.871 146.713 116.823 146.771 116.767 146.816C116.711 146.864 116.644 146.9 116.567 146.924C116.492 146.948 116.402 146.96 116.295 146.96C116.255 146.96 116.214 146.957 116.171 146.952C116.131 146.949 116.09 146.943 116.047 146.932L116.087 146.516C116.119 146.527 116.15 146.533 116.179 146.536C116.211 146.541 116.24 146.544 116.267 146.544C116.318 146.544 116.36 146.537 116.395 146.524C116.43 146.513 116.459 146.495 116.483 146.468C116.507 146.444 116.528 146.413 116.547 146.376C116.566 146.339 116.586 146.295 116.607 146.244L116.703 146L115.879 144.08Z" fill="#0C0C0D"/>
<path d="M151.704 145.084C151.704 145.188 151.692 145.297 151.668 145.412C151.647 145.527 151.605 145.633 151.544 145.732C151.483 145.831 151.396 145.912 151.284 145.976C151.172 146.04 151.028 146.072 150.852 146.072C150.623 146.072 150.439 146.015 150.3 145.9C150.164 145.785 150.071 145.635 150.02 145.448L150.484 145.316C150.508 145.409 150.552 145.484 150.616 145.54C150.68 145.593 150.756 145.62 150.844 145.62C150.916 145.62 150.975 145.607 151.02 145.58C151.068 145.553 151.104 145.516 151.128 145.468C151.155 145.417 151.173 145.359 151.184 145.292C151.195 145.223 151.2 145.148 151.2 145.068V143.168H151.704V145.084ZM154.032 146H153.576V145.692H153.568C153.526 145.788 153.451 145.873 153.344 145.948C153.24 146.02 153.116 146.056 152.972 146.056C152.847 146.056 152.739 146.035 152.648 145.992C152.56 145.947 152.487 145.888 152.428 145.816C152.372 145.744 152.331 145.661 152.304 145.568C152.278 145.475 152.264 145.379 152.264 145.28V144.08H152.744V145.144C152.744 145.2 152.748 145.259 152.756 145.32C152.764 145.381 152.782 145.437 152.808 145.488C152.835 145.536 152.871 145.576 152.916 145.608C152.964 145.64 153.027 145.656 153.104 145.656C153.179 145.656 153.244 145.641 153.3 145.612C153.359 145.58 153.406 145.54 153.44 145.492C153.478 145.444 153.506 145.389 153.524 145.328C153.543 145.264 153.552 145.2 153.552 145.136V144.08H154.032V146ZM154.608 144.08H155.064V144.388H155.072C155.115 144.292 155.188 144.208 155.292 144.136C155.399 144.061 155.524 144.024 155.668 144.024C155.794 144.024 155.9 144.047 155.988 144.092C156.079 144.135 156.152 144.192 156.208 144.264C156.267 144.336 156.31 144.419 156.336 144.512C156.363 144.605 156.376 144.701 156.376 144.8V146H155.896V144.936C155.896 144.88 155.892 144.821 155.884 144.76C155.876 144.699 155.859 144.644 155.832 144.596C155.806 144.545 155.768 144.504 155.72 144.472C155.675 144.44 155.614 144.424 155.536 144.424C155.459 144.424 155.392 144.44 155.336 144.472C155.28 144.501 155.234 144.54 155.196 144.588C155.162 144.636 155.135 144.692 155.116 144.756C155.098 144.817 155.088 144.88 155.088 144.944V146H154.608V144.08ZM156.848 145.72C156.848 145.635 156.879 145.561 156.94 145.5C157.004 145.439 157.08 145.408 157.168 145.408C157.254 145.408 157.328 145.437 157.392 145.496C157.456 145.555 157.488 145.627 157.488 145.712C157.488 145.797 157.456 145.871 157.392 145.932C157.331 145.993 157.256 146.024 157.168 146.024C157.126 146.024 157.084 146.016 157.044 146C157.007 145.984 156.974 145.963 156.944 145.936C156.915 145.909 156.891 145.877 156.872 145.84C156.856 145.803 156.848 145.763 156.848 145.72Z" fill="#0C0C0D"/>
<path d="M191.704 145.084C191.704 145.188 191.692 145.297 191.668 145.412C191.647 145.527 191.605 145.633 191.544 145.732C191.483 145.831 191.396 145.912 191.284 145.976C191.172 146.04 191.028 146.072 190.852 146.072C190.623 146.072 190.439 146.015 190.3 145.9C190.164 145.785 190.071 145.635 190.02 145.448L190.484 145.316C190.508 145.409 190.552 145.484 190.616 145.54C190.68 145.593 190.756 145.62 190.844 145.62C190.916 145.62 190.975 145.607 191.02 145.58C191.068 145.553 191.104 145.516 191.128 145.468C191.155 145.417 191.173 145.359 191.184 145.292C191.195 145.223 191.2 145.148 191.2 145.068V143.168H191.704V145.084ZM194.032 146H193.576V145.692H193.568C193.526 145.788 193.451 145.873 193.344 145.948C193.24 146.02 193.116 146.056 192.972 146.056C192.847 146.056 192.739 146.035 192.648 145.992C192.56 145.947 192.487 145.888 192.428 145.816C192.372 145.744 192.331 145.661 192.304 145.568C192.278 145.475 192.264 145.379 192.264 145.28V144.08H192.744V145.144C192.744 145.2 192.748 145.259 192.756 145.32C192.764 145.381 192.782 145.437 192.808 145.488C192.835 145.536 192.871 145.576 192.916 145.608C192.964 145.64 193.027 145.656 193.104 145.656C193.179 145.656 193.244 145.641 193.3 145.612C193.359 145.58 193.406 145.54 193.44 145.492C193.478 145.444 193.506 145.389 193.524 145.328C193.543 145.264 193.552 145.2 193.552 145.136V144.08H194.032V146ZM194.616 142.976H195.096V146H194.616V142.976ZM195.591 145.72C195.591 145.635 195.621 145.561 195.683 145.5C195.747 145.439 195.823 145.408 195.911 145.408C195.996 145.408 196.071 145.437 196.135 145.496C196.199 145.555 196.231 145.627 196.231 145.712C196.231 145.797 196.199 145.871 196.135 145.932C196.073 145.993 195.999 146.024 195.911 146.024C195.868 146.024 195.827 146.016 195.787 146C195.749 145.984 195.716 145.963 195.687 145.936C195.657 145.909 195.633 145.877 195.615 145.84C195.599 145.803 195.591 145.763 195.591 145.72Z" fill="#0C0C0D"/>
<path d="M231.2 143.168H231.636L232.856 146H232.28L232.016 145.352H230.788L230.532 146H229.968L231.2 143.168ZM231.84 144.92L231.404 143.768L230.96 144.92H231.84ZM234.864 146H234.408V145.692H234.4C234.358 145.788 234.283 145.873 234.176 145.948C234.072 146.02 233.948 146.056 233.804 146.056C233.679 146.056 233.571 146.035 233.48 145.992C233.392 145.947 233.319 145.888 233.26 145.816C233.204 145.744 233.163 145.661 233.136 145.568C233.11 145.475 233.096 145.379 233.096 145.28V144.08H233.576V145.144C233.576 145.2 233.58 145.259 233.588 145.32C233.596 145.381 233.614 145.437 233.64 145.488C233.667 145.536 233.703 145.576 233.748 145.608C233.796 145.64 233.859 145.656 233.936 145.656C234.011 145.656 234.076 145.641 234.132 145.612C234.191 145.58 234.238 145.54 234.272 145.492C234.31 145.444 234.338 145.389 234.356 145.328C234.375 145.264 234.384 145.2 234.384 145.136V144.08H234.864V146ZM237.392 144.08V145.828C237.392 146.001 237.371 146.157 237.328 146.296C237.286 146.437 237.219 146.556 237.128 146.652C237.04 146.751 236.928 146.827 236.792 146.88C236.656 146.933 236.495 146.96 236.308 146.96C236.231 146.96 236.148 146.953 236.06 146.94C235.975 146.927 235.89 146.907 235.804 146.88C235.722 146.853 235.642 146.82 235.564 146.78C235.487 146.74 235.418 146.695 235.356 146.644L235.632 146.272C235.726 146.36 235.831 146.427 235.948 146.472C236.066 146.52 236.184 146.544 236.304 146.544C236.419 146.544 236.515 146.527 236.592 146.492C236.672 146.46 236.735 146.415 236.78 146.356C236.828 146.297 236.862 146.228 236.88 146.148C236.902 146.068 236.912 145.98 236.912 145.884V145.744H236.904C236.835 145.837 236.746 145.909 236.636 145.96C236.53 146.008 236.41 146.032 236.276 146.032C236.132 146.032 236.002 146.005 235.884 145.952C235.767 145.899 235.667 145.827 235.584 145.736C235.504 145.645 235.442 145.54 235.396 145.42C235.351 145.297 235.328 145.168 235.328 145.032C235.328 144.893 235.35 144.763 235.392 144.64C235.438 144.517 235.5 144.411 235.58 144.32C235.663 144.229 235.762 144.157 235.876 144.104C235.994 144.051 236.124 144.024 236.268 144.024C236.404 144.024 236.531 144.052 236.648 144.108C236.766 144.164 236.859 144.251 236.928 144.368H236.936V144.08H237.392ZM236.368 144.416C236.28 144.416 236.202 144.432 236.132 144.464C236.066 144.496 236.008 144.54 235.96 144.596C235.915 144.649 235.879 144.713 235.852 144.788C235.828 144.863 235.816 144.943 235.816 145.028C235.816 145.105 235.828 145.18 235.852 145.252C235.879 145.324 235.915 145.389 235.96 145.448C236.008 145.504 236.066 145.549 236.132 145.584C236.202 145.619 236.279 145.636 236.364 145.636C236.452 145.636 236.531 145.62 236.6 145.588C236.672 145.553 236.732 145.508 236.78 145.452C236.831 145.396 236.87 145.332 236.896 145.26C236.923 145.185 236.936 145.108 236.936 145.028C236.936 144.945 236.923 144.867 236.896 144.792C236.87 144.717 236.831 144.652 236.78 144.596C236.732 144.54 236.674 144.496 236.604 144.464C236.535 144.432 236.456 144.416 236.368 144.416ZM237.88 145.72C237.88 145.635 237.91 145.561 237.972 145.5C238.036 145.439 238.112 145.408 238.2 145.408C238.285 145.408 238.36 145.437 238.424 145.496C238.488 145.555 238.52 145.627 238.52 145.712C238.52 145.797 238.488 145.871 238.424 145.932C238.362 145.993 238.288 146.024 238.2 146.024C238.157 146.024 238.116 146.016 238.076 146C238.038 145.984 238.005 145.963 237.976 145.936C237.946 145.909 237.922 145.877 237.904 145.84C237.888 145.803 237.88 145.763 237.88 145.72Z" fill="#0C0C0D"/>
<path d="M270.756 143.76C270.703 143.691 270.627 143.633 270.528 143.588C270.432 143.54 270.335 143.516 270.236 143.516C270.177 143.516 270.119 143.524 270.06 143.54C270.001 143.553 269.948 143.576 269.9 143.608C269.852 143.637 269.812 143.677 269.78 143.728C269.751 143.776 269.736 143.835 269.736 143.904C269.736 143.968 269.749 144.023 269.776 144.068C269.803 144.113 269.839 144.152 269.884 144.184C269.932 144.216 269.989 144.244 270.056 144.268C270.123 144.292 270.196 144.316 270.276 144.34C270.367 144.369 270.46 144.403 270.556 144.44C270.655 144.477 270.744 144.527 270.824 144.588C270.907 144.649 270.973 144.727 271.024 144.82C271.077 144.913 271.104 145.029 271.104 145.168C271.104 145.32 271.076 145.453 271.02 145.568C270.964 145.68 270.889 145.773 270.796 145.848C270.703 145.923 270.593 145.979 270.468 146.016C270.343 146.053 270.211 146.072 270.072 146.072C269.888 146.072 269.708 146.039 269.532 145.972C269.356 145.903 269.212 145.801 269.1 145.668L269.46 145.332C269.529 145.428 269.621 145.504 269.736 145.56C269.853 145.616 269.968 145.644 270.08 145.644C270.139 145.644 270.199 145.637 270.26 145.624C270.321 145.608 270.376 145.583 270.424 145.548C270.475 145.513 270.515 145.471 270.544 145.42C270.576 145.367 270.592 145.301 270.592 145.224C270.592 145.149 270.575 145.088 270.54 145.04C270.505 144.989 270.459 144.947 270.4 144.912C270.341 144.875 270.272 144.843 270.192 144.816C270.112 144.789 270.028 144.761 269.94 144.732C269.855 144.705 269.769 144.673 269.684 144.636C269.599 144.599 269.521 144.549 269.452 144.488C269.385 144.427 269.331 144.352 269.288 144.264C269.245 144.173 269.224 144.061 269.224 143.928C269.224 143.784 269.253 143.66 269.312 143.556C269.373 143.452 269.452 143.367 269.548 143.3C269.647 143.231 269.757 143.18 269.88 143.148C270.005 143.113 270.132 143.096 270.26 143.096C270.404 143.096 270.549 143.121 270.696 143.172C270.845 143.223 270.975 143.299 271.084 143.4L270.756 143.76ZM272.937 144.848C272.937 144.787 272.928 144.728 272.909 144.672C272.893 144.616 272.866 144.567 272.829 144.524C272.792 144.481 272.744 144.448 272.685 144.424C272.629 144.397 272.562 144.384 272.485 144.384C272.341 144.384 272.218 144.428 272.117 144.516C272.018 144.601 271.964 144.712 271.953 144.848H272.937ZM273.417 145.064C273.417 145.085 273.417 145.107 273.417 145.128C273.417 145.149 273.416 145.171 273.413 145.192H271.953C271.958 145.261 271.976 145.325 272.005 145.384C272.037 145.44 272.078 145.489 272.129 145.532C272.18 145.572 272.237 145.604 272.301 145.628C272.365 145.652 272.432 145.664 272.501 145.664C272.621 145.664 272.722 145.643 272.805 145.6C272.888 145.555 272.956 145.493 273.009 145.416L273.329 145.672C273.14 145.928 272.865 146.056 272.505 146.056C272.356 146.056 272.218 146.033 272.093 145.988C271.968 145.94 271.858 145.873 271.765 145.788C271.674 145.703 271.602 145.599 271.549 145.476C271.498 145.351 271.473 145.209 271.473 145.052C271.473 144.897 271.498 144.757 271.549 144.632C271.602 144.504 271.674 144.396 271.765 144.308C271.856 144.217 271.962 144.148 272.085 144.1C272.21 144.049 272.345 144.024 272.489 144.024C272.622 144.024 272.745 144.047 272.857 144.092C272.972 144.135 273.07 144.2 273.153 144.288C273.236 144.373 273.3 144.481 273.345 144.612C273.393 144.74 273.417 144.891 273.417 145.064ZM274.342 144.08V144.348H274.354C274.378 144.311 274.408 144.273 274.446 144.236C274.486 144.196 274.534 144.161 274.59 144.132C274.646 144.1 274.708 144.075 274.778 144.056C274.85 144.035 274.93 144.024 275.018 144.024C275.154 144.024 275.279 144.051 275.394 144.104C275.508 144.155 275.607 144.225 275.69 144.316C275.772 144.407 275.836 144.513 275.882 144.636C275.927 144.759 275.95 144.891 275.95 145.032C275.95 145.173 275.927 145.307 275.882 145.432C275.839 145.555 275.776 145.663 275.694 145.756C275.614 145.847 275.515 145.92 275.398 145.976C275.283 146.029 275.152 146.056 275.006 146.056C274.87 146.056 274.744 146.028 274.63 145.972C274.518 145.916 274.431 145.84 274.37 145.744H274.362V146.96H273.882V144.08H274.342ZM275.462 145.032C275.462 144.957 275.45 144.884 275.426 144.812C275.404 144.737 275.371 144.671 275.326 144.612C275.28 144.553 275.223 144.507 275.154 144.472C275.084 144.435 275.003 144.416 274.91 144.416C274.822 144.416 274.743 144.435 274.674 144.472C274.604 144.509 274.544 144.557 274.494 144.616C274.446 144.675 274.408 144.741 274.382 144.816C274.358 144.891 274.346 144.965 274.346 145.04C274.346 145.115 274.358 145.189 274.382 145.264C274.408 145.336 274.446 145.401 274.494 145.46C274.544 145.519 274.604 145.567 274.674 145.604C274.743 145.639 274.822 145.656 274.91 145.656C275.003 145.656 275.084 145.637 275.154 145.6C275.223 145.563 275.28 145.515 275.326 145.456C275.371 145.397 275.404 145.331 275.426 145.256C275.45 145.181 275.462 145.107 275.462 145.032ZM276.137 144.464V144.08H276.473V143.524H276.945V144.08H277.425V144.464H276.945V145.356C276.945 145.441 276.96 145.512 276.989 145.568C277.021 145.624 277.09 145.652 277.197 145.652C277.229 145.652 277.264 145.649 277.301 145.644C277.338 145.636 277.372 145.625 277.401 145.612L277.417 145.988C277.374 146.004 277.324 146.016 277.265 146.024C277.206 146.035 277.15 146.04 277.097 146.04C276.969 146.04 276.865 146.023 276.785 145.988C276.705 145.951 276.641 145.901 276.593 145.84C276.548 145.776 276.516 145.704 276.497 145.624C276.481 145.541 276.473 145.453 276.473 145.36V144.464H276.137ZM277.684 145.72C277.684 145.635 277.715 145.561 277.776 145.5C277.84 145.439 277.916 145.408 278.004 145.408C278.09 145.408 278.164 145.437 278.228 145.496C278.292 145.555 278.324 145.627 278.324 145.712C278.324 145.797 278.292 145.871 278.228 145.932C278.167 145.993 278.092 146.024 278.004 146.024C277.962 146.024 277.92 146.016 277.88 146C277.843 145.984 277.81 145.963 277.78 145.936C277.751 145.909 277.727 145.877 277.708 145.84C277.692 145.803 277.684 145.763 277.684 145.72Z" fill="#0C0C0D"/>
<path d="M310.176 144.576C310.176 144.349 310.213 144.145 310.288 143.964C310.365 143.78 310.471 143.624 310.604 143.496C310.74 143.368 310.9 143.269 311.084 143.2C311.271 143.131 311.473 143.096 311.692 143.096C311.913 143.096 312.117 143.131 312.304 143.2C312.491 143.269 312.652 143.368 312.788 143.496C312.924 143.624 313.029 143.78 313.104 143.964C313.181 144.145 313.22 144.349 313.22 144.576C313.22 144.797 313.181 145 313.104 145.184C313.029 145.365 312.924 145.523 312.788 145.656C312.652 145.787 312.491 145.889 312.304 145.964C312.117 146.036 311.913 146.072 311.692 146.072C311.473 146.072 311.271 146.036 311.084 145.964C310.9 145.889 310.74 145.787 310.604 145.656C310.471 145.523 310.365 145.365 310.288 145.184C310.213 145 310.176 144.797 310.176 144.576ZM310.724 144.576C310.724 144.728 310.747 144.868 310.792 144.996C310.84 145.121 310.907 145.231 310.992 145.324C311.08 145.417 311.183 145.491 311.3 145.544C311.42 145.595 311.552 145.62 311.696 145.62C311.84 145.62 311.972 145.595 312.092 145.544C312.212 145.491 312.315 145.417 312.4 145.324C312.488 145.231 312.555 145.121 312.6 144.996C312.648 144.868 312.672 144.728 312.672 144.576C312.672 144.429 312.648 144.293 312.6 144.168C312.555 144.043 312.489 143.933 312.404 143.84C312.319 143.747 312.216 143.673 312.096 143.62C311.976 143.567 311.843 143.54 311.696 143.54C311.549 143.54 311.416 143.567 311.296 143.62C311.179 143.673 311.077 143.747 310.992 143.84C310.907 143.933 310.84 144.043 310.792 144.168C310.747 144.293 310.724 144.429 310.724 144.576ZM314.995 144.612C314.957 144.559 314.901 144.515 314.827 144.48C314.752 144.443 314.676 144.424 314.599 144.424C314.511 144.424 314.433 144.443 314.367 144.48C314.3 144.515 314.244 144.561 314.199 144.62C314.156 144.679 314.124 144.745 314.103 144.82C314.081 144.892 314.071 144.965 314.071 145.04C314.071 145.115 314.081 145.189 314.103 145.264C314.127 145.336 314.161 145.401 314.207 145.46C314.252 145.519 314.308 145.567 314.375 145.604C314.444 145.639 314.524 145.656 314.615 145.656C314.689 145.656 314.764 145.641 314.839 145.612C314.913 145.583 314.973 145.54 315.019 145.484L315.319 145.788C315.239 145.873 315.136 145.94 315.011 145.988C314.888 146.033 314.755 146.056 314.611 146.056C314.469 146.056 314.335 146.033 314.207 145.988C314.081 145.943 313.971 145.876 313.875 145.788C313.781 145.7 313.707 145.593 313.651 145.468C313.597 145.343 313.571 145.2 313.571 145.04C313.571 144.885 313.597 144.745 313.651 144.62C313.707 144.495 313.781 144.388 313.875 144.3C313.968 144.212 314.076 144.144 314.199 144.096C314.324 144.048 314.457 144.024 314.599 144.024C314.74 144.024 314.876 144.051 315.007 144.104C315.14 144.157 315.245 144.231 315.323 144.324L314.995 144.612ZM315.36 144.464V144.08H315.696V143.524H316.168V144.08H316.648V144.464H316.168V145.356C316.168 145.441 316.182 145.512 316.212 145.568C316.244 145.624 316.313 145.652 316.42 145.652C316.452 145.652 316.486 145.649 316.524 145.644C316.561 145.636 316.594 145.625 316.624 145.612L316.64 145.988C316.597 146.004 316.546 146.016 316.488 146.024C316.429 146.035 316.373 146.04 316.32 146.04C316.192 146.04 316.088 146.023 316.008 145.988C315.928 145.951 315.864 145.901 315.816 145.84C315.77 145.776 315.738 145.704 315.72 145.624C315.704 145.541 315.696 145.453 315.696 145.36V144.464H315.36ZM316.907 145.72C316.907 145.635 316.938 145.561 316.999 145.5C317.063 145.439 317.139 145.408 317.227 145.408C317.312 145.408 317.387 145.437 317.451 145.496C317.515 145.555 317.547 145.627 317.547 145.712C317.547 145.797 317.515 145.871 317.451 145.932C317.39 145.993 317.315 146.024 317.227 146.024C317.184 146.024 317.143 146.016 317.103 146C317.066 145.984 317.032 145.963 317.003 145.936C316.974 145.909 316.95 145.877 316.931 145.84C316.915 145.803 316.907 145.763 316.907 145.72Z" fill="#0C0C0D"/>
<defs>
<filter id="filter0_d" x="0" y="14" width="387" height="180" filterUnits="userSpaceOnUse" color-interpolation-filters="sRGB">
<feFlood flood-opacity="0" result="BackgroundImageFix"/>
<feColorMatrix in="SourceAlpha" type="matrix" values="0 0 0 0 0 0 0 0 0 0 0 0 0 0 0 0 0 0 127 0"/>
<feOffset dy="9"/>
<feGaussianBlur stdDeviation="10"/>
<feColorMatrix type="matrix" values="0 0 0 0 0 0 0 0 0 0 0 0 0 0 0 0 0 0 0.25 0"/>
<feBlend mode="normal" in2="BackgroundImageFix" result="effect1_dropShadow"/>
<feBlend mode="normal" in="SourceGraphic" in2="effect1_dropShadow" result="shape"/>
</filter>
</defs>
</svg>
