<?xml version="1.0" encoding="UTF-8"?>
<svg width="257px" height="131px" viewBox="0 0 257 131" version="1.1" xmlns="http://www.w3.org/2000/svg" xmlns:xlink="http://www.w3.org/1999/xlink">
    <defs>
        <polygon id="path-1" points="0.580220425 69 49.0536181 69 49.0536181 0.421038125 0.580220425 0.421038125"></polygon>
        <polygon id="path-3" points="0 130.189 256.152 130.189 256.152 0 0 0"></polygon>
    </defs>
    <g id="Page-1" stroke="none" stroke-width="1" fill="none" fill-rule="evenodd">
        <g id="Home" transform="translate(-592.000000, -88.000000)">
            <g id="LOGO" transform="translate(592.000000, 88.000000)">
                <g id="Group">
                    <g id="Page-1">
                        <path d="M42.5378,97.9801 C42.3768,96.8471 42.0458,95.9351 41.4118,96.2541 C36.2388,98.8571 30.3888,101.7931 25.9368,105.5091 C24.6258,106.6041 23.3558,107.8761 22.8588,109.5061 C21.9618,112.4491 24.3848,114.5311 27.3368,114.4631 C29.7618,114.4091 31.6038,113.9921 33.5778,112.8471 C33.6098,112.8291 34.3998,112.3701 34.3998,112.3701 C36.4338,111.0961 38.3238,109.2311 40.0698,106.7731 L40.2938,106.4171 L40.5188,106.0591 L41.0308,105.2851 L41.8088,103.6791 L42.0738,102.8471 L42.4298,102.0731 L42.6188,101.2421 C42.6808,100.9601 42.7278,99.3181 42.5378,97.9801 Z M78.4538,16.6181 C82.4678,24.5581 83.1008,34.3671 79.2348,43.7611 C76.9178,49.3921 73.2358,54.4281 68.6758,58.4521 C65.6128,61.1561 61.7898,63.3911 58.1378,65.1851 C56.9418,65.7721 54.6768,67.2531 53.5408,66.3021 C51.8918,64.9221 53.3138,61.1451 54.4908,60.0021 C56.0598,58.4801 57.8648,57.6781 59.5608,56.3661 C63.8608,53.0391 68.1408,49.4171 70.6888,44.5091 C74.6118,36.9581 75.6358,27.2421 72.6088,19.2341 C69.0538,9.8301 57.5498,5.4791 47.5878,6.8321 C38.0178,8.1301 25.3818,13.8651 18.9688,21.2261 L17.2748,23.2021 L15.6718,25.0021 L15.1928,25.6371 C13.9548,27.3291 12.8988,28.9941 12.0198,30.6311 C11.0398,32.4591 10.2498,34.2051 9.6478,35.8671 L8.8528,38.5241 L8.4838,41.2221 C8.3428,42.4581 8.3958,43.7231 8.6468,45.0221 C8.8998,46.1331 9.2948,47.3531 9.8348,48.6811 L9.9748,48.6771 C11.3428,51.7741 14.1208,55.1181 18.3168,58.7121 C19.9128,60.0571 21.9248,61.6561 24.3558,63.5081 L27.5648,65.9091 L30.7938,68.3701 C33.4138,70.3401 35.5978,72.0791 37.3468,73.5821 C39.6638,75.6411 41.6808,77.6321 43.3948,79.5531 C45.2628,81.7011 46.8368,83.9111 48.1158,86.1811 L48.4348,86.0081 L48.3488,85.9531 C61.5338,79.2771 70.7948,75.6771 74.6438,73.5741 C77.4638,72.0271 78.4648,68.2931 81.6948,69.0841 C83.9798,69.6441 76.5968,78.2581 76.5968,78.2581 L50.7998,92.1151 L51.2298,93.5731 C51.6518,95.4831 51.8588,97.3181 51.8548,99.0821 C51.8368,100.9951 51.5678,102.7771 51.0478,104.4301 C49.8788,107.8461 47.9028,110.8721 45.1118,113.5031 L44.6458,114.0101 L44.0938,114.4601 L42.9258,115.4181 L41.6568,116.2631 L40.3118,117.1071 L38.9398,117.8391 L37.4198,118.5721 L35.7978,119.1921 L34.1628,119.7551 L33.2588,119.9811 L32.3518,120.2081 L31.3618,120.3771 L30.9308,120.4351 L30.6498,120.4921 L30.3688,120.5481 L27.3268,120.7811 C19.1678,121.4751 11.4358,112.6541 16.4628,105.0971 C17.8938,102.9481 19.9278,101.2721 22.0308,99.7731 C27.1768,96.1021 32.6448,94.1491 38.3488,91.6511 C41.6488,90.2051 41.4128,90.0531 39.3558,86.7811 C37.8048,84.3111 35.8608,82.0841 33.7838,80.0451 C31.4588,77.7271 27.6428,74.5621 22.3528,70.5521 L19.2318,68.2071 L16.0908,65.7541 C13.5858,63.7591 11.5738,62.0341 10.0558,60.5791 C8.4218,59.0161 7.0858,57.6321 6.0588,56.4291 C4.6558,54.8281 3.5748,53.2741 2.8098,51.7681 L2.6818,51.8281 C2.0328,50.6181 1.4988,49.3861 1.0778,48.1331 C0.8258,47.4341 0.6158,46.6961 0.4418,45.9191 C0.3268,45.4031 0.2338,44.8841 0.1658,44.3651 C-1.9782,27.1781 17.1208,8.9131 31.7158,3.2891 C38.4498,0.6931 45.7508,-0.3489 52.9468,0.1021 C64.7788,0.8451 73.8448,7.5011 78.4538,16.6181 Z" id="Fill-1" fill="#E0B169"></path>
                        <path d="M104.407,20.6491 L104.835,20.9241 L105.332,21.1971 C105.78,21.4531 106.117,21.6541 106.346,21.8001 C106.642,22.0221 106.819,22.2291 106.874,22.4211 C106.93,22.6141 106.847,22.8101 106.626,23.0121 C106.428,23.1351 105.75,24.2631 104.592,26.3951 C103.949,27.5781 103.35,28.6631 102.79,29.6481 C102.095,30.9851 101.447,32.2431 100.847,33.4201 C100.242,34.5991 99.597,35.8741 98.906,37.2441 C98.384,38.2241 97.792,39.3801 97.133,40.7091 C95.858,43.2111 95.14,44.5971 94.979,44.8711 C94.675,45.8011 94.115,47.0091 93.301,48.4921 C92.991,49.4221 92.675,50.1601 92.356,50.7061 L91.974,51.6371 L91.523,52.5691 L90.711,54.2581 C90.336,54.9581 89.902,55.7941 89.409,56.7631 L88.695,58.0451 L88.063,59.3801 C86.817,61.7811 85.867,63.6191 85.212,64.8931 L84.981,65.3571 L84.836,65.8761 C84.676,66.3371 84.507,66.6841 84.333,66.9171 C83.616,68.1541 82.811,69.6771 81.913,71.4871 L81.361,72.6411 L80.851,73.6791 C80.463,74.5631 80.14,75.2351 79.882,75.6971 C79.389,76.7331 78.883,77.8841 78.354,79.1481 L79.909,77.6951 L80.137,77.4621 L80.291,77.2311 C80.44,77.0771 80.573,76.9411 80.685,76.8241 C81.214,76.4721 81.929,75.9261 82.834,75.1851 L83.848,74.4231 C84.195,74.1121 84.515,73.8781 84.808,73.7191 L86.061,72.7801 L87.312,71.8391 C88.35,71.0941 89.162,70.6091 89.748,70.3871 C90.332,70.1661 90.84,69.9741 91.274,69.8131 L91.798,69.6291 L92.336,69.5031 C92.468,69.4631 92.688,69.4021 93,69.3191 L93.793,69.0731 C94.546,68.8671 95.204,68.7381 95.762,68.6881 C96.178,68.6411 96.577,68.6141 96.958,68.6061 C98.191,68.5811 99.202,68.7901 99.994,69.2351 C100.565,69.5691 100.908,69.7721 101.026,69.8471 C101.152,69.9601 101.243,70.1111 101.296,70.3021 L101.344,70.4731 C101.518,70.5861 101.632,70.7371 101.685,70.9261 C101.728,71.0801 101.71,71.2721 101.631,71.5031 C101.604,71.5821 101.411,71.8341 101.053,72.2621 L100.99,72.5511 C100.959,72.7821 100.791,72.9581 100.491,73.0791 L100.103,73.4881 L99.745,74.0121 C99.146,74.7911 98.572,75.5671 98.02,76.3421 C97.239,77.5041 96.602,78.4151 96.11,79.0731 C94.695,81.0851 93.599,82.8781 92.827,84.4561 C92.465,85.0721 92.143,85.7461 91.859,86.4731 L91.664,86.8201 L91.541,87.1641 C91.449,87.3571 91.388,87.4921 91.36,87.5681 C91.337,87.8351 91.255,88.1611 91.118,88.5431 L91.108,88.7721 L91.011,88.9451 L90.985,89.1171 L90.944,89.2311 L90.887,89.2901 L90.903,89.3471 L90.846,89.4051 C90.818,89.4821 90.815,89.5581 90.836,89.6331 L90.851,89.6901 L90.923,89.6891 L91.052,89.6301 L91.165,89.5141 L91.206,89.4001 L91.191,89.3431 L91.262,89.3421 L92.498,88.2951 L93.86,87.1881 C94.672,86.4521 95.647,85.6151 96.787,84.6811 L98.31,83.3961 L99.814,82.0521 C100.752,81.2721 101.636,80.4721 102.464,79.6541 C102.808,79.3421 103.223,78.9331 103.705,78.4251 L104.945,77.1971 C107.037,75.0871 108.952,73.4761 110.696,72.3661 C110.838,72.3631 111.146,72.1841 111.62,71.8291 L111.856,71.6511 L112.093,71.4731 C112.248,71.3541 112.351,71.2951 112.399,71.2941 L112.58,71.1741 L112.816,70.9981 C112.937,70.9181 113.045,70.8781 113.142,70.8761 C113.624,71.0581 113.991,71.2621 114.248,71.4901 C114.386,71.6411 114.472,71.7741 114.505,71.8881 C114.549,72.0421 114.516,72.1771 114.407,72.2951 L114.297,72.4131 L114.132,72.5881 C114.022,72.7061 113.958,72.8241 113.945,72.9391 C113.892,73.0941 113.77,73.2511 113.574,73.4081 C113.416,73.5271 113.175,73.6841 112.849,73.8831 C112.197,74.2801 111.862,74.5371 111.846,74.6521 C111.379,75.2001 110.904,75.8031 110.42,76.4661 L109.331,78.2131 L108.699,79.0311 L108.167,79.9621 C107.679,80.6231 107.206,81.2431 106.744,81.8261 C106.373,82.2151 105.989,82.4711 105.588,82.5921 L105.262,83.2301 L104.935,83.8671 L104.222,85.2001 C103.626,86.1671 102.995,86.9401 102.34,87.5241 L101.792,88.1631 L101.23,88.7451 L100.087,89.8501 C98.814,91.0131 97.535,92.0811 96.254,93.0501 L95.544,93.6321 L94.557,94.2731 L93.659,94.9701 L92.655,95.5541 C92.035,95.9431 91.405,96.2161 90.771,96.3761 C90.185,96.5361 89.624,96.6171 89.094,96.6241 L88.441,96.6301 C88.191,96.5961 87.964,96.5611 87.76,96.5251 C87.198,96.4181 86.708,96.2141 86.289,95.9151 C85.919,95.6151 85.552,95.2391 85.191,94.7871 C84.896,94.4121 84.659,93.9771 84.481,93.4841 L84.329,92.9171 C84.128,92.1591 84.049,91.3241 84.095,90.4111 L84.133,90.0101 L84.243,89.6101 L84.39,88.8091 L84.5,88.4081 L84.511,88.1801 L84.555,88.0651 L84.804,87.3771 L84.996,86.7461 L85.161,86.2871 L85.342,85.8841 L85.523,85.4821 C86.549,83.0291 87.621,80.8581 88.741,78.9701 L88.501,79.1461 C88.269,79.5311 88.037,79.8221 87.802,80.0151 L87.447,80.3081 L87.181,80.6551 L86.49,81.2951 C86.263,81.5281 85.958,81.8191 85.572,82.1681 L84.538,83.1561 C83.65,83.9691 82.94,84.6461 82.412,85.1861 L82.243,85.3611 L82.088,85.5901 C81.992,85.7841 81.884,85.9181 81.761,85.9961 C81.199,86.4221 80.603,86.9811 79.967,87.6741 L79.183,88.5411 L78.856,88.9441 L78.53,89.3461 C78.034,89.8481 77.491,90.5391 76.904,91.4181 L76.19,92.5651 C75.444,93.4101 74.933,93.9461 74.654,94.1761 L74.367,94.4641 L74.152,94.7511 C73.949,94.9051 73.709,95.1921 73.432,95.6121 L73.059,96.1281 L72.685,96.6431 C72.05,97.5581 71.327,98.0401 70.515,98.0871 L70.313,98.1451 L68.139,98.1701 L67.615,98.1191 C67.414,98.0841 67.265,98.0661 67.167,98.0671 L66.718,98.0151 L66.342,97.9631 C66.09,97.9281 65.916,97.9121 65.819,97.9131 C65.453,97.8021 65.187,97.4281 65.023,96.7891 C65.004,96.7121 64.996,96.5821 64.994,96.3921 C65.015,96.0901 65.057,95.7881 65.124,95.4841 L65.11,95.1441 C65.044,95.0701 65.004,95.0141 64.994,94.9761 C64.965,94.8631 65.044,94.7881 65.227,94.7471 C65.362,94.1411 65.554,93.4771 65.803,92.7551 C65.975,92.2991 66.193,91.7311 66.451,91.0461 L66.809,90.1901 L67.137,89.2211 C67.682,87.7771 68.208,86.4631 68.721,85.2811 C69.164,84.0241 69.702,82.6711 70.331,81.2191 C70.735,80.1891 71.237,78.9851 71.835,77.6091 C72.84,75.2371 73.472,73.8191 73.735,73.3581 C73.959,72.4041 74.468,71.1581 75.254,69.6211 C75.508,68.7791 75.809,68.0301 76.16,67.3761 L76.557,66.4521 L76.956,65.5301 L77.777,63.7971 C78.908,61.4461 80.723,57.8721 83.214,53.0691 L83.497,52.5461 L83.711,52.0241 C83.879,51.5981 84.025,51.2691 84.15,51.0361 C84.97,49.7131 85.825,48.1751 86.713,46.4261 L87.328,45.3161 L87.886,44.2641 C88.32,43.4461 88.678,42.7841 88.961,42.2751 C89.81,40.7531 90.678,39.0541 91.566,37.1811 L92.8,34.5451 L94.08,31.8451 C94.386,31.6041 94.714,31.1891 95.063,30.5981 L95.494,29.8901 C95.686,29.5751 95.829,29.3391 95.925,29.1811 C96.178,28.7491 96.532,28.1001 96.986,27.2351 L97.548,25.9991 L98.121,24.8201 C99.125,22.7751 100.071,21.4441 100.969,20.8321 C101.038,20.7521 101.138,20.6901 101.264,20.6461 L101.422,20.4661 C101.608,20.3051 101.823,20.1621 102.068,20.0371 C102.137,19.9571 102.264,19.9131 102.449,19.9071 C102.631,19.9001 102.907,19.9671 103.274,20.1081 L103.599,20.2721 L103.927,20.4341 C104.154,20.5821 104.314,20.6521 104.407,20.6491" id="Fill-3" fill="#E0B169"></path>
                        <path d="M151.2493,71.1803 C151.4383,71.3333 151.5573,71.4873 151.6043,71.6423 C151.6403,71.7573 151.6213,71.8563 151.5503,71.9343 L151.3343,72.1733 C151.2753,72.2903 151.0003,72.7253 150.5103,73.4733 L150.2783,73.6533 L150.0613,73.8903 C149.9073,74.0103 149.8173,74.1103 149.7923,74.1873 C149.5633,74.6983 149.3053,75.2673 149.0183,75.8943 L148.3633,77.5393 C147.7933,78.8313 147.2123,79.9303 146.6183,80.8323 L145.4523,82.7143 L145.0823,83.8853 C144.7853,84.8203 144.4273,85.5633 144.0143,86.1113 L143.6113,86.6993 L143.2073,87.2853 L142.4203,88.2843 C141.5873,89.3803 140.6573,90.4003 139.6333,91.3413 L138.8433,92.1053 L138.3683,92.4593 L137.9083,92.8713 L137.4323,93.2253 L136.8843,93.5793 L136.5723,93.7573 L136.2613,93.9353 L135.9513,94.1133 L135.5683,94.2903 L135.3133,94.4103 L135.0563,94.5293 L134.3453,94.8263 C134.1633,94.8673 134.0073,94.9093 133.8733,94.9483 L133.3993,95.0703 L132.1483,95.2583 C131.6283,95.3033 131.1513,95.3273 130.7173,95.3323 L130.2113,95.3383 C129.1473,95.3513 128.1803,95.2673 127.3043,95.0833 C126.6223,94.9003 126.0003,94.6773 125.4403,94.4133 C125.2143,94.3003 124.9303,94.1513 124.5863,93.9623 L123.7853,93.4523 C122.9223,92.8103 122.2473,92.0493 121.7523,91.1703 C121.4543,90.6363 121.2283,90.1013 121.0753,89.5643 C120.9543,89.1433 120.8763,88.7013 120.8403,88.2403 C120.7623,87.6253 120.7733,86.9913 120.8743,86.3343 L119.8513,87.5613 L118.8263,88.7863 C117.9093,89.7993 116.9553,90.5233 115.9683,90.9573 L114.9443,91.4323 C114.5153,91.6313 114.1483,91.7883 113.8463,91.9083 L113.2433,92.0873 L113.0263,92.0903 L112.8263,92.1513 L112.4093,92.2133 L111.5743,92.3393 L110.7403,92.4643 L109.9463,92.4753 C108.3573,92.4943 106.8993,92.2083 105.5723,91.6133 C104.7353,91.2023 104.0133,90.6963 103.4123,90.0913 C102.8003,89.4513 102.3513,88.7863 102.0663,88.1023 C101.9543,87.8743 101.8623,87.6263 101.7893,87.3603 C101.6523,86.8663 101.5863,86.3683 101.5933,85.8703 C101.5533,85.0303 101.6583,84.2833 101.9093,83.6273 L101.9893,83.3963 L102.0713,83.1653 L102.1673,82.9923 L102.2633,82.8173 L102.6063,82.2383 L103.2773,81.0203 L103.5083,80.5563 L103.6833,80.1513 C103.8633,79.7653 104.0463,79.4753 104.2313,79.2793 C106.7023,76.2833 108.8113,74.0743 110.5633,72.6573 C112.0443,71.4743 113.4783,70.3883 114.8693,69.3973 C116.7383,68.0863 118.3833,67.0883 119.8053,66.4023 C120.2233,66.3553 120.8233,66.2063 121.6103,65.9583 L122.5913,65.6483 L123.5203,65.3963 L124.1253,65.2673 L124.9453,65.1333 L126.1183,64.9933 L126.6883,64.9803 L127.0263,64.9153 L127.3273,64.9663 C129.2683,64.9253 131.0443,65.3723 132.6583,66.3073 C134.3413,67.3193 135.4833,68.5953 136.0843,70.1343 C136.1993,70.3663 136.2883,70.5773 136.3443,70.7693 C136.4823,71.2333 136.5423,71.6773 136.5263,72.1043 C136.5103,72.3763 136.4733,72.6493 136.4103,72.9203 C136.3823,73.1543 136.3283,73.3683 136.2423,73.5633 C136.1343,73.6813 136.0483,73.7993 135.9863,73.9173 L135.8583,74.2103 L135.6413,74.4473 C135.5333,74.5653 135.4243,74.6833 135.3153,74.8013 C135.1953,74.8813 135.0643,74.9223 134.9213,74.9243 C134.7783,74.9273 134.6223,74.8923 134.4573,74.8173 L134.1913,74.6483 L134.0143,74.5343 C133.8123,74.5003 133.6153,74.4843 133.4263,74.4873 L133.3543,74.4883 C133.2113,74.4913 132.9273,74.4193 132.4993,74.2723 L132.0033,74.0493 L131.5233,73.8833 C131.1453,73.7373 130.8963,73.6243 130.7773,73.5493 C130.3193,73.2873 130.0123,72.9833 129.8643,72.6383 L129.7963,72.4063 L129.8003,72.1743 L129.6133,71.5393 C129.5093,71.3493 129.3933,71.1963 129.2643,71.0813 C129.1113,70.8923 128.9293,70.7593 128.7183,70.6863 C128.5053,70.6133 128.2573,70.5793 127.9703,70.5843 L127.7023,70.6483 L127.5053,70.7093 L127.4353,70.7113 L127.2383,70.7733 C126.7483,70.8993 126.2033,71.0823 125.6063,71.3263 C124.6243,71.7333 123.5393,72.2753 122.3483,72.9533 C121.4923,73.4713 120.5623,74.0683 119.5603,74.7413 C119.1613,75.0183 118.7843,75.2953 118.4333,75.5723 L117.9603,75.9263 L117.5413,76.2223 C116.8723,76.7363 116.4973,77.0123 116.4133,77.0523 C116.1133,77.5193 115.6403,78.0463 114.9943,78.6353 L114.2033,79.3993 L113.3943,80.1043 C111.9163,81.6663 110.6893,83.4523 109.7153,85.4613 L109.5943,85.8093 L109.4993,85.9833 L109.4583,86.0983 L109.4033,86.1573 L109.4353,86.2723 L109.5793,86.2703 L109.5953,86.3273 L109.7943,86.2673 L110.1243,86.1463 L110.5233,86.0253 C111.4073,85.7443 112.6463,85.1883 114.2403,84.3573 C118.3723,82.1393 122.0893,79.6903 125.3933,77.0093 C126.1213,75.7223 126.8973,74.9363 127.7263,74.6493 L127.9773,74.5293 L128.1953,74.2933 C128.2193,74.2163 128.2793,74.1753 128.3763,74.1743 L128.7663,74.2833 L128.9093,74.2803 C129.0063,74.2783 129.1113,74.3163 129.2283,74.3903 L129.8863,74.6683 L130.2403,74.8943 C130.2863,74.8933 130.4823,74.9873 130.8243,75.1733 L131.2663,75.4553 L131.6053,75.6233 C131.8993,75.8133 132.1043,75.9443 132.2243,76.0193 C132.4583,76.1693 132.6063,76.3413 132.6633,76.5333 C132.6963,76.6493 132.6883,76.7853 132.6393,76.9403 C132.6613,77.0173 132.2333,77.7603 131.3503,79.1673 C130.8943,79.9093 130.4933,80.5923 130.1483,81.2163 C129.6763,82.0753 129.2413,82.8923 128.8443,83.6693 L128.2783,84.9523 C128.0383,85.4573 127.8453,85.8663 127.6953,86.1763 C127.3413,86.9533 127.1273,87.6303 127.0553,88.2103 C127.0073,88.7123 127.0343,89.1353 127.1343,89.4823 L127.2173,89.7693 L127.3393,89.9413 C127.4683,90.0543 127.5633,90.1313 127.6233,90.1673 L127.7113,90.2253 L127.7833,90.2243 L127.8723,90.2813 C127.9303,90.3183 128.0133,90.3563 128.1223,90.3933 C128.4813,90.4653 128.8293,90.4993 129.1663,90.4943 C130.6573,90.4753 132.2583,89.8363 133.9653,88.5763 C136.0213,87.0403 139.3843,83.0233 144.0223,76.5073 C145.6323,74.5353 147.0063,73.0523 148.1423,72.0583 C148.2363,72.0563 148.4523,71.8973 148.7853,71.5783 L149.1603,71.1623 L149.3953,70.9833 C149.4293,70.9443 149.4713,70.9233 149.5203,70.9223 L149.6813,70.7433 L149.7873,70.6243 C149.8703,70.5853 149.9583,70.5633 150.0553,70.5613 L150.1263,70.5593 C150.5643,70.7463 150.9393,70.9523 151.2493,71.1803" id="Fill-5" fill="#E0B169"></path>
                        <path d="M186.5417,71.3278 C186.7347,71.4818 186.8507,71.6178 186.8887,71.7358 C186.9257,71.8528 186.8927,71.9718 186.7877,72.0918 L186.6117,72.2138 L186.5257,72.3918 C186.4217,72.5128 186.3627,72.6318 186.3547,72.7498 C186.2957,72.8688 186.1807,73.0288 186.0067,73.2288 L185.4417,73.7118 L185.1597,73.9528 L184.8597,74.1358 C184.7187,74.2958 184.6367,74.4148 184.6157,74.4938 C184.3357,74.9708 183.9817,75.5878 183.5537,76.3418 L183.0267,77.1758 L182.5747,78.0098 C181.7897,79.3178 180.9727,80.4508 180.1247,81.4058 C179.8177,81.8038 179.4367,82.0458 178.9817,82.1308 L178.7367,82.7228 L178.4387,83.3748 L177.8197,84.6188 C177.2507,85.5668 176.6617,86.3008 176.0557,86.8178 L175.5187,87.4128 L174.9637,87.9478 L173.8327,88.9618 C173.3297,89.3598 172.7527,89.8368 172.1067,90.3918 L170.9357,91.2858 L170.0327,91.8838 L169.2047,92.4788 L168.2997,93.0748 L168.1907,93.1928 L168.0467,93.1948 L167.8667,93.3148 L167.4127,93.4958 L166.5277,93.9158 L166.0757,94.0978 L165.8927,94.2168 L165.6937,94.2768 C164.9707,94.4418 164.2717,94.5268 163.5957,94.5358 C163.2087,94.5398 162.8177,94.5258 162.4187,94.4908 L161.7877,94.3238 L161.0837,94.1568 C160.5537,94.0088 160.1197,93.7798 159.7847,93.4728 C159.4827,93.2818 159.2207,93.0528 158.9937,92.7818 C158.6697,92.3588 158.4267,91.8758 158.2617,91.3328 L158.0307,90.5778 L158.0137,90.2858 L157.9807,89.7018 L158.0197,89.1188 L157.9837,89.0018 L158.0747,88.8258 L158.1297,88.5328 L158.4587,87.2438 L159.0037,85.9508 L159.2567,85.3628 L159.5837,84.7738 L160.1057,83.6548 L161.1847,81.7658 L162.3327,79.8748 L164.4897,76.1468 C164.7737,75.9858 165.0717,75.7068 165.3807,75.3088 L165.7177,74.7758 L166.0187,74.3598 C166.2897,74.0028 166.5627,73.4898 166.8317,72.8188 C166.8537,72.5838 166.8347,72.3698 166.7737,72.1738 C166.6887,72.0578 166.5877,71.9628 166.4687,71.8868 C166.4087,71.8488 166.3317,71.8308 166.2367,71.8318 L166.0227,71.8368 L165.8247,71.8978 L165.7007,71.9598 L165.4867,71.9638 C165.0837,72.3628 164.7597,72.6228 164.5087,72.7448 C164.2377,73.1008 164.0827,73.3008 164.0477,73.3408 L163.8707,73.4608 L163.7637,73.5798 L163.7097,73.6398 L163.4977,73.8778 L163.2107,74.1178 L162.1967,75.0158 C161.1727,75.8928 160.2557,76.7288 159.4447,77.5228 L159.2487,77.8198 L159.0317,78.0568 C158.8657,78.2938 158.7047,78.4728 158.5487,78.5928 C157.8567,79.1498 157.0897,79.8648 156.2497,80.7348 C155.9617,81.0528 155.6207,81.4268 155.2257,81.8608 L154.7197,82.3368 L154.3047,82.8688 C153.6537,83.5788 152.9307,84.4458 152.1317,85.4678 L151.2027,86.9378 L150.1847,88.3508 C149.9287,88.4728 149.6757,88.6698 149.4207,88.9438 L149.0387,89.3568 L148.7827,89.7098 C148.5507,89.9078 148.2897,90.2398 147.9957,90.7098 L147.6097,91.3538 L147.2217,91.9988 C146.5817,93.0928 145.9397,93.7778 145.2977,94.0568 L145.2777,94.2318 C145.0927,94.5828 144.9507,94.8368 144.8497,94.9918 C144.6557,95.1498 144.4127,95.2288 144.1237,95.2328 L143.5447,95.2398 C143.4007,95.2408 143.0747,95.2068 142.5687,95.1358 C142.1727,95.1008 141.8057,95.0868 141.4677,95.0908 L141.0147,95.0378 L140.6357,94.9838 C140.3357,94.9498 140.1357,94.9318 140.0407,94.9318 C139.6797,94.8598 139.4057,94.6698 139.2167,94.3628 L139.1487,94.1318 C139.1637,94.0148 139.1477,93.8818 139.1017,93.7258 C139.0977,93.3788 139.1457,92.9728 139.2507,92.5068 C139.4987,91.3828 139.7437,90.3348 139.9887,89.3638 C140.2937,88.2758 140.5837,87.2268 140.8637,86.2158 C141.2007,85.2428 141.4107,84.6578 141.4967,84.4638 C141.4677,84.0378 141.6227,83.5118 141.9667,82.8858 C141.9467,82.4988 141.9977,82.1868 142.1207,81.9528 L142.2147,81.5448 L142.3257,81.1928 L142.6937,80.4888 C142.9017,79.9038 143.2207,79.1998 143.6467,78.3778 L144.1927,77.3198 L144.7217,76.2038 L144.7947,75.9698 L144.8857,75.7938 C144.9217,75.5988 144.9697,75.4418 145.0317,75.3238 C145.3807,74.8908 145.7537,74.3008 146.1517,73.5548 L146.5477,72.7298 L146.9467,71.9058 C147.2687,71.3938 147.5867,70.7068 147.8977,69.8438 L148.2777,68.7268 L149.2427,67.1878 L149.4567,66.9488 L149.5807,66.6548 C149.7217,66.4968 149.8597,66.2388 149.9897,65.8868 L150.1167,65.3568 L150.3117,64.8258 C150.6307,63.9998 151.1107,63.5418 151.7497,63.4488 L151.9447,63.3868 L152.0867,63.3838 C152.1687,63.3438 152.3047,63.3198 152.4947,63.3158 L152.5647,63.3138 C152.7547,63.3098 153.1287,63.4398 153.6857,63.6998 L154.2897,64.0388 C154.5727,64.1888 154.7407,64.2638 154.7867,64.2628 L155.3047,64.5438 L155.8907,64.8238 C156.3527,65.0888 156.7047,65.2958 156.9397,65.4468 C157.4047,65.7108 157.6547,65.9008 157.6907,66.0168 C157.7147,66.0968 157.6617,66.1558 157.5317,66.1958 C157.2567,66.2418 156.5327,67.6038 155.3497,70.2828 C155.1477,70.7168 154.9207,71.2268 154.6717,71.8168 L154.3147,72.5258 L154.0087,73.1748 C153.5917,74.1568 153.3527,74.7068 153.2927,74.8248 L153.2577,74.9428 L153.4177,74.7638 C154.1467,74.0118 155.0337,73.1558 156.0827,72.1998 L157.5617,70.9418 L157.9527,70.5838 L158.5227,70.1028 L159.1627,69.6218 L159.8547,69.0808 L160.3707,68.6598 L160.8837,68.2388 L161.3997,67.8178 L161.9317,67.4548 C163.8087,66.2818 165.3747,65.4848 166.6267,65.0668 L166.8927,65.0028 L167.0867,64.9398 L167.6207,64.8108 L168.0287,64.7438 L168.4357,64.6768 L168.9327,64.6658 C169.2647,64.6588 169.6037,64.6718 169.9477,64.7028 C170.2557,64.7748 170.5897,64.8468 170.9467,64.9168 L171.5177,65.1408 C171.7297,65.2158 171.9277,65.3088 172.1067,65.4228 C172.4777,65.6898 172.8027,65.9588 173.0787,66.2268 L173.3847,66.5158 L173.6387,66.8638 C173.9747,67.3278 174.2547,67.8328 174.4767,68.3778 L174.6057,68.7868 L174.6097,69.0228 L174.6307,69.3168 L174.7057,69.5518 L174.6707,69.6698 L174.6557,69.8468 L174.6267,70.4358 L174.4537,70.7928 L174.2777,71.1498 L174.0007,71.8608 C173.9087,72.1778 173.7997,72.5128 173.6727,72.8678 L173.4277,73.4608 L173.2027,74.1118 L172.8337,74.7658 L172.5547,75.4758 C172.2377,76.1478 171.6977,77.0978 170.9297,78.3238 C170.5157,78.9968 169.9597,79.9068 169.2607,81.0528 L168.8137,81.7038 L168.4217,82.2968 C168.1377,82.7698 167.8997,83.1648 167.7067,83.4798 C167.5167,83.7968 167.3067,84.1308 167.0817,84.4848 C166.9257,84.7618 166.7707,85.0368 166.6147,85.3118 C165.5017,87.4748 164.9237,88.5758 164.8897,88.6148 L164.8717,88.7908 L164.9257,88.9668 L164.8897,89.0838 L164.8347,89.1418 C164.7987,89.1818 164.7877,89.2218 164.7987,89.2598 L164.8167,89.3178 C164.8297,89.3568 164.8587,89.3758 164.9067,89.3758 L165.1047,89.3138 L165.1597,89.2548 L165.1957,89.1378 C165.2297,89.0988 165.2437,89.0588 165.2317,89.0198 L165.2857,88.9618 L165.4117,88.8998 C169.5607,85.7968 173.8127,81.7628 178.1527,76.7898 L180.5197,74.5098 L181.7357,73.3658 L182.4257,72.8228 L183.0227,72.2228 C183.1167,72.2208 183.2407,72.1578 183.3937,72.0378 L183.6247,71.8558 L183.9057,71.6148 C184.0567,71.4938 184.2097,71.3728 184.3627,71.2518 C184.5167,71.1308 184.6337,71.0508 184.7147,71.0088 L184.8917,70.8878 L185.0697,70.7658 C185.1387,70.6858 185.2197,70.6438 185.3167,70.6418 L185.3877,70.6408 C185.8787,70.8298 186.2627,71.0578 186.5417,71.3278" id="Fill-7" fill="#E0B169"></path>
                        <path d="M211.0349,17.0329 L211.5539,17.3149 L211.9809,17.5399 C212.3699,17.7279 212.6269,17.8579 212.7459,17.9339 C212.9249,18.0489 213.0559,18.2239 213.1379,18.4639 C213.2609,18.8199 213.2509,19.2619 213.1049,19.7889 C213.0359,19.9929 212.1629,22.0109 210.4809,25.8359 C209.5109,28.0699 208.6849,29.9779 208.0029,31.5589 C206.9219,33.9119 205.9679,36.0969 205.1439,38.1169 C204.3819,39.7749 203.5679,41.6309 202.6999,43.6859 C202.1329,45.0949 201.3929,46.8449 200.4829,48.9369 L200.8539,48.9869 L201.5099,49.0299 L208.1389,49.0959 C208.1519,49.1369 208.1839,49.1549 208.2289,49.1539 L208.8139,49.1989 C209.1549,49.2299 212.9899,49.2919 220.3199,49.3819 C220.4149,49.3799 220.4929,49.3979 220.5519,49.4359 C220.7899,49.7099 220.9489,49.9659 221.0309,50.2039 C221.1399,50.5209 221.0829,50.7029 220.8599,50.7479 L220.5979,50.8139 C220.4719,50.8579 220.3669,50.9009 220.2869,50.9419 C220.1389,51.0649 219.8139,51.1549 219.3099,51.2069 L219.3389,51.0859 L219.4099,51.0839 L219.4619,51.0219 L219.1279,51.0909 L218.7759,51.0989 L218.7259,51.1619 L218.5849,51.1649 L218.6049,51.2239 L218.5139,51.1669 C218.4799,51.2079 218.4009,51.2499 218.2729,51.2929 L218.0619,51.2979 L217.8909,51.4219 L217.1539,51.5599 L217.1339,51.5009 L217.0629,51.5029 L217.0429,51.4429 L216.9219,51.5059 L216.9429,51.5649 L216.8019,51.5689 L216.6099,51.6339 L216.6599,51.5719 L216.7309,51.5699 C216.7179,51.5309 216.6859,51.5119 216.6399,51.5129 L216.5899,51.5739 L216.5199,51.5759 C216.4239,51.5779 216.2899,51.6019 216.1149,51.6449 L215.9439,51.7689 L215.7519,51.8339 C215.6459,51.7989 215.5659,51.7789 215.5209,51.7799 C215.4249,51.7829 215.3459,51.8249 215.2789,51.9059 L215.2089,51.9069 L215.0979,51.7909 L215.0479,51.8509 C211.2619,52.3049 209.0289,52.5799 208.3499,52.6759 L208.0879,52.7419 L207.6829,52.8109 L207.6119,52.8129 C206.8389,52.9129 206.1239,52.9699 205.4639,52.9859 L204.8489,53.0599 L204.1609,53.1369 L202.8919,53.1689 L202.2739,53.2429 L201.8199,53.3739 C201.7589,53.3359 201.6989,53.2979 201.6389,53.2589 L198.6019,53.3339 L198.4459,53.9319 L198.1789,54.4149 C197.9919,54.8559 197.8589,55.1769 197.7829,55.3769 C197.2689,56.6969 196.9059,57.5379 196.6919,57.8989 C196.3389,59.1359 195.8339,60.5729 195.1819,62.2099 L194.2239,64.3069 L193.3689,66.2819 C191.7429,69.9479 189.9829,74.3389 188.0829,79.4509 L185.6659,86.0919 L183.1929,92.6559 C182.6749,94.0729 182.3619,95.1549 182.2609,95.8989 C182.2239,96.0959 182.1969,96.3099 182.1749,96.5459 C182.2119,96.8189 182.2509,97.0139 182.2879,97.1319 L182.2709,97.3069 L182.2899,97.3669 L182.3809,97.4249 L182.5979,97.4229 C182.7769,97.3809 183.0179,97.2999 183.3199,97.1789 C183.8389,96.9769 184.3779,96.6979 184.9439,96.3389 C185.3889,96.0589 185.9109,95.7209 186.5099,95.3209 C186.8929,95.0029 187.3529,94.6259 187.8909,94.1859 L188.5009,93.5909 L189.1799,92.9949 L189.8599,92.3969 L190.4469,91.7409 C191.7029,90.3889 193.2569,88.5409 195.1029,86.1909 L197.2599,83.2629 L199.4759,80.3289 C201.2139,78.0099 202.7529,76.0469 204.0929,74.4389 C204.2229,74.3979 204.6469,73.9349 205.3589,73.0509 L205.7019,72.5689 L206.0469,72.0879 C206.2859,71.8059 206.4419,71.6249 206.5119,71.5439 L206.7499,71.1819 L206.9909,70.8209 C207.1979,70.5789 207.3879,70.4369 207.5659,70.3939 C208.2299,70.3819 208.7549,70.5109 209.1319,70.7799 C209.3729,70.9339 209.5289,71.1099 209.5949,71.3069 C209.6609,71.5059 209.6199,71.7439 209.4749,72.0229 L209.2879,72.3239 L209.0479,72.6859 C208.8679,73.0079 208.7689,73.2859 208.7529,73.5239 C208.6579,73.9629 208.1119,74.7629 207.1079,75.9299 L206.6069,76.5929 C206.3989,76.8329 206.2179,77.0149 206.0679,77.1369 C205.7689,77.5369 205.6029,77.8379 205.5709,78.0349 C204.8979,79.1939 204.1319,80.5899 203.2749,82.2239 L202.2609,84.1949 L201.2239,86.1029 C199.4199,89.4409 197.7229,92.1009 196.1409,94.0879 C195.7149,94.5649 195.3929,94.9229 195.1799,95.1619 C194.7979,95.4799 194.3799,95.7609 193.9239,96.0009 L193.5349,96.5959 L193.0909,97.2479 L192.5529,97.8429 L192.0169,98.4369 L191.4969,99.0899 L190.9609,99.6839 C190.5179,100.1199 190.0869,100.5159 189.6649,100.8739 C188.5109,101.8259 187.3169,102.5029 186.0839,102.9059 C185.2849,103.1479 184.4969,103.2729 183.7219,103.2799 C183.4309,103.2829 183.1339,103.2649 182.8309,103.2289 C181.5949,103.1619 180.4599,102.8799 179.4269,102.3829 C178.2739,101.8069 177.2609,101.0549 176.3879,100.1269 C175.9859,99.6229 175.6419,99.1379 175.3489,98.6729 L174.9669,97.9159 L174.7479,97.2149 C174.6019,96.7489 174.5229,96.3389 174.5089,95.9879 C174.4609,95.6769 174.4429,95.3049 174.4529,94.8749 C174.4639,94.2889 174.5289,93.6429 174.6449,92.9379 C174.8119,92.2319 175.0429,91.4289 175.3389,90.5249 L175.7639,89.3459 L176.2099,88.2249 L177.0579,85.8629 L177.9729,83.4989 C179.0449,80.6589 180.3099,77.4589 181.7649,73.8969 L182.0729,73.0659 L182.3429,72.1159 C182.5809,71.3649 182.8039,70.7899 183.0119,70.3919 C183.8799,68.4849 185.0469,65.8029 186.5009,62.3399 L187.3099,60.4269 L188.0639,58.5739 C188.6679,57.2159 189.1689,56.0559 189.5679,55.0979 L190.2879,53.5969 L188.5739,53.5799 L187.5539,53.7229 L187.3929,53.6679 L187.1599,53.6139 L186.8779,53.6219 L184.6709,53.6169 L174.9859,53.3819 L174.8779,53.2659 L174.2949,53.2209 L173.7309,53.2359 C173.1529,53.2109 172.7459,53.2009 172.5119,53.2069 C171.7219,53.1079 171.2949,52.9629 171.2319,52.7659 L171.2139,52.7079 C171.1999,52.5119 171.1169,52.1789 170.9679,51.7109 L170.6879,50.8319 L170.7539,50.5939 L170.7339,50.2999 C170.7169,50.1029 170.6989,49.9659 170.6739,49.8869 C170.7279,49.6109 170.9339,49.4479 171.2979,49.3979 L171.5789,49.3909 C172.2379,49.3739 173.9939,49.3869 176.8479,49.4319 L178.0459,49.4009 L188.4639,49.5459 L189.0269,49.5309 L189.5729,49.4579 L189.7129,49.4539 L189.9439,49.5079 L190.9099,49.4229 L191.9669,49.3949 L193.1769,46.3889 L194.4309,43.3189 C195.3889,40.9479 196.2219,38.9159 196.9299,37.2239 C197.3329,36.7339 197.7879,35.9839 198.2949,34.9729 L198.9269,33.6979 C199.1729,33.1729 199.3669,32.7679 199.5079,32.4839 C199.8849,31.7949 200.3969,30.6619 201.0389,29.0849 L201.4159,28.1139 L201.8399,27.0819 L202.7559,25.0129 C204.2529,21.5629 205.5839,19.2339 206.7599,18.0289 C206.9019,17.9039 207.0459,17.7769 207.1899,17.6519 L207.4339,17.3429 C207.6619,17.0539 207.9429,16.7829 208.2759,16.5299 C208.4169,16.4049 208.6279,16.3369 208.9039,16.3259 C209.0889,16.3189 209.3339,16.3509 209.6369,16.4209 C210.2099,16.5999 210.5339,16.7289 210.6079,16.8059 L210.7869,16.9209 C210.8479,16.9589 210.9309,16.9969 211.0349,17.0329" id="Fill-9" fill="#E0B169"></path>
                        <g id="Group-13" transform="translate(187.000000, 61.189000)">
                            <mask id="mask-2" fill="white">
                                <use xlink:href="#path-1"></use>
                            </mask>
                            <g id="Clip-12"></g>
                            <path d="M6.405,64.7833 C7.057,64.6643 7.763,64.4863 8.524,64.2503 C9.138,64.0143 9.78,63.7193 10.454,63.3653 C11.764,62.6963 13.009,61.8313 14.189,60.7693 C15.988,59.1943 18.093,56.8313 20.492,53.6773 C22.88,50.5153 25.16,46.4623 27.322,41.5123 L22.662,44.8663 C21.796,45.9373 21.001,46.7893 20.283,47.4263 L19.639,48.1383 L18.972,48.7913 L18.308,49.4453 L17.621,50.0393 C16.854,50.8303 16.228,51.4633 15.746,51.9373 C15.011,52.6873 14.349,53.3583 13.755,53.9513 L11.743,56.1373 C10.967,56.9243 10.312,57.6323 9.777,58.2623 L9.159,59.0863 L8.593,59.8503 L8.688,59.9093 C7.677,61.2033 6.939,62.3583 6.476,63.3773 L6.035,64.3153 C6.025,64.4313 5.988,64.5493 5.926,64.6673 L5.963,64.7843 L5.89,64.7843 L5.908,64.8433 L6.055,64.8433 L6.405,64.7833 Z M46.985,1.3163 L47.493,1.5463 C47.881,1.6983 48.135,1.8123 48.259,1.8893 C48.613,2.0833 48.844,2.3393 48.955,2.6553 C49.01,2.8153 49.041,2.9743 49.051,3.1353 C49.085,3.3743 48.788,4.6413 48.151,6.9353 C47.441,9.3093 46.656,11.8213 45.798,14.4723 C44.939,17.0013 44.034,19.5483 43.083,22.1113 C42.237,24.4323 41.683,25.8523 41.427,26.3733 C41.297,27.1303 41.03,27.9703 40.615,28.8883 L40.029,30.1473 L39.47,31.2853 C38.966,32.3643 38.373,33.6213 37.694,35.0563 L36.07,38.8783 C34.619,42.0973 33.412,44.5993 32.448,46.3853 C30.676,49.7153 28.99,52.4463 27.397,54.5833 L26.018,56.4203 L24.596,58.1373 C23.492,59.5573 22.509,60.6803 21.646,61.5083 C20.436,62.7673 19.232,63.8303 18.037,64.6963 C16.608,65.7573 15.101,66.5823 13.518,67.1723 L13.205,67.3483 L12.688,67.5853 L12.173,67.8193 L11.566,67.9963 L11.048,68.2323 C9.979,68.5853 8.921,68.8203 7.872,68.9393 L7.429,68.9403 L7.079,68.9993 L6.415,69.0003 L5.655,68.9423 L4.88,68.8253 L4.493,68.7673 L4.176,68.7093 L3.771,68.5933 L3.439,68.4763 C3.266,68.3973 3.058,68.2813 2.812,68.1263 L2.164,67.7183 C1.49,67.1353 1.028,66.4523 0.783,65.6743 C0.721,65.4773 0.687,65.2843 0.673,65.0893 C0.563,64.5823 0.551,64.0743 0.636,63.5683 L0.673,63.2183 L0.71,63.0993 L0.73,62.9253 L0.95,62.4553 C1.331,61.4783 1.886,60.4413 2.619,59.3463 L3.132,58.4073 C3.351,58.0153 3.552,57.7213 3.734,57.5253 L3.715,57.4663 C4.677,56.1723 5.989,54.6003 7.647,52.7513 C9.351,50.8983 10.774,49.3993 11.916,48.2543 C13.89,46.3533 16.281,44.2703 19.095,42.0033 C22.946,38.9303 26.43,36.1113 29.552,33.5453 L29.821,32.8293 C29.909,32.5123 30.017,32.2543 30.145,32.0533 C30.842,30.8193 31.599,29.3243 32.413,27.5683 L32.899,26.4313 L33.334,25.3543 C33.747,24.4363 34.03,23.7773 34.186,23.3773 C34.801,22.0573 35.406,20.4383 36.01,18.5213 L34.976,19.7303 L33.992,20.8783 L33.785,21.1193 L33.598,21.4213 C33.472,21.6213 33.357,21.7813 33.253,21.9023 C32.695,22.3873 32.01,23.0723 31.198,23.9573 L30.312,24.9813 C29.95,25.3433 29.667,25.6443 29.456,25.8853 L28.32,27.0293 L27.795,27.6303 L27.199,28.2323 L26.673,28.8333 L26.024,29.4943 C25.953,29.5743 25.841,29.6753 25.69,29.7953 L25.228,30.1573 L24.749,30.4603 L24.342,30.7623 C24.099,30.7643 23.83,30.8273 23.532,30.9493 C22.829,31.3133 22.028,31.5993 21.131,31.8083 C20.541,31.9333 19.933,32.0003 19.309,32.0083 C18.824,32.0133 18.329,31.9803 17.823,31.9083 C16.588,31.6863 15.457,31.1883 14.429,30.4133 C13.585,29.7543 12.903,28.9953 12.379,28.1353 C12.156,27.7433 11.986,27.3713 11.87,27.0173 L11.697,26.4873 L11.635,26.0753 L11.572,25.6623 L11.621,25.3663 C11.592,25.1293 11.59,24.9733 11.613,24.8923 L11.57,24.5393 L11.507,24.1263 L11.564,23.4153 C11.562,23.2583 11.592,23.0603 11.659,22.8223 L11.793,22.3473 C11.675,21.8363 11.683,21.4233 11.819,21.1033 L11.88,20.6293 L11.944,20.1553 L12.247,19.3213 C12.481,18.5683 12.832,17.7333 13.3,16.8163 L13.968,15.5593 L14.653,14.3623 L14.789,14.1223 L14.855,13.8843 C14.874,13.6463 14.916,13.4883 14.987,13.4063 C15.403,12.9253 15.861,12.2843 16.364,11.4823 L16.907,10.5213 C17.124,10.1623 17.295,9.8823 17.42,9.6803 C17.807,9.1193 18.225,8.3573 18.671,7.3973 L19.274,6.1953 L20.8,4.3193 L20.985,4.0173 C21.181,3.8943 21.38,3.6343 21.58,3.2303 L21.83,2.6903 L22.148,2.1463 C22.66,1.2623 23.29,0.7913 24.034,0.7343 L24.388,0.7263 C24.471,0.6853 24.535,0.6643 24.581,0.6633 C24.677,0.6613 24.778,0.6783 24.887,0.7163 C25.123,0.7113 25.544,0.9013 26.151,1.2853 L26.514,1.5163 L26.81,1.7493 C27.112,1.9413 27.294,2.0563 27.355,2.0953 L27.902,2.4423 L28.447,2.7883 C28.9,3.1373 29.255,3.4093 29.512,3.6013 C29.949,3.9123 30.197,4.1453 30.251,4.3033 C30.291,4.4223 30.24,4.4823 30.097,4.4853 C29.671,4.4943 28.624,5.8493 26.949,8.5463 C26.681,9.0283 26.378,9.5513 26.042,10.1123 C25.806,10.5543 25.541,11.0553 25.252,11.6163 C24.642,12.6593 24.301,13.2203 24.234,13.3013 C24.187,13.7383 23.953,14.2583 23.53,14.8603 C23.484,15.2973 23.381,15.6363 23.222,15.8763 L23.073,16.2943 L22.923,16.7133 L22.586,17.4313 L22.009,18.5123 L21.428,19.5893 C20.915,20.5093 20.54,21.2643 20.304,21.8613 L20.291,22.0403 L20.226,22.2783 C20.242,22.4763 20.217,22.6153 20.147,22.6943 C19.765,23.2933 19.512,23.9103 19.384,24.5443 L19.252,25.0193 L19.192,25.4953 L19.212,25.5533 L19.178,25.6733 L19.198,25.7313 C19.237,25.8503 19.328,25.9083 19.472,25.9063 L19.545,25.9053 C19.735,25.9023 19.859,25.8423 19.918,25.7213 L19.852,25.9603 L19.871,26.0193 L19.943,26.0173 L19.996,25.9583 L20.048,25.8983 L20.14,25.9563 L20.643,25.9493 L20.809,26.0063 L20.79,25.9473 L20.967,25.8263 L21.143,25.7043 L21.53,25.3443 L21.916,24.9813 C22.128,24.7413 22.361,24.5013 22.618,24.2603 C23.692,23.1373 24.26,22.5343 24.331,22.4543 C24.488,22.0563 24.764,21.6563 25.16,21.2533 L25.72,20.7693 L26.19,20.2263 C27.06,19.3813 28.071,18.2333 29.219,16.7853 L30.627,14.9743 L32.121,13.2193 C33.115,12.0493 34.258,10.7543 35.548,9.3353 L37.171,7.5713 L38.721,5.8043 C39.985,4.3423 41.043,3.1813 41.894,2.3253 C42.135,1.9213 42.405,1.5953 42.702,1.3473 L42.774,1.3453 L42.854,1.1653 C42.872,1.0853 42.929,1.0433 43.025,1.0413 L43.046,1.1003 L43.126,0.9193 L43.298,0.7963 C43.412,0.7133 43.545,0.6093 43.693,0.4863 C43.726,0.4473 43.814,0.4243 43.956,0.4213 C44.334,0.4123 45.174,0.6353 46.476,1.0873 L46.985,1.3163 Z" id="Fill-11" fill="#E0B169" mask="url(#mask-2)"></path>
                        </g>
                        <g id="Group-16" transform="translate(215.000000, 81.189000)" fill="#E0B169">
                            <path d="M40.4504,0.2648 C40.3224,0.2398 40.1154,0.2718 39.8254,0.3638 L39.4474,0.4498 L39.0144,0.5318 C38.9594,0.5468 38.7434,0.6068 38.3654,0.7098 C38.1664,0.7528 37.9954,0.7868 37.8504,0.8148 L37.2544,0.9428 C36.2624,1.1558 35.6844,1.2648 35.5214,1.2728 C26.7664,3.1188 17.9154,6.3958 8.9694,11.0998 L8.0814,11.5638 L7.1934,12.0278 C6.4764,12.4188 5.8944,12.7568 5.4474,13.0378 L3.7824,14.0268 L2.1184,15.0698 L0.5354,16.0898 L0.0764,16.3768 L2.9364,19.3518 L3.1314,19.2168 L4.4454,18.3438 L5.7594,17.4708 L6.9394,16.6698 L8.1454,15.8448 C8.8604,15.3788 9.6654,14.8478 10.5594,14.2468 L12.9444,12.6218 L14.1254,11.8218 L15.2524,11.1268 C15.9564,10.9708 16.7644,10.6578 17.6794,10.1858 C23.4054,7.4288 28.7864,5.1498 33.8254,3.3488 C33.9684,3.2858 34.2754,3.1948 34.7434,3.0778 C34.9244,3.0528 35.1594,3.0118 35.4494,2.9568 L36.2344,2.8148 C37.6604,2.5568 38.5624,2.3208 38.9384,2.1078 C39.1184,2.0098 39.3784,1.9078 39.7214,1.7998 L40.0724,1.6858 L40.4774,1.5748 C40.9814,1.3868 41.2024,1.1558 41.1424,0.8788 C41.0834,0.6398 40.8524,0.4348 40.4504,0.2648" id="Fill-14"></path>
                        </g>
                        <path d="M72.7029,119.735 L74.0449,119.735 C74.7229,119.735 75.3859,119.687 75.8909,119.294 C76.2999,118.993 76.5839,118.472 76.5839,117.841 C76.5839,117.006 76.0959,116.516 75.6849,116.296 C75.2899,116.075 74.7389,115.98 73.9029,115.98 L72.7029,115.98 L72.7029,119.735 Z M72.7029,114.939 L73.5879,114.939 C74.2029,114.939 75.6539,114.812 75.6539,113.188 C75.6539,111.453 73.9499,111.421 73.6189,111.421 L72.7029,111.421 L72.7029,114.939 Z M73.4299,110.317 C74.0139,110.317 75.0699,110.364 75.8429,110.979 C76.1749,111.232 76.7899,111.879 76.7899,113.156 C76.7899,113.677 76.6789,114.591 75.7489,115.223 C77.2159,115.586 77.7519,116.864 77.7519,117.874 C77.7519,118.882 77.2469,119.703 76.6789,120.144 C75.8429,120.807 74.8809,120.839 74.1559,120.839 L71.5359,120.839 L71.5359,110.317 L73.4299,110.317 Z" id="Fill-17" fill="#E0B169"></path>
                        <mask id="mask-4" fill="white">
                            <use xlink:href="#path-3"></use>
                        </mask>
                        <g id="Clip-20"></g>
                        <polygon id="Fill-19" fill="#E0B169" mask="url(#mask-4)" points="85.574 120.839 86.741 120.839 86.741 110.318 85.574 110.318"></polygon>
                        <path d="M99.8337,112.3991 C99.6917,112.1151 99.4547,111.7991 99.2187,111.6101 C99.0127,111.4531 98.6347,111.2481 98.0357,111.2481 C96.9937,111.2481 96.2677,111.8941 96.2677,112.8731 C96.2677,113.2831 96.3787,113.5191 96.6627,113.7881 C96.9777,114.1031 97.3727,114.2761 97.7677,114.4501 L98.7767,114.8921 C99.3917,115.1601 99.9597,115.4441 100.4017,115.8851 C100.9377,116.4211 101.1587,117.0371 101.1587,117.7951 C101.1587,119.7351 99.7227,121.0281 97.8297,121.0281 C97.1357,121.0281 96.2677,120.8861 95.5417,120.1761 C95.0227,119.6711 94.7067,118.9461 94.5637,118.3151 L95.6997,118.0001 C95.7797,118.5511 96.0317,119.0251 96.3317,119.3401 C96.7897,119.7971 97.3087,119.9231 97.8457,119.9231 C99.2807,119.9231 99.9597,118.8981 99.9597,117.8411 C99.9597,117.3691 99.8177,116.9581 99.4387,116.6111 C99.1397,116.3271 98.7287,116.1381 98.1777,115.8851 L97.2307,115.4441 C96.8207,115.2541 96.3007,115.0341 95.8267,114.5761 C95.3697,114.1341 95.1007,113.6451 95.1007,112.8561 C95.1007,111.2321 96.3477,110.1431 98.0517,110.1431 C98.6977,110.1431 99.2187,110.2691 99.7387,110.6171 C100.1647,110.9001 100.5277,111.3271 100.7637,111.7841 L99.8337,112.3991 Z" id="Fill-21" fill="#E0B169" mask="url(#mask-4)"></path>
                        <path d="M117.0256,112.6354 C116.6946,112.3044 116.1896,111.9094 115.6536,111.6574 C115.1016,111.4054 114.4546,111.2474 113.8386,111.2474 C111.4096,111.2474 109.6116,113.2034 109.6116,115.6334 C109.6116,118.4884 111.9306,119.9234 113.8546,119.9234 C114.5646,119.9234 115.2586,119.7184 115.8116,119.4354 C116.4106,119.1344 116.8366,118.7404 117.0256,118.5514 L117.0256,120.0024 C115.8586,120.8384 114.6446,121.0284 113.8546,121.0284 C110.7326,121.0284 108.4126,118.6614 108.4126,115.6174 C108.4126,112.4784 110.7636,110.1434 113.9186,110.1434 C114.5486,110.1434 115.7636,110.2224 117.0256,111.1844 L117.0256,112.6354 Z" id="Fill-22" fill="#E0B169" mask="url(#mask-4)"></path>
                        <path d="M126.0159,116.7692 C126.0159,117.6522 126.0159,118.6152 126.8509,119.3252 C127.2769,119.6872 128.0029,119.9232 128.5859,119.9232 C129.1699,119.9232 129.8949,119.6872 130.3219,119.3252 C131.1579,118.6152 131.1579,117.6522 131.1579,116.7692 L131.1579,110.3172 L132.3249,110.3172 L132.3249,117.0842 C132.3249,117.9672 132.2309,118.8202 131.6629,119.6082 C131.0319,120.4762 129.9279,121.0282 128.5859,121.0282 C127.2449,121.0282 126.1409,120.4762 125.5109,119.6082 C124.9429,118.8202 124.8479,117.9672 124.8479,117.0842 L124.8479,110.3172 L126.0159,110.3172 L126.0159,116.7692 Z" id="Fill-23" fill="#E0B169" mask="url(#mask-4)"></path>
                        <polygon id="Fill-24" fill="#E0B169" mask="url(#mask-4)" points="140.715 120.839 141.883 120.839 141.883 110.318 140.715 110.318"></polygon>
                        <polygon id="Fill-25" fill="#E0B169" mask="url(#mask-4)" points="152.8601 111.4206 152.8601 120.8386 151.6931 120.8386 151.6931 111.4206 149.1381 111.4206 149.1381 110.3166 155.4161 110.3166 155.4161 111.4206"></polygon>
                        <path d="M166.946,112.3991 C166.804,112.1151 166.567,111.7991 166.331,111.6101 C166.126,111.4531 165.748,111.2481 165.148,111.2481 C164.106,111.2481 163.381,111.8941 163.381,112.8731 C163.381,113.2831 163.491,113.5191 163.775,113.7881 C164.091,114.1031 164.485,114.2761 164.88,114.4501 L165.889,114.8921 C166.505,115.1601 167.072,115.4441 167.514,115.8851 C168.051,116.4211 168.271,117.0371 168.271,117.7951 C168.271,119.7351 166.836,121.0281 164.943,121.0281 C164.248,121.0281 163.381,120.8861 162.655,120.1761 C162.135,119.6711 161.819,118.9461 161.676,118.3151 L162.813,118.0001 C162.892,118.5511 163.145,119.0251 163.445,119.3401 C163.902,119.7971 164.422,119.9231 164.958,119.9231 C166.394,119.9231 167.072,118.8981 167.072,117.8411 C167.072,117.3691 166.93,116.9581 166.551,116.6111 C166.252,116.3271 165.842,116.1381 165.29,115.8851 L164.343,115.4441 C163.933,115.2541 163.413,115.0341 162.939,114.5761 C162.482,114.1341 162.214,113.6451 162.214,112.8561 C162.214,111.2321 163.46,110.1431 165.164,110.1431 C165.81,110.1431 166.331,110.2691 166.851,110.6171 C167.277,110.9001 167.64,111.3271 167.876,111.7841 L166.946,112.3991 Z" id="Fill-26" fill="#E0B169" mask="url(#mask-4)"></path>
                    </g>
                </g>
            </g>
        </g>
    </g>
</svg>