<svg width="171" height="71" viewBox="0 0 171 71" fill="none" xmlns="http://www.w3.org/2000/svg">
<path d="M53.69 25.9L56.42 23.22C56.64 23.0067 56.8133 22.7933 56.94 22.58C57.0733 22.36 57.14 22.11 57.14 21.83C57.14 21.4967 57.03 21.2333 56.81 21.04C56.5967 20.84 56.33 20.74 56.01 20.74C55.67 20.74 55.3967 20.8567 55.19 21.09C54.9833 21.3167 54.8567 21.6033 54.81 21.95L53.64 21.77C53.6733 21.4767 53.7567 21.2067 53.89 20.96C54.0233 20.7133 54.1933 20.5 54.4 20.32C54.6067 20.14 54.8467 20 55.12 19.9C55.4 19.7933 55.7033 19.74 56.03 19.74C56.3367 19.74 56.63 19.7833 56.91 19.87C57.1967 19.9567 57.45 20.09 57.67 20.27C57.89 20.4433 58.0633 20.66 58.19 20.92C58.3233 21.1733 58.39 21.47 58.39 21.81C58.39 22.0367 58.36 22.25 58.3 22.45C58.24 22.6433 58.1567 22.8267 58.05 23C57.95 23.1733 57.83 23.34 57.69 23.5C57.5567 23.6533 57.41 23.8033 57.25 23.95L55.21 25.9H58.4V27H53.69V25.9ZM64.6535 23.46C64.6535 24.0333 64.5968 24.55 64.4835 25.01C64.3768 25.47 64.2168 25.86 64.0035 26.18C63.7968 26.5 63.5368 26.7467 63.2235 26.92C62.9168 27.0933 62.5635 27.18 62.1635 27.18C61.7635 27.18 61.4068 27.0933 61.0935 26.92C60.7802 26.7467 60.5168 26.5 60.3035 26.18C60.0902 25.86 59.9268 25.47 59.8135 25.01C59.7068 24.55 59.6535 24.0333 59.6535 23.46C59.6535 22.8867 59.7068 22.37 59.8135 21.91C59.9268 21.45 60.0902 21.06 60.3035 20.74C60.5168 20.42 60.7802 20.1733 61.0935 20C61.4068 19.8267 61.7635 19.74 62.1635 19.74C62.5635 19.74 62.9168 19.8267 63.2235 20C63.5368 20.1733 63.7968 20.42 64.0035 20.74C64.2168 21.06 64.3768 21.45 64.4835 21.91C64.5968 22.37 64.6535 22.8867 64.6535 23.46ZM63.4235 23.46C63.4235 23.2133 63.4068 22.9333 63.3735 22.62C63.3468 22.3067 63.2868 22.01 63.1935 21.73C63.1068 21.45 62.9802 21.2167 62.8135 21.03C62.6468 20.8367 62.4302 20.74 62.1635 20.74C61.8902 20.74 61.6702 20.8367 61.5035 21.03C61.3368 21.2167 61.2068 21.45 61.1135 21.73C61.0268 22.01 60.9668 22.3067 60.9335 22.62C60.9002 22.9333 60.8835 23.2133 60.8835 23.46C60.8835 23.7067 60.9002 23.9867 60.9335 24.3C60.9668 24.6133 61.0268 24.9067 61.1135 25.18C61.2068 25.4533 61.3368 25.6867 61.5035 25.88C61.6702 26.0667 61.8902 26.16 62.1635 26.16C62.4302 26.16 62.6468 26.0667 62.8135 25.88C62.9802 25.6867 63.1068 25.4533 63.1935 25.18C63.2868 24.9067 63.3468 24.6133 63.3735 24.3C63.4068 23.9867 63.4235 23.7067 63.4235 23.46ZM66.147 25.62H67.307L66.457 28.26H65.447L66.147 25.62ZM72.8547 21H69.9647L69.8947 22.53C70.008 22.4967 70.1414 22.4733 70.2947 22.46C70.4547 22.4467 70.598 22.44 70.7247 22.44C71.0714 22.44 71.3914 22.49 71.6847 22.59C71.9847 22.69 72.2447 22.8367 72.4647 23.03C72.6847 23.2167 72.8547 23.45 72.9747 23.73C73.1014 24.0033 73.1647 24.32 73.1647 24.68C73.1647 25.0733 73.0947 25.4267 72.9547 25.74C72.8214 26.0467 72.638 26.3067 72.4047 26.52C72.1714 26.7333 71.898 26.8967 71.5847 27.01C71.2714 27.1233 70.938 27.18 70.5847 27.18C69.9914 27.18 69.4914 27.0433 69.0847 26.77C68.678 26.49 68.3814 26.11 68.1947 25.63L69.2847 25.23C69.3847 25.51 69.5514 25.7367 69.7847 25.91C70.018 26.0767 70.2947 26.16 70.6147 26.16C70.7947 26.16 70.9647 26.13 71.1247 26.07C71.2847 26.01 71.4247 25.9233 71.5447 25.81C71.6647 25.6967 71.758 25.5567 71.8247 25.39C71.898 25.2167 71.9347 25.0233 71.9347 24.81C71.9347 24.5367 71.888 24.31 71.7947 24.13C71.7014 23.95 71.578 23.8067 71.4247 23.7C71.278 23.5867 71.1114 23.51 70.9247 23.47C70.738 23.4233 70.548 23.4 70.3547 23.4C70.2214 23.4 70.078 23.41 69.9247 23.43C69.778 23.45 69.6314 23.48 69.4847 23.52C69.3447 23.5533 69.2047 23.5933 69.0647 23.64C68.9314 23.6867 68.8114 23.7367 68.7047 23.79L68.8247 19.92H72.8547V21ZM78.3182 19.92L76.5082 22.54L76.5182 22.55C76.6115 22.51 76.7282 22.48 76.8682 22.46C77.0149 22.44 77.1482 22.43 77.2682 22.43C77.5815 22.43 77.8749 22.49 78.1482 22.61C78.4215 22.7233 78.6615 22.8833 78.8682 23.09C79.0749 23.29 79.2349 23.53 79.3482 23.81C79.4682 24.0833 79.5282 24.38 79.5282 24.7C79.5282 25.0733 79.4615 25.4133 79.3282 25.72C79.1949 26.0267 79.0115 26.29 78.7782 26.51C78.5515 26.7233 78.2782 26.8867 77.9582 27C77.6449 27.12 77.3082 27.18 76.9482 27.18C76.5749 27.18 76.2315 27.12 75.9182 27C75.6049 26.8733 75.3315 26.7 75.0982 26.48C74.8649 26.26 74.6815 26.0033 74.5482 25.71C74.4215 25.41 74.3582 25.09 74.3582 24.75C74.3582 24.55 74.3749 24.3633 74.4082 24.19C74.4415 24.01 74.4882 23.84 74.5482 23.68C74.6149 23.5133 74.6915 23.3467 74.7782 23.18C74.8715 23.0133 74.9749 22.84 75.0882 22.66L76.8582 19.92H78.3182ZM75.5782 24.78C75.5782 24.9667 75.6082 25.1433 75.6682 25.31C75.7349 25.4767 75.8282 25.6233 75.9482 25.75C76.0682 25.8767 76.2115 25.9767 76.3782 26.05C76.5449 26.1233 76.7315 26.16 76.9382 26.16C77.3449 26.16 77.6715 26.0333 77.9182 25.78C78.1715 25.52 78.2982 25.18 78.2982 24.76C78.2982 24.56 78.2649 24.3767 78.1982 24.21C78.1382 24.0367 78.0482 23.89 77.9282 23.77C77.8082 23.65 77.6649 23.5567 77.4982 23.49C77.3382 23.4167 77.1582 23.38 76.9582 23.38C76.7582 23.38 76.5715 23.4133 76.3982 23.48C76.2315 23.5467 76.0849 23.6433 75.9582 23.77C75.8382 23.89 75.7449 24.0367 75.6782 24.21C75.6115 24.3833 75.5782 24.5733 75.5782 24.78Z" fill="#7A18F6"/>
<path d="M87.68 25.83H86.24V25.218H87.68V25.83ZM88.9299 27L90.0219 25.422L90.0159 25.416C89.9559 25.444 89.8819 25.464 89.7939 25.476C89.7099 25.488 89.6319 25.494 89.5599 25.494C89.3719 25.494 89.1959 25.46 89.0319 25.392C88.8679 25.32 88.7239 25.224 88.5999 25.104C88.4759 24.98 88.3779 24.836 88.3059 24.672C88.2379 24.504 88.2039 24.324 88.2039 24.132C88.2039 23.908 88.2439 23.704 88.3239 23.52C88.4039 23.336 88.5119 23.18 88.6479 23.052C88.7879 22.92 88.9519 22.82 89.1399 22.752C89.3319 22.68 89.5359 22.644 89.7519 22.644C89.9719 22.644 90.1759 22.682 90.3639 22.758C90.5559 22.83 90.7219 22.932 90.8619 23.064C91.0019 23.196 91.1099 23.352 91.1859 23.532C91.2659 23.708 91.3059 23.898 91.3059 24.102C91.3059 24.222 91.2959 24.336 91.2759 24.444C91.2559 24.548 91.2259 24.65 91.1859 24.75C91.1499 24.846 91.1039 24.944 91.0479 25.044C90.9959 25.144 90.9359 25.248 90.8679 25.356L89.8059 27H88.9299ZM90.5739 24.084C90.5739 23.972 90.5539 23.866 90.5139 23.766C90.4779 23.666 90.4239 23.578 90.3519 23.502C90.2799 23.422 90.1939 23.36 90.0939 23.316C89.9939 23.268 89.8819 23.244 89.7579 23.244C89.5139 23.244 89.3159 23.324 89.1639 23.484C89.0159 23.64 88.9419 23.844 88.9419 24.096C88.9419 24.216 88.9599 24.328 88.9959 24.432C89.0359 24.532 89.0919 24.618 89.1639 24.69C89.2359 24.762 89.3199 24.82 89.4159 24.864C89.5159 24.904 89.6259 24.924 89.7459 24.924C89.8659 24.924 89.9759 24.904 90.0759 24.864C90.1799 24.824 90.2679 24.768 90.3399 24.696C90.4159 24.62 90.4739 24.53 90.5139 24.426C90.5539 24.322 90.5739 24.208 90.5739 24.084ZM91.998 26.34L93.636 24.732C93.768 24.604 93.872 24.476 93.948 24.348C94.028 24.216 94.068 24.066 94.068 23.898C94.068 23.698 94.002 23.54 93.87 23.424C93.742 23.304 93.582 23.244 93.39 23.244C93.186 23.244 93.022 23.314 92.898 23.454C92.774 23.59 92.698 23.762 92.67 23.97L91.968 23.862C91.988 23.686 92.038 23.524 92.118 23.376C92.198 23.228 92.3 23.1 92.424 22.992C92.548 22.884 92.692 22.8 92.856 22.74C93.024 22.676 93.206 22.644 93.402 22.644C93.586 22.644 93.762 22.67 93.93 22.722C94.102 22.774 94.254 22.854 94.386 22.962C94.518 23.066 94.622 23.196 94.698 23.352C94.778 23.504 94.818 23.682 94.818 23.886C94.818 24.022 94.8 24.15 94.764 24.27C94.728 24.386 94.678 24.496 94.614 24.6C94.554 24.704 94.482 24.804 94.398 24.9C94.318 24.992 94.23 25.082 94.134 25.17L92.91 26.34H94.824V27H91.998V26.34ZM95.5461 26.58C95.5461 26.452 95.5921 26.342 95.6841 26.25C95.7801 26.158 95.8941 26.112 96.0261 26.112C96.1541 26.112 96.2661 26.156 96.3621 26.244C96.4581 26.332 96.5061 26.44 96.5061 26.568C96.5061 26.696 96.4581 26.806 96.3621 26.898C96.2701 26.99 96.1581 27.036 96.0261 27.036C95.9621 27.036 95.9001 27.024 95.8401 27C95.7841 26.976 95.7341 26.944 95.6901 26.904C95.6461 26.864 95.6101 26.816 95.5821 26.76C95.5581 26.704 95.5461 26.644 95.5461 26.58ZM98.0767 24.498H98.2687C98.3767 24.498 98.4827 24.49 98.5867 24.474C98.6947 24.454 98.7927 24.42 98.8807 24.372C98.9687 24.324 99.0387 24.26 99.0907 24.18C99.1467 24.096 99.1747 23.988 99.1747 23.856C99.1747 23.76 99.1567 23.674 99.1207 23.598C99.0847 23.522 99.0347 23.458 98.9707 23.406C98.9107 23.354 98.8387 23.314 98.7547 23.286C98.6747 23.258 98.5907 23.244 98.5027 23.244C98.3267 23.244 98.1807 23.294 98.0647 23.394C97.9487 23.494 97.8687 23.626 97.8247 23.79L97.1467 23.616C97.1827 23.472 97.2427 23.342 97.3267 23.226C97.4147 23.106 97.5187 23.004 97.6387 22.92C97.7627 22.832 97.9007 22.764 98.0527 22.716C98.2047 22.668 98.3647 22.644 98.5327 22.644C98.7167 22.644 98.8907 22.67 99.0547 22.722C99.2227 22.77 99.3687 22.844 99.4927 22.944C99.6207 23.04 99.7207 23.16 99.7927 23.304C99.8647 23.448 99.9007 23.616 99.9007 23.808C99.9007 24.036 99.8307 24.24 99.6907 24.42C99.5547 24.596 99.3707 24.712 99.1387 24.768V24.78C99.3987 24.832 99.6087 24.95 99.7687 25.134C99.9327 25.314 100.015 25.536 100.015 25.8C100.015 26.02 99.9707 26.212 99.8827 26.376C99.7987 26.54 99.6847 26.676 99.5407 26.784C99.4007 26.892 99.2427 26.972 99.0667 27.024C98.8907 27.08 98.7127 27.108 98.5327 27.108C98.3527 27.108 98.1827 27.088 98.0227 27.048C97.8627 27.012 97.7147 26.954 97.5787 26.874C97.4467 26.794 97.3287 26.69 97.2247 26.562C97.1247 26.434 97.0467 26.282 96.9907 26.106L97.6627 25.896C97.7147 26.064 97.8107 26.206 97.9507 26.322C98.0947 26.438 98.2807 26.496 98.5087 26.496C98.6007 26.496 98.6927 26.484 98.7847 26.46C98.8807 26.432 98.9647 26.39 99.0367 26.334C99.1127 26.278 99.1727 26.206 99.2167 26.118C99.2647 26.03 99.2887 25.922 99.2887 25.794C99.2887 25.658 99.2547 25.544 99.1867 25.452C99.1227 25.356 99.0407 25.282 98.9407 25.23C98.8407 25.174 98.7287 25.134 98.6047 25.11C98.4847 25.086 98.3687 25.074 98.2567 25.074H98.0767V24.498ZM102.555 26.118H100.593V25.482L102.399 22.752H103.263V25.5H103.857V26.118H103.263V27H102.555V26.118ZM102.555 23.598H102.543L101.337 25.5H102.555V23.598ZM107.237 25.956C107.237 25.8 107.265 25.656 107.321 25.524C107.381 25.388 107.461 25.27 107.561 25.17C107.665 25.066 107.783 24.986 107.915 24.93C108.051 24.87 108.197 24.84 108.353 24.84C108.509 24.84 108.653 24.87 108.785 24.93C108.921 24.986 109.039 25.066 109.139 25.17C109.243 25.27 109.323 25.388 109.379 25.524C109.439 25.656 109.469 25.8 109.469 25.956C109.469 26.112 109.439 26.258 109.379 26.394C109.323 26.526 109.243 26.644 109.139 26.748C109.039 26.848 108.921 26.928 108.785 26.988C108.653 27.044 108.509 27.072 108.353 27.072C108.197 27.072 108.051 27.044 107.915 26.988C107.783 26.928 107.665 26.848 107.561 26.748C107.461 26.644 107.381 26.526 107.321 26.394C107.265 26.258 107.237 26.112 107.237 25.956ZM108.893 25.956C108.893 25.804 108.841 25.676 108.737 25.572C108.633 25.468 108.505 25.416 108.353 25.416C108.201 25.416 108.073 25.468 107.969 25.572C107.865 25.676 107.813 25.804 107.813 25.956C107.813 26.108 107.865 26.236 107.969 26.34C108.073 26.444 108.201 26.496 108.353 26.496C108.505 26.496 108.633 26.444 108.737 26.34C108.841 26.236 108.893 26.108 108.893 25.956ZM104.369 23.796C104.369 23.64 104.397 23.496 104.453 23.364C104.513 23.228 104.593 23.11 104.693 23.01C104.797 22.906 104.915 22.826 105.047 22.77C105.183 22.71 105.329 22.68 105.485 22.68C105.641 22.68 105.785 22.71 105.917 22.77C106.053 22.826 106.171 22.906 106.271 23.01C106.375 23.11 106.455 23.228 106.511 23.364C106.571 23.496 106.601 23.64 106.601 23.796C106.601 23.952 106.571 24.098 106.511 24.234C106.455 24.366 106.375 24.484 106.271 24.588C106.171 24.688 106.053 24.768 105.917 24.828C105.785 24.884 105.641 24.912 105.485 24.912C105.329 24.912 105.183 24.884 105.047 24.828C104.915 24.768 104.797 24.688 104.693 24.588C104.593 24.484 104.513 24.366 104.453 24.234C104.397 24.098 104.369 23.952 104.369 23.796ZM106.025 23.796C106.025 23.644 105.973 23.516 105.869 23.412C105.765 23.308 105.637 23.256 105.485 23.256C105.333 23.256 105.205 23.308 105.101 23.412C104.997 23.516 104.945 23.644 104.945 23.796C104.945 23.948 104.997 24.076 105.101 24.18C105.205 24.284 105.333 24.336 105.485 24.336C105.637 24.336 105.765 24.284 105.869 24.18C105.973 24.076 106.025 23.948 106.025 23.796ZM107.915 22.56L108.413 22.788L105.917 27.192L105.419 26.964L107.915 22.56Z" fill="#1CED8C"/>
<path d="M77.8395 5.09233H76.7315C76.6889 4.85559 76.6096 4.64725 76.4936 4.46733C76.3776 4.28741 76.2356 4.13471 76.0675 4.00923C75.8994 3.88376 75.7112 3.78906 75.5028 3.72514C75.2969 3.66122 75.0779 3.62926 74.8459 3.62926C74.4268 3.62926 74.0516 3.73461 73.7202 3.94531C73.3911 4.15601 73.1307 4.46496 72.9389 4.87216C72.7495 5.27936 72.6548 5.77652 72.6548 6.36364C72.6548 6.95549 72.7495 7.45502 72.9389 7.86222C73.1307 8.26941 73.3923 8.57718 73.7237 8.78551C74.0552 8.99384 74.428 9.09801 74.8423 9.09801C75.072 9.09801 75.2898 9.06723 75.4957 9.00568C75.7041 8.94176 75.8923 8.84825 76.0604 8.72514C76.2285 8.60204 76.3705 8.4517 76.4865 8.27415C76.6049 8.09422 76.6866 7.88826 76.7315 7.65625L77.8395 7.6598C77.7803 8.01728 77.6655 8.34635 77.495 8.64702C77.3269 8.94531 77.1103 9.20336 76.8452 9.42116C76.5824 9.6366 76.2817 9.8035 75.9432 9.92188C75.6046 10.0402 75.2353 10.0994 74.8352 10.0994C74.2055 10.0994 73.6444 9.95028 73.152 9.65199C72.6596 9.35133 72.2713 8.92164 71.9872 8.36293C71.7055 7.80421 71.5646 7.13778 71.5646 6.36364C71.5646 5.58712 71.7067 4.92069 71.9908 4.36435C72.2749 3.80563 72.6631 3.37713 73.1555 3.07884C73.648 2.77817 74.2079 2.62784 74.8352 2.62784C75.2211 2.62784 75.581 2.68348 75.9148 2.79474C76.2509 2.90365 76.5528 3.06463 76.8203 3.2777C77.0878 3.4884 77.3092 3.74645 77.4844 4.05185C77.6596 4.35488 77.7779 4.7017 77.8395 5.09233ZM79.1525 10V2.72727H81.7449C82.3107 2.72727 82.7794 2.83026 83.1511 3.03622C83.5228 3.24219 83.801 3.52391 83.9856 3.88139C84.1703 4.23651 84.2626 4.6366 84.2626 5.08168C84.2626 5.52912 84.1691 5.93158 83.9821 6.28906C83.7974 6.64418 83.5181 6.9259 83.144 7.13423C82.7723 7.3402 82.3047 7.44318 81.7413 7.44318H79.9586V6.51278H81.6419C81.9993 6.51278 82.2894 6.45123 82.5119 6.32812C82.7344 6.20265 82.8978 6.0322 83.002 5.81676C83.1061 5.60133 83.1582 5.3563 83.1582 5.08168C83.1582 4.80705 83.1061 4.56321 83.002 4.35014C82.8978 4.13707 82.7333 3.97017 82.5083 3.84943C82.2858 3.72869 81.9922 3.66832 81.6277 3.66832H80.2498V10H79.1525ZM85.3919 10H84.2271L86.8443 2.72727H88.112L90.7292 10H89.5645L87.5083 4.0483H87.4515L85.3919 10ZM85.5872 7.15199H89.3656V8.07528H85.5872V7.15199Z" fill="#0C0C0D"/>
<path d="M4.2 67.168H4.636L5.856 70H5.28L5.016 69.352H3.788L3.532 70H2.968L4.2 67.168ZM4.84 68.92L4.404 67.768L3.96 68.92H4.84ZM6.57222 68.08V68.348H6.58422C6.60822 68.3107 6.63889 68.2733 6.67622 68.236C6.71622 68.196 6.76422 68.1613 6.82022 68.132C6.87622 68.1 6.93889 68.0747 7.00822 68.056C7.08022 68.0347 7.16022 68.024 7.24822 68.024C7.38422 68.024 7.50955 68.0507 7.62422 68.104C7.73889 68.1547 7.83755 68.2253 7.92022 68.316C8.00289 68.4067 8.06689 68.5133 8.11222 68.636C8.15755 68.7587 8.18022 68.8907 8.18022 69.032C8.18022 69.1733 8.15755 69.3067 8.11222 69.432C8.06955 69.5547 8.00689 69.6627 7.92422 69.756C7.84422 69.8467 7.74555 69.92 7.62822 69.976C7.51355 70.0293 7.38289 70.056 7.23622 70.056C7.10022 70.056 6.97489 70.028 6.86022 69.972C6.74822 69.916 6.66155 69.84 6.60022 69.744H6.59222V70.96H6.11222V68.08H6.57222ZM7.69222 69.032C7.69222 68.9573 7.68022 68.884 7.65622 68.812C7.63489 68.7373 7.60155 68.6707 7.55622 68.612C7.51089 68.5533 7.45355 68.5067 7.38422 68.472C7.31489 68.4347 7.23355 68.416 7.14022 68.416C7.05222 68.416 6.97355 68.4347 6.90422 68.472C6.83489 68.5093 6.77489 68.5573 6.72422 68.616C6.67622 68.6747 6.63889 68.7413 6.61222 68.816C6.58822 68.8907 6.57622 68.9653 6.57622 69.04C6.57622 69.1147 6.58822 69.1893 6.61222 69.264C6.63889 69.336 6.67622 69.4013 6.72422 69.46C6.77489 69.5187 6.83489 69.5667 6.90422 69.604C6.97355 69.6387 7.05222 69.656 7.14022 69.656C7.23355 69.656 7.31489 69.6373 7.38422 69.6C7.45355 69.5627 7.51089 69.5147 7.55622 69.456C7.60155 69.3973 7.63489 69.3307 7.65622 69.256C7.68022 69.1813 7.69222 69.1067 7.69222 69.032ZM8.64347 68.08H9.10347V68.4H9.11147C9.1648 68.288 9.23947 68.1973 9.33547 68.128C9.43147 68.0587 9.54347 68.024 9.67147 68.024C9.69014 68.024 9.71014 68.0253 9.73147 68.028C9.7528 68.028 9.77147 68.0307 9.78747 68.036V68.476C9.75547 68.468 9.72747 68.4627 9.70347 68.46C9.68214 68.4573 9.6608 68.456 9.63947 68.456C9.53014 68.456 9.44214 68.476 9.37547 68.516C9.3088 68.556 9.2568 68.604 9.21947 68.66C9.18214 68.716 9.1568 68.7733 9.14347 68.832C9.13014 68.8907 9.12347 68.9373 9.12347 68.972V70H8.64347V68.08ZM9.82109 69.72C9.82109 69.6347 9.85176 69.5613 9.91309 69.5C9.97709 69.4387 10.0531 69.408 10.1411 69.408C10.2264 69.408 10.3011 69.4373 10.3651 69.496C10.4291 69.5547 10.4611 69.6267 10.4611 69.712C10.4611 69.7973 10.4291 69.8707 10.3651 69.932C10.3038 69.9933 10.2291 70.024 10.1411 70.024C10.0984 70.024 10.0571 70.016 10.0171 70C9.97976 69.984 9.94643 69.9627 9.91709 69.936C9.88776 69.9093 9.86376 69.8773 9.84509 69.84C9.82909 69.8027 9.82109 69.7627 9.82109 69.72Z" fill="#0C0C0D"/>
<path d="M30.312 67.168H31.1L31.836 69.18H31.848L32.576 67.168H33.368V70H32.868V67.724H32.86L32 70H31.648L30.8 67.724H30.792V70H30.312V67.168ZM35.1597 69.756H35.1477C35.0997 69.8413 35.0224 69.912 34.9157 69.968C34.809 70.0213 34.6877 70.048 34.5517 70.048C34.4744 70.048 34.393 70.0373 34.3077 70.016C34.225 69.9973 34.1477 69.9653 34.0757 69.92C34.0064 69.872 33.9477 69.8107 33.8997 69.736C33.8544 69.6587 33.8317 69.564 33.8317 69.452C33.8317 69.308 33.8717 69.1933 33.9517 69.108C34.0344 69.0227 34.1397 68.9573 34.2677 68.912C34.3957 68.8667 34.537 68.8373 34.6917 68.824C34.849 68.808 35.0024 68.8 35.1517 68.8V68.752C35.1517 68.632 35.1077 68.544 35.0197 68.488C34.9344 68.4293 34.8317 68.4 34.7117 68.4C34.6104 68.4 34.513 68.4213 34.4197 68.464C34.3264 68.5067 34.249 68.5587 34.1877 68.62L33.9397 68.328C34.049 68.2267 34.1744 68.1507 34.3157 68.1C34.4597 68.0493 34.605 68.024 34.7517 68.024C34.9224 68.024 35.0624 68.048 35.1717 68.096C35.2837 68.144 35.3717 68.2067 35.4357 68.284C35.4997 68.3613 35.5437 68.448 35.5677 68.544C35.5944 68.64 35.6077 68.736 35.6077 68.832V70H35.1597V69.756ZM35.1517 69.124H35.0437C34.9664 69.124 34.885 69.128 34.7997 69.136C34.7144 69.1413 34.6357 69.156 34.5637 69.18C34.4917 69.2013 34.4317 69.2333 34.3837 69.276C34.3357 69.316 34.3117 69.372 34.3117 69.444C34.3117 69.4893 34.321 69.528 34.3397 69.56C34.361 69.5893 34.3877 69.6133 34.4197 69.632C34.4517 69.6507 34.4877 69.664 34.5277 69.672C34.5677 69.68 34.6077 69.684 34.6477 69.684C34.813 69.684 34.9384 69.64 35.0237 69.552C35.109 69.464 35.1517 69.344 35.1517 69.192V69.124ZM35.8789 68.08H36.4109L36.9469 69.476H36.9549L37.4309 68.08H37.9309L37.0229 70.412C36.9882 70.5 36.9509 70.5773 36.9109 70.644C36.8709 70.7133 36.8229 70.7707 36.7669 70.816C36.7109 70.864 36.6442 70.9 36.5669 70.924C36.4922 70.948 36.4016 70.96 36.2949 70.96C36.2549 70.96 36.2136 70.9573 36.1709 70.952C36.1309 70.9493 36.0896 70.9427 36.0469 70.932L36.0869 70.516C36.1189 70.5267 36.1496 70.5333 36.1789 70.536C36.2109 70.5413 36.2402 70.544 36.2669 70.544C36.3176 70.544 36.3602 70.5373 36.3949 70.524C36.4296 70.5133 36.4589 70.4947 36.4829 70.468C36.5069 70.444 36.5282 70.4133 36.5469 70.376C36.5656 70.3387 36.5856 70.2947 36.6069 70.244L36.7029 70L35.8789 68.08Z" fill="#0C0C0D"/>
<path d="M57.704 69.084C57.704 69.188 57.692 69.2973 57.668 69.412C57.6467 69.5267 57.6053 69.6333 57.544 69.732C57.4827 69.8307 57.396 69.912 57.284 69.976C57.172 70.04 57.028 70.072 56.852 70.072C56.6227 70.072 56.4387 70.0147 56.3 69.9C56.164 69.7853 56.0707 69.6347 56.02 69.448L56.484 69.316C56.508 69.4093 56.552 69.484 56.616 69.54C56.68 69.5933 56.756 69.62 56.844 69.62C56.916 69.62 56.9747 69.6067 57.02 69.58C57.068 69.5533 57.104 69.516 57.128 69.468C57.1547 69.4173 57.1733 69.3587 57.184 69.292C57.1947 69.2227 57.2 69.148 57.2 69.068V67.168H57.704V69.084ZM60.0322 70H59.5762V69.692H59.5682C59.5255 69.788 59.4509 69.8733 59.3442 69.948C59.2402 70.02 59.1162 70.056 58.9722 70.056C58.8469 70.056 58.7389 70.0347 58.6482 69.992C58.5602 69.9467 58.4869 69.888 58.4282 69.816C58.3722 69.744 58.3309 69.6613 58.3042 69.568C58.2775 69.4747 58.2642 69.3787 58.2642 69.28V68.08H58.7442V69.144C58.7442 69.2 58.7482 69.2587 58.7562 69.32C58.7642 69.3813 58.7815 69.4373 58.8082 69.488C58.8349 69.536 58.8709 69.576 58.9162 69.608C58.9642 69.64 59.0269 69.656 59.1042 69.656C59.1789 69.656 59.2442 69.6413 59.3002 69.612C59.3589 69.58 59.4055 69.54 59.4402 69.492C59.4775 69.444 59.5055 69.3893 59.5242 69.328C59.5429 69.264 59.5522 69.2 59.5522 69.136V68.08H60.0322V70ZM60.6083 68.08H61.0643V68.388H61.0723C61.115 68.292 61.1883 68.208 61.2923 68.136C61.399 68.0613 61.5243 68.024 61.6683 68.024C61.7936 68.024 61.9003 68.0467 61.9883 68.092C62.079 68.1347 62.1523 68.192 62.2083 68.264C62.267 68.336 62.3096 68.4187 62.3363 68.512C62.363 68.6053 62.3763 68.7013 62.3763 68.8V70H61.8963V68.936C61.8963 68.88 61.8923 68.8213 61.8843 68.76C61.8763 68.6987 61.859 68.644 61.8323 68.596C61.8056 68.5453 61.7683 68.504 61.7203 68.472C61.675 68.44 61.6136 68.424 61.5363 68.424C61.459 68.424 61.3923 68.44 61.3363 68.472C61.2803 68.5013 61.2336 68.54 61.1963 68.588C61.1616 68.636 61.135 68.692 61.1163 68.756C61.0976 68.8173 61.0883 68.88 61.0883 68.944V70H60.6083V68.08ZM62.8484 69.72C62.8484 69.6347 62.8791 69.5613 62.9404 69.5C63.0044 69.4387 63.0804 69.408 63.1684 69.408C63.2538 69.408 63.3284 69.4373 63.3924 69.496C63.4564 69.5547 63.4884 69.6267 63.4884 69.712C63.4884 69.7973 63.4564 69.8707 63.3924 69.932C63.3311 69.9933 63.2564 70.024 63.1684 70.024C63.1258 70.024 63.0844 70.016 63.0444 70C63.0071 69.984 62.9738 69.9627 62.9444 69.936C62.9151 69.9093 62.8911 69.8773 62.8724 69.84C62.8564 69.8027 62.8484 69.7627 62.8484 69.72Z" fill="#0C0C0D"/>
<path d="M83.704 69.084C83.704 69.188 83.692 69.2973 83.668 69.412C83.6467 69.5267 83.6053 69.6333 83.544 69.732C83.4827 69.8307 83.396 69.912 83.284 69.976C83.172 70.04 83.028 70.072 82.852 70.072C82.6227 70.072 82.4387 70.0147 82.3 69.9C82.164 69.7853 82.0707 69.6347 82.02 69.448L82.484 69.316C82.508 69.4093 82.552 69.484 82.616 69.54C82.68 69.5933 82.756 69.62 82.844 69.62C82.916 69.62 82.9747 69.6067 83.02 69.58C83.068 69.5533 83.104 69.516 83.128 69.468C83.1547 69.4173 83.1733 69.3587 83.184 69.292C83.1947 69.2227 83.2 69.148 83.2 69.068V67.168H83.704V69.084ZM86.0322 70H85.5762V69.692H85.5682C85.5255 69.788 85.4509 69.8733 85.3442 69.948C85.2402 70.02 85.1162 70.056 84.9722 70.056C84.8469 70.056 84.7389 70.0347 84.6482 69.992C84.5602 69.9467 84.4869 69.888 84.4282 69.816C84.3722 69.744 84.3309 69.6613 84.3042 69.568C84.2775 69.4747 84.2642 69.3787 84.2642 69.28V68.08H84.7442V69.144C84.7442 69.2 84.7482 69.2587 84.7562 69.32C84.7642 69.3813 84.7815 69.4373 84.8082 69.488C84.8349 69.536 84.8709 69.576 84.9162 69.608C84.9642 69.64 85.0269 69.656 85.1042 69.656C85.1789 69.656 85.2442 69.6413 85.3002 69.612C85.3589 69.58 85.4055 69.54 85.4402 69.492C85.4775 69.444 85.5055 69.3893 85.5242 69.328C85.5429 69.264 85.5522 69.2 85.5522 69.136V68.08H86.0322V70ZM86.6163 66.976H87.0963V70H86.6163V66.976ZM87.5906 69.72C87.5906 69.6347 87.6213 69.5613 87.6826 69.5C87.7466 69.4387 87.8226 69.408 87.9106 69.408C87.996 69.408 88.0706 69.4373 88.1346 69.496C88.1986 69.5547 88.2306 69.6267 88.2306 69.712C88.2306 69.7973 88.1986 69.8707 88.1346 69.932C88.0733 69.9933 87.9986 70.024 87.9106 70.024C87.868 70.024 87.8266 70.016 87.7866 70C87.7493 69.984 87.716 69.9627 87.6866 69.936C87.6573 69.9093 87.6333 69.8773 87.6146 69.84C87.5986 69.8027 87.5906 69.7627 87.5906 69.72Z" fill="#0C0C0D"/>
<path d="M108.2 67.168H108.636L109.856 70H109.28L109.016 69.352H107.788L107.532 70H106.968L108.2 67.168ZM108.84 68.92L108.404 67.768L107.96 68.92H108.84ZM111.864 70H111.408V69.692H111.4C111.358 69.788 111.283 69.8733 111.176 69.948C111.072 70.02 110.948 70.056 110.804 70.056C110.679 70.056 110.571 70.0347 110.48 69.992C110.392 69.9467 110.319 69.888 110.26 69.816C110.204 69.744 110.163 69.6613 110.136 69.568C110.11 69.4747 110.096 69.3787 110.096 69.28V68.08H110.576V69.144C110.576 69.2 110.58 69.2587 110.588 69.32C110.596 69.3813 110.614 69.4373 110.64 69.488C110.667 69.536 110.703 69.576 110.748 69.608C110.796 69.64 110.859 69.656 110.936 69.656C111.011 69.656 111.076 69.6413 111.132 69.612C111.191 69.58 111.238 69.54 111.272 69.492C111.31 69.444 111.338 69.3893 111.356 69.328C111.375 69.264 111.384 69.2 111.384 69.136V68.08H111.864V70ZM114.392 68.08V69.828C114.392 70.0013 114.371 70.1573 114.328 70.296C114.286 70.4373 114.219 70.556 114.128 70.652C114.04 70.7507 113.928 70.8267 113.792 70.88C113.656 70.9333 113.495 70.96 113.308 70.96C113.231 70.96 113.148 70.9533 113.06 70.94C112.975 70.9267 112.89 70.9067 112.804 70.88C112.722 70.8533 112.642 70.82 112.564 70.78C112.487 70.74 112.418 70.6947 112.356 70.644L112.632 70.272C112.726 70.36 112.831 70.4267 112.948 70.472C113.066 70.52 113.184 70.544 113.304 70.544C113.419 70.544 113.515 70.5267 113.592 70.492C113.672 70.46 113.735 70.4147 113.78 70.356C113.828 70.2973 113.862 70.228 113.88 70.148C113.902 70.068 113.912 69.98 113.912 69.884V69.744H113.904C113.835 69.8373 113.746 69.9093 113.636 69.96C113.53 70.008 113.41 70.032 113.276 70.032C113.132 70.032 113.002 70.0053 112.884 69.952C112.767 69.8987 112.667 69.8267 112.584 69.736C112.504 69.6453 112.442 69.54 112.396 69.42C112.351 69.2973 112.328 69.168 112.328 69.032C112.328 68.8933 112.35 68.7627 112.392 68.64C112.438 68.5173 112.5 68.4107 112.58 68.32C112.663 68.2293 112.762 68.1573 112.876 68.104C112.994 68.0507 113.124 68.024 113.268 68.024C113.404 68.024 113.531 68.052 113.648 68.108C113.766 68.164 113.859 68.2507 113.928 68.368H113.936V68.08H114.392ZM113.368 68.416C113.28 68.416 113.202 68.432 113.132 68.464C113.066 68.496 113.008 68.54 112.96 68.596C112.915 68.6493 112.879 68.7133 112.852 68.788C112.828 68.8627 112.816 68.9427 112.816 69.028C112.816 69.1053 112.828 69.18 112.852 69.252C112.879 69.324 112.915 69.3893 112.96 69.448C113.008 69.504 113.066 69.5493 113.132 69.584C113.202 69.6187 113.279 69.636 113.364 69.636C113.452 69.636 113.531 69.62 113.6 69.588C113.672 69.5533 113.732 69.508 113.78 69.452C113.831 69.396 113.87 69.332 113.896 69.26C113.923 69.1853 113.936 69.108 113.936 69.028C113.936 68.9453 113.923 68.8667 113.896 68.792C113.87 68.7173 113.831 68.652 113.78 68.596C113.732 68.54 113.674 68.496 113.604 68.464C113.535 68.432 113.456 68.416 113.368 68.416ZM114.88 69.72C114.88 69.6347 114.91 69.5613 114.972 69.5C115.036 69.4387 115.112 69.408 115.2 69.408C115.285 69.408 115.36 69.4373 115.424 69.496C115.488 69.5547 115.52 69.6267 115.52 69.712C115.52 69.7973 115.488 69.8707 115.424 69.932C115.362 69.9933 115.288 70.024 115.2 70.024C115.157 70.024 115.116 70.016 115.076 70C115.038 69.984 115.005 69.9627 114.976 69.936C114.946 69.9093 114.922 69.8773 114.904 69.84C114.888 69.8027 114.88 69.7627 114.88 69.72Z" fill="#0C0C0D"/>
<path d="M135.756 67.76C135.703 67.6907 135.627 67.6333 135.528 67.588C135.432 67.54 135.335 67.516 135.236 67.516C135.177 67.516 135.119 67.524 135.06 67.54C135.001 67.5533 134.948 67.576 134.9 67.608C134.852 67.6373 134.812 67.6773 134.78 67.728C134.751 67.776 134.736 67.8347 134.736 67.904C134.736 67.968 134.749 68.0227 134.776 68.068C134.803 68.1133 134.839 68.152 134.884 68.184C134.932 68.216 134.989 68.244 135.056 68.268C135.123 68.292 135.196 68.316 135.276 68.34C135.367 68.3693 135.46 68.4027 135.556 68.44C135.655 68.4773 135.744 68.5267 135.824 68.588C135.907 68.6493 135.973 68.7267 136.024 68.82C136.077 68.9133 136.104 69.0293 136.104 69.168C136.104 69.32 136.076 69.4533 136.02 69.568C135.964 69.68 135.889 69.7733 135.796 69.848C135.703 69.9227 135.593 69.9787 135.468 70.016C135.343 70.0533 135.211 70.072 135.072 70.072C134.888 70.072 134.708 70.0387 134.532 69.972C134.356 69.9027 134.212 69.8013 134.1 69.668L134.46 69.332C134.529 69.428 134.621 69.504 134.736 69.56C134.853 69.616 134.968 69.644 135.08 69.644C135.139 69.644 135.199 69.6373 135.26 69.624C135.321 69.608 135.376 69.5827 135.424 69.548C135.475 69.5133 135.515 69.4707 135.544 69.42C135.576 69.3667 135.592 69.3013 135.592 69.224C135.592 69.1493 135.575 69.088 135.54 69.04C135.505 68.9893 135.459 68.9467 135.4 68.912C135.341 68.8747 135.272 68.8427 135.192 68.816C135.112 68.7893 135.028 68.7613 134.94 68.732C134.855 68.7053 134.769 68.6733 134.684 68.636C134.599 68.5987 134.521 68.5493 134.452 68.488C134.385 68.4267 134.331 68.352 134.288 68.264C134.245 68.1733 134.224 68.0613 134.224 67.928C134.224 67.784 134.253 67.66 134.312 67.556C134.373 67.452 134.452 67.3667 134.548 67.3C134.647 67.2307 134.757 67.18 134.88 67.148C135.005 67.1133 135.132 67.096 135.26 67.096C135.404 67.096 135.549 67.1213 135.696 67.172C135.845 67.2227 135.975 67.2987 136.084 67.4L135.756 67.76ZM137.937 68.848C137.937 68.7867 137.928 68.728 137.909 68.672C137.893 68.616 137.866 68.5667 137.829 68.524C137.792 68.4813 137.744 68.448 137.685 68.424C137.629 68.3973 137.562 68.384 137.485 68.384C137.341 68.384 137.218 68.428 137.117 68.516C137.018 68.6013 136.964 68.712 136.953 68.848H137.937ZM138.417 69.064C138.417 69.0853 138.417 69.1067 138.417 69.128C138.417 69.1493 138.416 69.1707 138.413 69.192H136.953C136.958 69.2613 136.976 69.3253 137.005 69.384C137.037 69.44 137.078 69.4893 137.129 69.532C137.18 69.572 137.237 69.604 137.301 69.628C137.365 69.652 137.432 69.664 137.501 69.664C137.621 69.664 137.722 69.6427 137.805 69.6C137.888 69.5547 137.956 69.4933 138.009 69.416L138.329 69.672C138.14 69.928 137.865 70.056 137.505 70.056C137.356 70.056 137.218 70.0333 137.093 69.988C136.968 69.94 136.858 69.8733 136.765 69.788C136.674 69.7027 136.602 69.5987 136.549 69.476C136.498 69.3507 136.473 69.2093 136.473 69.052C136.473 68.8973 136.498 68.7573 136.549 68.632C136.602 68.504 136.674 68.396 136.765 68.308C136.856 68.2173 136.962 68.148 137.085 68.1C137.21 68.0493 137.345 68.024 137.489 68.024C137.622 68.024 137.745 68.0467 137.857 68.092C137.972 68.1347 138.07 68.2 138.153 68.288C138.236 68.3733 138.3 68.4813 138.345 68.612C138.393 68.74 138.417 68.8907 138.417 69.064ZM139.342 68.08V68.348H139.354C139.378 68.3107 139.408 68.2733 139.446 68.236C139.486 68.196 139.534 68.1613 139.59 68.132C139.646 68.1 139.708 68.0747 139.778 68.056C139.85 68.0347 139.93 68.024 140.018 68.024C140.154 68.024 140.279 68.0507 140.394 68.104C140.508 68.1547 140.607 68.2253 140.69 68.316C140.772 68.4067 140.836 68.5133 140.882 68.636C140.927 68.7587 140.95 68.8907 140.95 69.032C140.95 69.1733 140.927 69.3067 140.882 69.432C140.839 69.5547 140.776 69.6627 140.694 69.756C140.614 69.8467 140.515 69.92 140.398 69.976C140.283 70.0293 140.152 70.056 140.006 70.056C139.87 70.056 139.744 70.028 139.63 69.972C139.518 69.916 139.431 69.84 139.37 69.744H139.362V70.96H138.882V68.08H139.342ZM140.462 69.032C140.462 68.9573 140.45 68.884 140.426 68.812C140.404 68.7373 140.371 68.6707 140.326 68.612C140.28 68.5533 140.223 68.5067 140.154 68.472C140.084 68.4347 140.003 68.416 139.91 68.416C139.822 68.416 139.743 68.4347 139.674 68.472C139.604 68.5093 139.544 68.5573 139.494 68.616C139.446 68.6747 139.408 68.7413 139.382 68.816C139.358 68.8907 139.346 68.9653 139.346 69.04C139.346 69.1147 139.358 69.1893 139.382 69.264C139.408 69.336 139.446 69.4013 139.494 69.46C139.544 69.5187 139.604 69.5667 139.674 69.604C139.743 69.6387 139.822 69.656 139.91 69.656C140.003 69.656 140.084 69.6373 140.154 69.6C140.223 69.5627 140.28 69.5147 140.326 69.456C140.371 69.3973 140.404 69.3307 140.426 69.256C140.45 69.1813 140.462 69.1067 140.462 69.032ZM141.137 68.464V68.08H141.473V67.524H141.945V68.08H142.425V68.464H141.945V69.356C141.945 69.4413 141.96 69.512 141.989 69.568C142.021 69.624 142.09 69.652 142.197 69.652C142.229 69.652 142.264 69.6493 142.301 69.644C142.338 69.636 142.372 69.6253 142.401 69.612L142.417 69.988C142.374 70.004 142.324 70.016 142.265 70.024C142.206 70.0347 142.15 70.04 142.097 70.04C141.969 70.04 141.865 70.0227 141.785 69.988C141.705 69.9507 141.641 69.9013 141.593 69.84C141.548 69.776 141.516 69.704 141.497 69.624C141.481 69.5413 141.473 69.4533 141.473 69.36V68.464H141.137ZM142.684 69.72C142.684 69.6347 142.715 69.5613 142.776 69.5C142.84 69.4387 142.916 69.408 143.004 69.408C143.09 69.408 143.164 69.4373 143.228 69.496C143.292 69.5547 143.324 69.6267 143.324 69.712C143.324 69.7973 143.292 69.8707 143.228 69.932C143.167 69.9933 143.092 70.024 143.004 70.024C142.962 70.024 142.92 70.016 142.88 70C142.843 69.984 142.81 69.9627 142.78 69.936C142.751 69.9093 142.727 69.8773 142.708 69.84C142.692 69.8027 142.684 69.7627 142.684 69.72Z" fill="#0C0C0D"/>
<path d="M161.176 68.576C161.176 68.3493 161.213 68.1453 161.288 67.964C161.365 67.78 161.471 67.624 161.604 67.496C161.74 67.368 161.9 67.2693 162.084 67.2C162.271 67.1307 162.473 67.096 162.692 67.096C162.913 67.096 163.117 67.1307 163.304 67.2C163.491 67.2693 163.652 67.368 163.788 67.496C163.924 67.624 164.029 67.78 164.104 67.964C164.181 68.1453 164.22 68.3493 164.22 68.576C164.22 68.7973 164.181 69 164.104 69.184C164.029 69.3653 163.924 69.5227 163.788 69.656C163.652 69.7867 163.491 69.8893 163.304 69.964C163.117 70.036 162.913 70.072 162.692 70.072C162.473 70.072 162.271 70.036 162.084 69.964C161.9 69.8893 161.74 69.7867 161.604 69.656C161.471 69.5227 161.365 69.3653 161.288 69.184C161.213 69 161.176 68.7973 161.176 68.576ZM161.724 68.576C161.724 68.728 161.747 68.868 161.792 68.996C161.84 69.1213 161.907 69.2307 161.992 69.324C162.08 69.4173 162.183 69.4907 162.3 69.544C162.42 69.5947 162.552 69.62 162.696 69.62C162.84 69.62 162.972 69.5947 163.092 69.544C163.212 69.4907 163.315 69.4173 163.4 69.324C163.488 69.2307 163.555 69.1213 163.6 68.996C163.648 68.868 163.672 68.728 163.672 68.576C163.672 68.4293 163.648 68.2933 163.6 68.168C163.555 68.0427 163.489 67.9333 163.404 67.84C163.319 67.7467 163.216 67.6733 163.096 67.62C162.976 67.5667 162.843 67.54 162.696 67.54C162.549 67.54 162.416 67.5667 162.296 67.62C162.179 67.6733 162.077 67.7467 161.992 67.84C161.907 67.9333 161.84 68.0427 161.792 68.168C161.747 68.2933 161.724 68.4293 161.724 68.576ZM165.995 68.612C165.957 68.5587 165.901 68.5147 165.827 68.48C165.752 68.4427 165.676 68.424 165.599 68.424C165.511 68.424 165.433 68.4427 165.367 68.48C165.3 68.5147 165.244 68.5613 165.199 68.62C165.156 68.6787 165.124 68.7453 165.103 68.82C165.081 68.892 165.071 68.9653 165.071 69.04C165.071 69.1147 165.081 69.1893 165.103 69.264C165.127 69.336 165.161 69.4013 165.207 69.46C165.252 69.5187 165.308 69.5667 165.375 69.604C165.444 69.6387 165.524 69.656 165.615 69.656C165.689 69.656 165.764 69.6413 165.839 69.612C165.913 69.5827 165.973 69.54 166.019 69.484L166.319 69.788C166.239 69.8733 166.136 69.94 166.011 69.988C165.888 70.0333 165.755 70.056 165.611 70.056C165.469 70.056 165.335 70.0333 165.207 69.988C165.081 69.9427 164.971 69.876 164.875 69.788C164.781 69.7 164.707 69.5933 164.651 69.468C164.597 69.3427 164.571 69.2 164.571 69.04C164.571 68.8853 164.597 68.7453 164.651 68.62C164.707 68.4947 164.781 68.388 164.875 68.3C164.968 68.212 165.076 68.144 165.199 68.096C165.324 68.048 165.457 68.024 165.599 68.024C165.74 68.024 165.876 68.0507 166.007 68.104C166.14 68.1573 166.245 68.2307 166.323 68.324L165.995 68.612ZM166.36 68.464V68.08H166.696V67.524H167.168V68.08H167.648V68.464H167.168V69.356C167.168 69.4413 167.182 69.512 167.212 69.568C167.244 69.624 167.313 69.652 167.42 69.652C167.452 69.652 167.486 69.6493 167.524 69.644C167.561 69.636 167.594 69.6253 167.624 69.612L167.64 69.988C167.597 70.004 167.546 70.016 167.488 70.024C167.429 70.0347 167.373 70.04 167.32 70.04C167.192 70.04 167.088 70.0227 167.008 69.988C166.928 69.9507 166.864 69.9013 166.816 69.84C166.77 69.776 166.738 69.704 166.72 69.624C166.704 69.5413 166.696 69.4533 166.696 69.36V68.464H166.36ZM167.907 69.72C167.907 69.6347 167.938 69.5613 167.999 69.5C168.063 69.4387 168.139 69.408 168.227 69.408C168.312 69.408 168.387 69.4373 168.451 69.496C168.515 69.5547 168.547 69.6267 168.547 69.712C168.547 69.7973 168.515 69.8707 168.451 69.932C168.39 69.9933 168.315 70.024 168.227 70.024C168.184 70.024 168.143 70.016 168.103 70C168.066 69.984 168.032 69.9627 168.003 69.936C167.974 69.9093 167.95 69.8773 167.931 69.84C167.915 69.8027 167.907 69.7627 167.907 69.72Z" fill="#0C0C0D"/>
<path d="M1 27.246C5.56376 27.246 10.1275 27.246 14.6913 27.246C17.5413 27.246 20.7908 26.4716 23.5977 27.6706C25.6921 28.5652 27.6895 30.0351 29.7095 31.3149C31.5364 32.4723 33.5723 32.5791 35.4594 33.7562C36.8584 34.6288 38.5212 36.2077 39.9428 36.7637C41.9208 37.5372 44.1172 37.1955 46.1551 37.9312C47.9993 38.597 49.7632 38.5927 51.6236 38.745C54.6867 38.9957 57.4832 40.3588 60.4496 41.5048C63.3673 42.6319 66.9664 42.5308 69.939 42.5308C73.7447 42.5308 77.3692 43.8046 81.2177 43.8046C84.1216 43.8046 86.9281 44.4414 89.8225 44.4414C92.6388 44.4414 95.577 44.0792 98.367 44.7953C105.24 46.5592 112.008 49.7211 118.934 50.2086C121.897 50.4172 124.687 52.0839 127.66 52.0839C131.003 52.0839 134.33 52.7259 137.631 53.7114C141.761 54.9444 145.862 56.0611 149.936 57.6741C151.722 58.3816 153.705 57.6079 155.525 57.8864C157.455 58.1818 159.28 59.7263 161.214 59.7263C164.267 59.7263 167.014 61 170 61" stroke="#7A18F6" stroke-linecap="round" stroke-linejoin="round"/>
<circle cx="7" cy="27" r="1" fill="#7A18F6"/>
<circle cx="34" cy="33" r="1" fill="#7A18F6"/>
<circle cx="60" cy="41" r="1" fill="#7A18F6"/>
<circle cx="86" cy="44" r="1" fill="#7A18F6"/>
<circle cx="112" cy="49" r="1" fill="#7A18F6"/>
<circle cx="139" cy="54" r="1" fill="#7A18F6"/>
<circle cx="165" cy="60" r="1" fill="#7A18F6"/>
</svg>
